<?xml version="1.0" encoding="UTF-8"?>
<svg id="Layer_1" data-name="Layer 1" xmlns="http://www.w3.org/2000/svg" viewBox="0 0 595.28 595.28">
  <defs>
    <style>
      .cls-1 {
        fill: #fff;
      }

      .cls-2 {
        fill: #31479d;
      }
    </style>
  </defs>
  <rect class="cls-2" y=".37" width="595.28" height="595.28"/>
  <g>
    <path class="cls-2" d="M489.53,490.36H105.53V106.36H489.53V490.36Zm-250.04-167.69c-16.49,0-33.2-.05-49.92,.02-13.8,.06-26.31,9.77-28.53,23.41-1.35,8.28-.9,16.9-.81,25.36,.04,3.71-1.03,5.5-4.46,7.28-27.41,14.25-42.02,36.96-43.47,67.85-.47,10.09-.1,20.21-.08,30.32,0,5.48,1.96,7.47,7.37,7.47,118.91,0,237.82,0,356.72,0,5.17,0,7.19-2.05,7.2-7.27,.02-9.11,.14-18.22-.02-27.33-.55-33.15-15.75-57.16-45.34-72.02-2.01-1.01-2.63-2.12-2.59-4.24,.12-7.11,.09-14.23,.03-21.34-.14-16.27-13.31-29.39-29.61-29.49-9.23-.06-18.47-.01-27.7-.01-7.45,0-14.89,0-22.51,0,.14-.67,.17-1.03,.3-1.34,4.03-9.77,8.04-19.54,12.16-29.27,.5-1.18,1.49-2.26,2.5-3.09,6.95-5.68,14.07-11.16,20.94-16.95,6.76-5.7,9.41-13.13,7.45-21.79-2.02-8.95-7.74-14.55-16.66-16.81-1.26-.32-2.51-.64-3.97-1.01,4.27-11.74,8.44-23.19,12.62-34.64,2.67-7.32,4.19-14.81,4.2-22.65,.03-29.25-20.08-54.94-48.64-60.44-9.91-1.91-20.33-1.66-30.51-1.58-19.56,.16-39.22-.14-58.66,1.65-29.57,2.73-56.89,13.08-82.03,28.88-1.71,1.07-3.28,4.14-3.04,6.04,.25,1.9,2.54,4.18,4.49,5.08,4.15,1.92,8.69,3,13.02,4.54,9.14,3.24,13.12,11.09,10.03,20.2-2.88,8.5-2.31,16.56,1.87,24.55,4.9,9.37,9.48,18.91,14.27,28.5-.88,.3-1.57,.59-2.29,.76-9.45,2.19-15.44,8.07-17.34,17.48-1.81,8.98,1.44,16.4,8.59,22.11,6.63,5.29,13.25,10.59,19.84,15.93,.94,.76,2.04,1.64,2.46,2.7,4.07,10.25,8.02,20.56,12.11,31.14Z"/>
    <path class="cls-1" d="M239.48,322.66c-4.09-10.58-8.04-20.88-12.11-31.14-.42-1.06-1.52-1.94-2.46-2.7-6.59-5.34-13.22-10.63-19.84-15.93-7.15-5.71-10.4-13.13-8.59-22.11,1.9-9.41,7.89-15.29,17.34-17.48,.72-.17,1.4-.46,2.29-.76-4.78-9.59-9.37-19.13-14.27-28.5-1.85-9.86-3.46-5.36-4.43-17.51-.76-9.59-4.06-10.73-.98-22.65-1.42,8.46,.61-3.13,2.03-7.48,.79-2.41,10.45-17.8,5.62-8.68-.89,1.69,5.44-10.67,7.15-11.74,20.93-19.4,16.69-18.49,46.26-21.22,19.44-1.79,39.1-1.49,58.66-1.65,10.18-.08,20.6-.33,30.51,1.58,28.56,5.5,48.67,31.19,48.64,60.44,0,7.84-1.53,15.33-4.2,22.65-4.18,11.45-8.34,22.9-12.62,34.64,1.45,.37,2.71,.69,3.97,1.01,8.92,2.26,14.64,7.86,16.66,16.81,1.96,8.66-.69,16.09-7.45,21.79-6.86,5.79-13.99,11.27-20.94,16.95-1.01,.83-2,1.91-2.5,3.09-4.12,9.73-8.13,19.5-12.16,29.27-.13,.32-.15,.67-.3,1.34,7.62,0,15.06,0,22.51,0,9.23,0,18.47-.05,27.7,.01,16.31,.1,29.48,13.22,29.61,29.49,.06,7.11,.09,14.23-.03,21.34-.03,2.13,.58,3.23,2.59,4.24,29.59,14.85,44.79,38.87,45.34,72.02,.15,9.11,.04,18.22,.02,27.33-.01,5.22-2.03,7.27-7.2,7.27-118.91,0-237.82,0-356.72,0-5.41,0-7.37-1.99-7.37-7.47-.01-10.11-.39-20.23,.08-30.32,1.45-30.88,16.06-53.6,43.47-67.85,3.43-1.78,4.5-3.57,4.46-7.28-.09-8.46-.54-17.07,.81-25.36,2.21-13.64,14.73-23.35,28.53-23.41,16.72-.07,33.43-.02,49.92-.02Zm-67.33,149.38h251.42v-4.02c0-37.68,0-75.35,0-113.03,0-13.17-7.17-20.3-20.37-20.31-70.23,0-140.46,0-210.68,0-13.18,0-20.36,7.17-20.36,20.31,0,36.8,0,73.61,0,110.41v6.63Zm179.67-227.04c0,6.2,.06,12.16-.01,18.12-.13,9.67-8,17.5-17.69,17.63-4.24,.06-8.48,.07-12.72,0-9.66-.16-17.45-8.03-17.59-17.74-.03-1.96,0-3.91,0-5.9h-11.87c0,2.05,.01,3.79,0,5.53-.08,8.63-5.4,16.1-13.94,17.44-6.54,1.02-13.5,1.04-20.04,.03-8.71-1.34-14-8.83-14.04-17.75-.03-5.8,0-11.61,0-17.24h-11.75c.78,27.22,7.7,52.4,21.33,75.64,.63,1.08,2.85,1.73,4.33,1.74,26.7,.1,53.39,.03,80.09,.14,2.61,.01,3.98-.85,5.23-3.08,8.94-15.89,15.05-32.79,18.1-50.73,1.32-7.79,1.8-15.72,2.69-23.84h-12.1Zm-.17-58.48c-2.12,1.7-38.81-23.49-113.36,1.53-12.5,10.69,.36,54.13-16.24,54.13-8.74,0,55.87-48.51,48.52-43.69-12.29,8.06-24.49,16.25-36.66,24.49-.92,.62-1.63,2.06-1.79,3.2-.29,2.04-.08,4.15-.08,6.54,1.77,0,3.12,0,4.46,0,15.96,0,31.93,0,47.89,0,5.41,0,7.49,2.07,7.54,7.38,.01,1.45,0,2.89,0,4.39h11.72c.05-1.17,.12-2.14,.14-3.11,.08-7.13,1.65-8.67,8.87-8.67,15.59,0,31.18,0,46.77,0,1.32,0,2.65,0,3.91,0,2.94-24.97,11-12.76-11.69-46.21Zm-95.69,58.39c0,6.23-.11,12.06,.04,17.89,.09,3.5,2.43,5.75,5.97,5.88,3.97,.15,7.96,.14,11.93,0,3.27-.11,5.66-1.98,5.83-5.19,.33-6.15,.09-12.32,.09-18.58h-23.86Zm83.81,.13h-23.92c0,6.09-.11,11.93,.04,17.75,.09,3.5,2.43,5.76,5.96,5.89,3.97,.15,7.96,.15,11.93,0,3.53-.14,5.85-2.4,5.94-5.92,.15-5.82,.04-11.65,.04-17.72Zm-117.72,25.86c-.89-9.09-1.7-17.43-2.54-25.94-4.51-.23-7.99,1.46-10.15,5.47-2.02,3.75-1.65,8.09,1.42,11.04,3.37,3.24,7.17,6.03,11.26,9.42Zm151.62,.03c4.12-3.41,7.93-6.2,11.28-9.46,3.21-3.12,3.38-7.9,1.05-11.72-2.18-3.56-6.11-5.24-9.85-4.3-.8,8.27-1.6,16.49-2.47,25.48Z"/>
    <path class="cls-2" d="M172.16,472.04v-6.63c0-36.8,0-73.61,0-110.41,0-13.14,7.19-20.31,20.36-20.31,70.23,0,140.46,0,210.68,0,13.2,0,20.37,7.14,20.37,20.31,0,37.68,0,75.35,0,113.03v4.02H172.16Zm149.73-41.47c.02-13.37-10.56-24.08-23.82-24.12-13.4-.04-24.16,10.5-24.21,23.73-.05,13.58,10.54,24.31,24.01,24.32,13.31,0,24.01-10.65,24.03-23.92Zm-64.47-88.01c-7.91,7.88-15.99,15.8-23.91,23.89-2.52,2.57-2.24,5.91,.37,8.68,2.48,2.63,5.09,5.12,7.64,7.68,5.34,5.36,10.68,10.72,15.92,15.98,3.09-2.98,5.85-5.65,9.07-8.75-6.64-6.45-13.21-12.82-20.12-19.53,6.88-6.76,13.34-13.11,19.95-19.61-3.01-2.82-5.8-5.43-8.93-8.36Zm80.87,.06c-3.08,2.88-5.88,5.49-9.25,8.64,6.68,6.58,13.2,13.01,20.27,19.98-6.65,6.45-13.16,12.76-19.1,18.52,2.7,3.04,5.29,5.97,7.96,8.98,8.1-8.06,16.1-15.91,23.95-23.9,2.5-2.54,2.57-5.9,.12-8.4-7.93-8.07-16.03-15.98-23.94-23.83Zm-27.42,.39c-12.01,16.03-23.92,31.92-35.98,48.01,3.52,2.63,6.65,4.96,9.87,7.36,12.17-16.24,24.02-32.05,36.08-48.15-2.63-2-4.97-3.81-7.34-5.57-.78-.58-1.64-1.03-2.63-1.65Z"/>
    <path class="cls-2" d="M351.83,245.01h12.1c-.89,8.11-1.36,16.05-2.69,23.84-3.05,17.94-9.16,34.84-18.1,50.73-1.25,2.23-2.62,3.09-5.23,3.08-26.7-.1-53.39-.04-80.09-.14-1.48,0-3.7-.66-4.33-1.74-13.63-23.25-20.55-48.42-21.33-75.64h11.75c0,5.63-.02,11.44,0,17.24,.04,8.91,5.33,16.4,14.04,17.75,6.54,1.01,13.5,.99,20.04-.03,8.55-1.33,13.86-8.81,13.94-17.44,.02-1.74,0-3.49,0-5.53h11.87c0,1.99-.02,3.95,0,5.9,.14,9.71,7.93,17.58,17.59,17.74,4.24,.07,8.48,.06,12.72,0,9.69-.14,17.56-7.96,17.69-17.63,.08-5.96,.01-11.92,.01-18.12Z"/>
    <path class="cls-2" d="M351.66,186.53c17.69,23.64,14.63,21.24,11.69,46.21-1.26,0-2.59,0-3.91,0-15.59,0-31.18,0-46.77,0-7.23,0-8.79,1.54-8.87,8.67-.01,.97-.08,1.94-.14,3.11h-11.72c0-1.5,.01-2.95,0-4.39-.05-5.31-2.13-7.37-7.54-7.38-15.96-.01-31.93,0-47.89,0-1.34,0-2.69,0-4.46,0,0-2.39-.21-4.5,.08-6.54,.16-1.15,.87-2.58,1.79-3.2,1.52-19.28,3.73-41.93,34-31.36,4.31-14.52,18.23-.6,26.98-.6,16.59,0,44.26,6.19,56.76-4.5,1.88-1.61-2.12,1.7,0,0Z"/>
    <path class="cls-2" d="M255.97,244.91h23.86c0,6.26,.23,12.44-.09,18.58-.17,3.21-2.56,5.07-5.83,5.19-3.97,.14-7.96,.15-11.93,0-3.54-.13-5.88-2.39-5.97-5.88-.15-5.82-.04-11.66-.04-17.89Z"/>
    <path class="cls-2" d="M339.78,245.04c0,6.07,.11,11.9-.04,17.72-.09,3.51-2.42,5.78-5.94,5.92-3.97,.15-7.96,.15-11.93,0-3.54-.13-5.87-2.39-5.96-5.89-.15-5.82-.04-11.66-.04-17.75h23.92Z"/>
    <path class="cls-2" d="M222.05,270.9c-4.09-3.39-7.89-6.18-11.26-9.42-3.07-2.95-3.44-7.3-1.42-11.04,2.16-4.02,5.64-5.7,10.15-5.47,.83,8.51,1.65,16.84,2.54,25.94Z"/>
    <path class="cls-2" d="M373.68,270.94c.87-8.99,1.67-17.21,2.47-25.48,3.75-.93,7.67,.74,9.85,4.3,2.34,3.81,2.16,8.6-1.05,11.72-3.35,3.26-7.16,6.05-11.28,9.46Z"/>
    <path class="cls-1" d="M321.89,430.57c-.02,13.28-10.72,23.93-24.03,23.92-13.47,0-24.06-10.74-24.01-24.32,.05-13.22,10.81-23.77,24.21-23.73,13.26,.04,23.84,10.75,23.82,24.12Zm-23.89,11.83c6.46-.08,11.83-5.53,11.81-11.98-.02-6.59-5.66-12.07-12.26-11.91-6.43,.16-11.77,5.75-11.62,12.16,.15,6.48,5.62,11.8,12.07,11.72Z"/>
    <path class="cls-1" d="M257.42,342.56c3.13,2.93,5.92,5.54,8.93,8.36-6.61,6.5-13.07,12.85-19.95,19.61,6.91,6.71,13.48,13.08,20.12,19.53-3.22,3.1-5.98,5.77-9.07,8.75-5.24-5.26-10.58-10.63-15.92-15.98-2.55-2.56-5.17-5.05-7.64-7.68-2.61-2.77-2.89-6.11-.37-8.68,7.92-8.09,16-16.01,23.91-23.89Z"/>
    <path class="cls-1" d="M338.29,342.61c7.91,7.85,16.01,15.76,23.94,23.83,2.45,2.5,2.38,5.86-.12,8.4-7.85,7.99-15.84,15.83-23.95,23.9-2.67-3.01-5.27-5.94-7.96-8.98,5.94-5.76,12.45-12.07,19.1-18.52-7.07-6.97-13.59-13.39-20.27-19.98,3.38-3.16,6.17-5.76,9.25-8.64Z"/>
    <path class="cls-1" d="M310.86,343.01c.99,.62,1.86,1.08,2.63,1.65,2.37,1.76,4.71,3.57,7.34,5.57-12.06,16.09-23.91,31.91-36.08,48.15-3.22-2.41-6.35-4.74-9.87-7.36,12.06-16.09,23.97-31.98,35.98-48.01Z"/>
    <path class="cls-2" d="M297.99,442.4c-6.44,.08-11.92-5.24-12.07-11.72-.15-6.42,5.18-12,11.62-12.16,6.6-.16,12.24,5.31,12.26,11.91,.02,6.45-5.35,11.9-11.81,11.98Z"/>
  </g>
</svg>