<?xml version="1.0" encoding="UTF-8"?>
<svg id="Layer_1" data-name="Layer 1" xmlns="http://www.w3.org/2000/svg" viewBox="0 0 595.28 595.28">
  <defs>
    <style>
      .cls-1 {
        fill: #fff;
      }

      .cls-2 {
        fill: #31479d;
      }

      .cls-3 {
        fill: none;
      }
    </style>
  </defs>
  <rect class="cls-2" x=".47" y="0" width="595.28" height="595.28"/>
  <g>
    <path class="cls-2" d="M113.54,113.54H481.74V481.74H113.54c0-122.73,0-245.46,0-368.2Zm314.35,106.02c0-24.39,0-48.78,0-73.18,0-7.18-4.05-11.21-11.28-11.21-34.59,0-69.19,0-103.78,0-8.97,0-17.95-.04-26.92,.02-5.5,.04-9.77,4.29-9.9,9.76-.08,3.37-.06,6.75,0,10.12,.04,2.52,1.55,4.04,3.78,3.99,2.11-.05,3.52-1.58,3.57-3.96,.05-2.61,.01-5.22,.01-7.82,0-4.26,.51-4.77,4.73-4.77,42.72,0,85.45,0,128.17,0,3.53,0,4.25,.73,4.25,4.34,0,48.17,0,96.34,0,144.51,0,4.43-.47,4.89-4.84,4.89-32.14,0-64.28,0-96.42,0-2.95,0-4.61,1.33-4.58,3.64,.02,2.29,1.66,3.73,4.3,3.73,32.59,0,65.18,.02,97.76,.02,7.08,0,11.16-4.09,11.16-11.13,0-24.32,0-48.63,0-72.95Zm-208.9-51.24c-24.01,0-48.01,0-72.02,0-6.79,0-10.87,4.12-10.87,10.88,0,36.66,0,73.32,0,109.99,0,6.14-.05,12.27,.02,18.41,.06,5.36,4.28,9.64,9.61,9.8,2.84,.09,5.68,.06,8.51,0,2.34-.05,3.9-1.56,3.92-3.63,.02-2.1-1.52-3.64-3.83-3.71-2.07-.07-4.14-.02-6.21-.02-4.18,0-4.65-.47-4.65-4.57,0-41.8,0-83.6,0-125.4,0-3.78,.6-4.4,4.38-4.41,47.4,0,94.8,0,142.2,0,3.71,0,4.36,.68,4.36,4.46,0,32.29,0,64.58,0,96.87,0,.69-.05,1.39,.03,2.07,.23,2.04,1.46,3.17,3.46,3.36,1.89,.18,3.56-1.27,3.83-3.23,.07-.53,.03-1.07,.03-1.61,0-32.75,0-65.5,0-98.25,0-6.93-4.07-11-10.98-11-23.93,0-47.86,0-71.79,0Zm-52.54,209.75c0,23.47,0,46.94,0,70.42,0,7.69,3.91,11.6,11.57,11.6,42.88,0,85.76,0,128.64,0,.77,0,1.54,.02,2.3-.03,4.9-.3,9-4.27,9.32-9.16,.16-2.44,.1-4.91,.02-7.36-.07-2.21-1.58-3.66-3.61-3.68-2.16-.03-3.63,1.44-3.7,3.81-.06,1.84,0,3.68-.02,5.52-.04,2.64-.95,3.56-3.64,3.56-43.26,0-86.52,0-129.79,0-2.81,0-3.72-.9-3.72-3.7,0-47.25,0-94.5,0-141.75,0-2.84,.83-3.64,3.73-3.64,25,0,50,0,75,0,7.36,0,14.72,.01,22.08,0,1.74,0,3.42-.62,3.74-2.4,.22-1.24-.13-2.97-.91-3.89-.67-.79-2.32-1.03-3.54-1.04-31.98-.05-63.97-.04-95.95-.04-7.71,0-11.53,3.85-11.53,11.63,0,23.4,0,46.79,0,70.19Zm210.22,51.66c23.62,0,47.25,0,70.87,0,7.7,0,11.62-3.88,11.62-11.55,0-43.26,0-86.52,0-129.78,0-.46,.01-.92,0-1.38-.2-4.49-3.8-8.11-8.31-8.24-2.99-.08-5.98-.06-8.97,0-2.38,.05-3.85,1.5-3.86,3.65,0,2.1,1.52,3.62,3.85,3.69,2.22,.07,4.45,.02,6.67,.02q3.25,0,3.25,3.14c0,42.88,0,85.75,0,128.63,0,3.83-.6,4.44-4.35,4.44-47.02,0-94.03,0-141.05,0-4.07,0-4.62-.55-4.62-4.64,0-30.68,0-61.36,0-92.04,0-.84,.1-1.72-.09-2.52-.47-1.96-1.79-3.04-3.83-2.93-1.93,.11-3.06,1.27-3.38,3.16-.1,.6-.04,1.22-.04,1.84,0,31.14,0,62.28,0,93.42,0,7.02,4.1,11.08,11.15,11.08,23.7,0,47.4,0,71.1,0Zm34.86-101.43c-13.17,13.55-26.14,26.89-39.18,40.3-7.01-6.68-13.7-13.07-20.42-19.48-.44,.38-.75,.6-1.02,.87-11.91,12.05-23.82,24.11-35.72,36.17-.8,.82-1.63,1.66-2.23,2.62-2.48,3.94-2.76,8.09-.6,12.23,2.29,4.4,6.07,6.59,11.02,6.59,34.44,.02,68.87,0,103.31,.01,6.67,0,10.4-3.7,10.4-10.35,0-10.43-.26-20.87,.08-31.29,.29-9.07-2.62-16.39-9.49-22.38-5.3-4.62-10.24-9.67-16.15-15.3Zm-171.19,57.4c-.71-.56-1.07-.82-1.39-1.1-4.94-4.32-10.69-6.56-17.26-6.39-10.54,.27-18.42,5.17-22.94,14.6-4.65,9.71-3.5,19.23,3.38,27.54,6.69,8.07,15.55,10.97,25.8,8.61,12.05-2.78,19.81-13.09,19.83-25.99,.03-18.33,0-36.66,0-54.99,0-.84,0-1.67,0-2.51,3.4,4.43,7.45,7.06,12.68,7.84,3.74,.56,6.29,2.61,7.67,6.12,.86,2.21,1.66,4.45,2.59,6.63,.92,2.14,2.92,2.96,4.87,2.14,1.87-.79,2.7-2.66,1.95-4.77-.98-2.74-1.96-5.49-3.19-8.12-2.49-5.33-6.8-8.38-12.56-9.28-3.83-.6-6.47-2.54-7.93-6.13-.89-2.2-1.73-4.43-2.8-6.54-1.11-2.19-3.08-3.2-5.52-2.96-2.32,.23-4.06,1.49-4.81,3.72-.36,1.06-.34,2.27-.35,3.41-.02,15.11-.02,30.22-.03,45.33,0,.82,0,1.63,0,2.86Zm153.41-166.29c-1.1-.67-1.8-1.12-2.52-1.53-16.65-9.62-33.3-19.24-49.95-28.84-6.2-3.57-11.88-.27-11.88,6.9,0,15.56,.25,31.13-.12,46.69-.16,6.6,6.01,10.86,12.26,7.08,11.86-7.18,23.98-13.93,35.98-20.87,5.29-3.06,10.58-6.13,16.23-9.41Zm-174.47,10.58c15.95,0,31.89,0,47.84,0,.69,0,1.4,.08,2.06-.06,1.97-.41,3.14-1.67,3.1-3.69-.04-2.02-1.23-3.24-3.23-3.58-.67-.11-1.38-.04-2.07-.04-31.59,0-63.18,0-94.76,0-.84,0-1.7-.07-2.53,.06-2.01,.31-3.11,1.56-3.22,3.58-.1,1.8,1.28,3.41,3.12,3.68,.68,.1,1.38,.06,2.07,.06,15.87,0,31.74,0,47.61,0Zm.09,9.19c-7.74,0-15.48,0-23.23,0-8.59,0-17.17-.02-25.76,.02-2.36,.01-3.89,1.51-3.92,3.62-.02,2.08,1.54,3.6,3.84,3.73,.31,.02,.61,0,.92,0,32.12,0,64.24,0,96.36-.01,.46,0,.93,.04,1.38-.03,2-.31,3.17-1.49,3.34-3.5,.16-1.89-1.28-3.54-3.26-3.8-.75-.1-1.53-.04-2.3-.04-15.79,0-31.58,0-47.37,0Zm139.91,89.99c-.08,9.69,7.72,17.66,17.35,17.72,9.66,.06,17.61-7.78,17.67-17.41,.06-9.55-7.73-17.48-17.25-17.57-9.75-.09-17.68,7.62-17.76,17.26Zm-151.18-66.04c12.34,0,24.68,0,37.03,0,.61,0,1.23,.05,1.84-.03,1.92-.26,3.39-1.96,3.23-3.83-.17-2.01-1.32-3.21-3.34-3.47-.68-.09-1.38-.04-2.07-.04-24.22,0-48.45,0-72.67,0-.84,0-1.7-.05-2.53,.06-2.4,.34-3.78,2.8-2.84,5,.82,1.91,2.39,2.33,4.32,2.33,12.34-.04,24.68-.02,37.03-.01Zm-9.2,16.57c7.82,0,15.63,0,23.45,0,1.99,0,3.99,.07,5.98-.04,2.01-.11,3.45-1.69,3.48-3.59,.03-1.91-1.36-3.46-3.36-3.71-.53-.07-1.07-.03-1.61-.03-18.47,0-36.94,0-55.41,0-.61,0-1.24-.04-1.84,.06-1.81,.3-2.87,1.44-3.08,3.22-.2,1.69,.53,3.04,2.13,3.68,.82,.33,1.78,.4,2.68,.4,9.2,.03,18.39,.02,27.59,.01Zm86.31,20.26c.11,7.28,5.88,12.96,13.07,12.87,7.03-.08,12.8-6,12.71-13.04-.09-7.17-5.97-12.83-13.23-12.72-6.97,.1-12.66,5.94-12.55,12.89Zm-107.63-104.03c-5.1-.04-9.22,4.02-9.26,9.12-.04,5.1,4.03,9.25,9.11,9.28,5.08,.03,9.25-4.07,9.29-9.13,.04-5.08-4.05-9.23-9.14-9.27Zm17.88,8.99c-.09,5.11,3.93,9.32,8.98,9.42,5.08,.1,9.33-3.96,9.42-9,.09-5.11-3.92-9.31-9-9.41-5.12-.1-9.32,3.91-9.4,8.98Zm72.68,.37c.05-5.15-3.94-9.29-9.02-9.36-5.12-.07-9.29,3.96-9.37,9.03-.08,5.1,3.97,9.3,9.04,9.38,5.11,.07,9.3-3.98,9.35-9.05Zm-36.27-9.35c-5.11-.03-9.25,4.04-9.26,9.12-.01,5.11,4.08,9.27,9.13,9.28,5.09,.01,9.22-4.06,9.27-9.14,.04-5.09-4.03-9.22-9.13-9.25Z"/>
    <path class="cls-1" d="M427.89,219.56c0,24.32,0,48.63,0,72.95,0,7.04-4.08,11.13-11.16,11.13-32.59,0-65.18,0-97.76-.02-2.64,0-4.28-1.44-4.3-3.73-.02-2.3,1.63-3.64,4.58-3.64,32.14,0,64.28,0,96.42,0,4.37,0,4.84-.46,4.84-4.89,0-48.17,0-96.34,0-144.51,0-3.61-.71-4.34-4.25-4.34-42.72,0-85.45,0-128.17,0-4.22,0-4.72,.51-4.73,4.77,0,2.61,.03,5.22-.01,7.82-.04,2.39-1.46,3.91-3.57,3.96-2.23,.05-3.73-1.47-3.78-3.99-.06-3.37-.07-6.75,0-10.12,.13-5.47,4.4-9.72,9.9-9.76,8.97-.07,17.95-.02,26.92-.02,34.59,0,69.19,0,103.78,0,7.23,0,11.28,4.03,11.28,11.21,0,24.39,0,48.78,0,73.18Z"/>
    <path class="cls-1" d="M218.99,168.32c23.93,0,47.86,0,71.79,0,6.92,0,10.98,4.07,10.98,11,0,32.75,0,65.5,0,98.25,0,.54,.04,1.08-.03,1.61-.27,1.95-1.94,3.41-3.83,3.23-1.99-.19-3.22-1.31-3.46-3.36-.08-.68-.03-1.38-.03-2.07,0-32.29,0-64.58,0-96.87,0-3.78-.65-4.46-4.36-4.46-47.4,0-94.8,0-142.2,0-3.78,0-4.39,.63-4.38,4.41,0,41.8,0,83.6,0,125.4,0,4.11,.47,4.57,4.65,4.57,2.07,0,4.14-.05,6.21,.02,2.32,.07,3.85,1.61,3.83,3.71-.02,2.08-1.58,3.59-3.92,3.63-2.84,.06-5.68,.08-8.51,0-5.33-.16-9.55-4.44-9.61-9.8-.07-6.14-.02-12.27-.02-18.41,0-36.66,0-73.32,0-109.99,0-6.76,4.08-10.88,10.87-10.88,24.01-.01,48.01,0,72.02,0Z"/>
    <path class="cls-1" d="M166.45,378.07c0-23.4,0-46.79,0-70.19,0-7.77,3.82-11.63,11.53-11.63,31.98,0,63.97-.01,95.95,.04,1.22,0,2.87,.25,3.54,1.04,.78,.92,1.13,2.65,.91,3.89-.32,1.78-2,2.39-3.74,2.4-7.36,.02-14.72,0-22.08,0-25,0-50,0-75,0-2.9,0-3.73,.81-3.73,3.64,0,47.25,0,94.5,0,141.75,0,2.8,.91,3.7,3.72,3.7,43.26,0,86.52,0,129.79,0,2.69,0,3.61-.92,3.64-3.56,.03-1.84-.04-3.68,.02-5.52,.07-2.36,1.54-3.83,3.7-3.81,2.03,.03,3.53,1.48,3.61,3.68,.08,2.45,.14,4.92-.02,7.36-.32,4.9-4.42,8.86-9.32,9.16-.76,.05-1.53,.03-2.3,.03-42.88,0-85.76,0-128.64,0-7.67,0-11.57-3.91-11.57-11.6,0-23.47,0-46.94,0-70.42Z"/>
    <path class="cls-1" d="M376.67,429.72c-23.7,0-47.4,0-71.1,0-7.05,0-11.15-4.06-11.15-11.08,0-31.14,0-62.28,0-93.42,0-.61-.06-1.24,.04-1.84,.32-1.89,1.45-3.05,3.38-3.16,2.04-.11,3.36,.97,3.83,2.93,.19,.8,.09,1.68,.09,2.52,0,30.68,0,61.36,0,92.04,0,4.09,.54,4.64,4.62,4.64,47.02,0,94.03,0,141.05,0,3.75,0,4.35-.61,4.35-4.44,0-42.88,0-85.75,0-128.63q0-3.14-3.25-3.14c-2.22,0-4.45,.05-6.67-.02-2.33-.07-3.86-1.59-3.85-3.69,0-2.15,1.48-3.61,3.86-3.65,2.99-.06,5.98-.08,8.97,0,4.51,.12,8.11,3.74,8.31,8.24,.02,.46,0,.92,0,1.38,0,43.26,0,86.52,0,129.78,0,7.67-3.92,11.55-11.62,11.55-23.62,0-47.25,0-70.87,0Z"/>
    <path class="cls-1" d="M411.53,328.3c5.91,5.63,10.84,10.68,16.15,15.3,6.87,5.99,9.78,13.31,9.49,22.38-.33,10.42-.08,20.86-.08,31.29,0,6.66-3.74,10.35-10.4,10.35-34.44,0-68.87,0-103.31-.01-4.95,0-8.73-2.2-11.02-6.59-2.16-4.14-1.88-8.29,.6-12.23,.6-.96,1.43-1.8,2.23-2.62,11.9-12.07,23.81-24.12,35.72-36.17,.26-.27,.57-.49,1.02-.87,6.72,6.41,13.41,12.79,20.42,19.48,13.04-13.42,26.01-26.75,39.18-40.3Zm-11.98,43.42c-2.72-3.92-5.38-7.75-8.1-11.67-.56,.47-.98,.78-1.35,1.14-5.99,5.93-11.98,11.87-17.96,17.82-3.26,3.24-6.49,6.52-9.8,9.72-2.38,2.3-5.7,1.72-6.32-1.25-.26-1.22,.41-3.04,1.28-4.02,3-3.36,6.29-6.47,9.61-9.83-1.67-1.59-3.31-3.14-5.07-4.81-1.73,1.94-3.24,3.77-4.92,5.43-.63,.63-1.73,1.36-2.47,1.23-4.36-.8-6.68,1.23-7.88,5.15-.2,.65-.69,1.21-.91,1.85-.44,1.32-1.23,1.51-2.48,1.1-3.27-1.06-6.58-2.02-9.86-3.05-1.19-.37-2.08-.23-3.03,.78-3.26,3.46-6.64,6.8-9.99,10.17-1.63,1.64-2.57,3.45-1.55,5.78,.99,2.27,2.83,2.98,5.2,2.98,34.28-.02,68.55-.02,102.83,.01,2.19,0,2.98-.85,2.97-3.02-.06-11.5-.02-23-.04-34.51,0-1.12-.21-2.24-.32-3.34-.39,0-.55-.04-.68,0-.29,.1-.59,.2-.84,.37-5.6,3.97-11.88,4.92-18.54,4.25-.15-.02-.33-.05-.46,0-.87,.35-1.91,.54-2.57,1.13-2.27,2.05-4.4,4.25-6.75,6.55Zm-5.19-14c1.79,2.58,3.73,5.37,5.74,8.27,.48-.42,.82-.63,1.02-.92,2.79-4.06,6.61-5.55,11.43-4.71,5.96,1.04,10.53-2.22,15.67-5.07-4.67-6.09-10.6-10.66-15.83-16.03-6.07,6.21-11.94,12.22-18.04,18.46Zm-41.8,2.24c-6.09,5.84-11.92,11.44-17.92,17.2,2.9,.85,5.58,1.63,8.32,2.42,.68-1.34,1.42-2.44,1.81-3.66,1.07-3.31,3.09-4.77,6.65-4.14,1.02,.18,2.46,0,3.18-.62,1.65-1.41,2.97-3.2,4.52-4.95-2.43-2.32-4.69-4.46-6.57-6.25Z"/>
    <path class="cls-1" d="M240.34,385.7c0-1.23,0-2.04,0-2.86,0-15.11,0-30.22,.03-45.33,0-1.14-.01-2.35,.35-3.41,.75-2.23,2.49-3.49,4.81-3.72,2.44-.24,4.41,.77,5.52,2.96,1.07,2.11,1.91,4.35,2.8,6.54,1.46,3.59,4.1,5.53,7.93,6.13,5.76,.9,10.08,3.96,12.56,9.28,1.23,2.63,2.21,5.38,3.19,8.12,.76,2.11-.08,3.98-1.95,4.77-1.94,.82-3.95,0-4.87-2.14-.93-2.18-1.73-4.42-2.59-6.63-1.37-3.52-3.93-5.57-7.67-6.12-5.23-.78-9.28-3.41-12.68-7.84,0,.84,0,1.67,0,2.51,0,18.33,.03,36.66,0,54.99-.02,12.9-7.78,23.21-19.83,25.99-10.25,2.37-19.11-.53-25.8-8.61-6.89-8.31-8.04-17.83-3.38-27.54,4.52-9.44,12.4-14.34,22.94-14.6,6.57-.17,12.31,2.07,17.26,6.39,.33,.29,.68,.54,1.39,1.1Zm-18.37-.14c-10.17-.02-18.36,8.13-18.48,18.39-.12,9.88,8.29,18.34,18.27,18.39,10.17,.04,18.55-8.2,18.6-18.29,.05-10.13-8.23-18.46-18.39-18.49Z"/>
    <path class="cls-1" d="M393.75,219.41c-5.66,3.28-10.94,6.36-16.23,9.41-12.01,6.94-24.12,13.7-35.98,20.87-6.25,3.78-12.42-.48-12.26-7.08,.37-15.55,.12-31.12,.12-46.69,0-7.17,5.68-10.47,11.88-6.9,16.66,9.61,33.3,19.23,49.95,28.84,.72,.42,1.42,.86,2.52,1.53Zm-56.9,18.57c7.87-7.09,15.34-13.82,22.98-20.7-7.73-4.48-15.23-8.83-22.98-13.33v34.03Zm.21-42.84c-.98,3.26,.17,4.88,2.78,6.35,10.94,6.14,21.73,12.53,32.58,18.84,2.9,1.69,3.59,1.57,6.23-1.18-13.85-7.99-27.66-15.97-41.6-24.01Zm34.15,28.78c-2.49-1.46-4.57-2.59-6.56-3.88-1.12-.73-1.83-.51-2.77,.34-8.11,7.37-16.26,14.68-24.39,22.02-.27,.24-.43,.62-.64,.93,.09,.09,.19,.18,.28,.28,11.23-6.49,22.47-12.98,34.07-19.69Z"/>
    <path class="cls-1" d="M219.27,229.98c-15.87,0-31.74,0-47.61,0-.69,0-1.39,.04-2.07-.06-1.84-.27-3.22-1.88-3.12-3.68,.11-2.02,1.21-3.27,3.22-3.58,.83-.13,1.68-.06,2.53-.06,31.59,0,63.18,0,94.76,0,.69,0,1.39-.07,2.07,.04,2,.33,3.19,1.56,3.23,3.58,.04,2.02-1.13,3.28-3.1,3.69-.66,.14-1.37,.06-2.06,.06-15.95,0-31.89,0-47.84,0Z"/>
    <path class="cls-1" d="M219.37,239.18c15.79,0,31.58,0,47.37,0,.77,0,1.54-.06,2.3,.04,1.98,.26,3.42,1.91,3.26,3.8-.17,2.01-1.34,3.19-3.34,3.5-.45,.07-.92,.03-1.38,.03-32.12,0-64.24,0-96.36,.01-.31,0-.61,0-.92,0-2.3-.13-3.86-1.65-3.84-3.73,.02-2.1,1.56-3.6,3.92-3.62,8.59-.04,17.17-.02,25.76-.02,7.74,0,15.48,0,23.23,0Z"/>
    <path class="cls-1" d="M359.28,329.16c.08-9.65,8.01-17.36,17.76-17.26,9.52,.09,17.31,8.02,17.25,17.57-.06,9.63-8.01,17.47-17.67,17.41-9.62-.06-17.43-8.03-17.35-17.72Zm17.58-9.89c-5.56-.03-10.13,4.44-10.2,9.96-.07,5.61,4.54,10.27,10.15,10.26,5.49,0,10.09-4.61,10.09-10.1,0-5.54-4.52-10.1-10.04-10.13Z"/>
    <path class="cls-1" d="M208.1,263.12c-12.34,0-24.68-.02-37.03,.02-1.93,0-3.5-.42-4.32-2.33-.94-2.2,.44-4.66,2.84-5,.83-.12,1.68-.06,2.53-.06,24.22,0,48.45,0,72.67,0,.69,0,1.39-.05,2.07,.04,2.02,.26,3.17,1.46,3.34,3.47,.16,1.87-1.31,3.56-3.23,3.83-.6,.08-1.22,.03-1.84,.03-12.34,0-24.68,0-37.03,0Z"/>
    <path class="cls-1" d="M198.91,279.69c-9.2,0-18.39,.01-27.59-.01-.9,0-1.86-.08-2.68-.4-1.6-.64-2.33-1.99-2.13-3.68,.21-1.78,1.27-2.92,3.08-3.22,.6-.1,1.22-.06,1.84-.06,18.47,0,36.94,0,55.41,0,.54,0,1.08-.03,1.61,.03,2.01,.25,3.39,1.8,3.36,3.71-.03,1.9-1.46,3.48-3.48,3.59-1.99,.11-3.98,.04-5.98,.04-7.82,0-15.63,0-23.45,0Z"/>
    <path class="cls-1" d="M285.21,299.95c-.1-6.95,5.58-12.79,12.55-12.89,7.26-.11,13.14,5.55,13.23,12.72,.09,7.04-5.68,12.96-12.71,13.04-7.19,.09-12.96-5.59-13.07-12.87Zm7.35,.2c.05,2.9,2.56,5.3,5.54,5.29,2.98,0,5.57-2.63,5.53-5.6-.04-2.97-2.67-5.46-5.72-5.41-3.03,.05-5.41,2.59-5.36,5.72Z"/>
    <path class="cls-1" d="M177.58,195.92c5.09,.04,9.18,4.19,9.14,9.27-.04,5.06-4.21,9.17-9.29,9.13-5.08-.03-9.15-4.18-9.11-9.28,.04-5.1,4.16-9.16,9.26-9.12Zm-.08,11.81c.86-1.2,1.81-1.96,1.7-2.5-.15-.72-1.03-1.61-1.76-1.79-.43-.1-1.62,1.02-1.63,1.61-.02,.71,.85,1.44,1.69,2.68Z"/>
    <path class="cls-1" d="M195.47,204.91c.09-5.08,4.28-9.09,9.4-8.98,5.08,.1,9.09,4.29,9,9.41-.09,5.04-4.34,9.1-9.42,9-5.06-.1-9.07-4.31-8.98-9.42Zm11.81,.3c-1.15-.89-1.86-1.85-2.42-1.77-.73,.1-1.68,.94-1.87,1.64-.12,.45,.93,1.69,1.52,1.73,.71,.05,1.47-.8,2.77-1.6Z"/>
    <path class="cls-1" d="M268.15,205.28c-.05,5.07-4.24,9.12-9.35,9.05-5.07-.07-9.12-4.27-9.04-9.38,.08-5.08,4.25-9.1,9.37-9.03,5.08,.07,9.07,4.21,9.02,9.36Zm-9.19-2.7c-.83,1.12-1.79,1.86-1.69,2.41,.14,.73,1.09,1.3,1.69,1.94,.6-.64,1.56-1.21,1.7-1.94,.1-.54-.86-1.28-1.7-2.4Z"/>
    <path class="cls-1" d="M231.88,195.93c5.1,.03,9.17,4.16,9.13,9.25-.04,5.08-4.17,9.15-9.27,9.14-5.05-.01-9.14-4.16-9.13-9.28,.01-5.08,4.15-9.15,9.26-9.12Zm.08,6.6c-.92,1.14-1.91,1.84-1.83,2.39,.11,.74,.94,1.66,1.66,1.89,.41,.13,1.67-.92,1.72-1.51,.05-.71-.77-1.48-1.54-2.77Z"/>
    <path class="cls-2" d="M399.55,371.72c2.35-2.3,4.48-4.5,6.75-6.55,.66-.6,1.7-.78,2.57-1.13,.13-.05,.31-.02,.46,0,6.66,.67,12.94-.29,18.54-4.25,.25-.17,.55-.27,.84-.37,.13-.05,.29,0,.68,0,.11,1.1,.32,2.22,.32,3.34,.02,11.5-.02,23,.04,34.51,.01,2.17-.78,3.02-2.97,3.02-34.28-.04-68.55-.03-102.83-.01-2.37,0-4.21-.71-5.2-2.98-1.02-2.33-.08-4.14,1.55-5.78,3.35-3.37,6.73-6.71,9.99-10.17,.95-1.01,1.84-1.15,3.03-.78,3.28,1.02,6.59,1.99,9.86,3.05,1.24,.4,2.04,.22,2.48-1.1,.21-.65,.71-1.2,.91-1.85,1.2-3.92,3.51-5.95,7.88-5.15,.74,.14,1.84-.6,2.47-1.23,1.68-1.67,3.19-3.5,4.92-5.43,1.76,1.67,3.4,3.22,5.07,4.81-3.33,3.36-6.61,6.47-9.61,9.83-.88,.98-1.54,2.8-1.28,4.02,.62,2.97,3.94,3.56,6.32,1.25,3.31-3.2,6.53-6.48,9.8-9.72,5.98-5.94,11.97-11.88,17.96-17.82,.37-.37,.79-.68,1.35-1.14,2.72,3.92,5.38,7.75,8.1,11.67Z"/>
    <path class="cls-2" d="M394.36,357.72c6.1-6.24,11.97-12.25,18.04-18.46,5.23,5.37,11.16,9.94,15.83,16.03-5.14,2.85-9.71,6.11-15.67,5.07-4.81-.84-8.64,.65-11.43,4.71-.2,.3-.55,.5-1.02,.92-2.01-2.9-3.95-5.69-5.74-8.27Z"/>
    <path class="cls-2" d="M352.56,359.96c1.88,1.79,4.13,3.94,6.57,6.25-1.55,1.74-2.87,3.53-4.52,4.95-.73,.62-2.17,.8-3.18,.62-3.56-.63-5.58,.84-6.65,4.14-.39,1.22-1.13,2.32-1.81,3.66-2.74-.8-5.42-1.58-8.32-2.42,6-5.76,11.83-11.36,17.92-17.2Z"/>
    <path class="cls-2" d="M221.97,385.55c10.15,.02,18.44,8.36,18.39,18.49-.05,10.1-8.43,18.34-18.6,18.29-9.98-.04-18.39-8.51-18.27-18.39,.12-10.26,8.32-18.42,18.48-18.39Zm-14.62,18.5c.03,8.06,6.67,14.62,14.7,14.52,8.01-.1,14.44-6.58,14.45-14.54,0-8.14-6.46-14.73-14.48-14.76-8.18-.03-14.71,6.55-14.67,14.78Z"/>
    <path class="cls-2" d="M336.85,237.98v-34.03c7.75,4.5,15.26,8.85,22.98,13.33-7.64,6.88-15.11,13.61-22.98,20.7Z"/>
    <path class="cls-2" d="M337.06,195.14c13.93,8.04,27.75,16.01,41.6,24.01-2.64,2.75-3.33,2.86-6.23,1.18-10.85-6.3-21.64-12.69-32.58-18.84-2.61-1.47-3.76-3.08-2.78-6.35Z"/>
    <path class="cls-2" d="M371.21,223.91c-11.6,6.71-22.84,13.2-34.07,19.69-.09-.09-.19-.18-.28-.28,.21-.31,.37-.69,.64-.93,8.13-7.34,16.28-14.65,24.39-22.02,.94-.85,1.65-1.07,2.77-.34,1.99,1.29,4.07,2.42,6.56,3.88Z"/>
    <path class="cls-2" d="M376.86,319.28c5.52,.03,10.04,4.59,10.04,10.13,0,5.49-4.6,10.09-10.09,10.1-5.61,0-10.22-4.65-10.15-10.26,.07-5.53,4.64-9.99,10.2-9.96Z"/>
    <path class="cls-2" d="M292.57,300.16c-.05-3.13,2.33-5.67,5.36-5.72,3.05-.05,5.69,2.44,5.72,5.41,.04,2.97-2.56,5.59-5.53,5.6-2.99,0-5.5-2.39-5.54-5.29Z"/>
    <path class="cls-2" d="M177.5,207.73c-.84-1.25-1.71-1.98-1.69-2.68,.02-.59,1.21-1.71,1.63-1.61,.73,.18,1.61,1.06,1.76,1.79,.11,.54-.84,1.3-1.7,2.5Z"/>
    <path class="cls-2" d="M207.27,205.21c-1.3,.8-2.06,1.65-2.77,1.6-.58-.04-1.64-1.28-1.52-1.73,.19-.7,1.14-1.54,1.87-1.64,.56-.08,1.27,.88,2.42,1.77Z"/>
    <path class="cls-2" d="M258.96,202.58c.84,1.12,1.8,1.86,1.7,2.4-.14,.73-1.09,1.3-1.7,1.94-.6-.64-1.55-1.21-1.69-1.94-.1-.54,.85-1.28,1.69-2.41Z"/>
    <path class="cls-2" d="M231.96,202.53c.77,1.29,1.6,2.06,1.54,2.77-.05,.59-1.31,1.64-1.72,1.51-.72-.23-1.55-1.16-1.66-1.89-.08-.54,.91-1.25,1.83-2.39Z"/>
    <path class="cls-1" d="M207.35,404.05c-.03-8.23,6.49-14.81,14.67-14.78,8.02,.03,14.48,6.61,14.48,14.76,0,7.96-6.44,14.44-14.45,14.54-8.03,.1-14.66-6.45-14.7-14.52Zm25.48-.11c-.03-6.06-4.93-10.96-10.96-10.95-6,.01-10.91,5.01-10.84,11.04,.07,5.96,4.89,10.79,10.83,10.83,6,.04,11-4.94,10.97-10.93Z"/>
    <path class="cls-2" d="M232.83,403.94c.03,5.98-4.97,10.97-10.97,10.93-5.94-.04-10.76-4.86-10.83-10.83-.07-6.03,4.84-11.03,10.84-11.04,6.03-.01,10.92,4.88,10.96,10.95Zm-10.88,6.19c3.33,.04,6.15-2.75,6.19-6.12,.04-3.32-2.72-6.24-6.02-6.35-3.42-.11-6.33,2.7-6.41,6.17-.07,3.47,2.69,6.25,6.23,6.3Z"/>
    <path class="cls-1" d="M221.94,410.13c-3.54-.04-6.3-2.83-6.23-6.3,.07-3.47,2.99-6.28,6.41-6.17,3.29,.11,6.06,3.03,6.02,6.35-.04,3.37-2.87,6.16-6.19,6.12Zm2.86-5.76c0-.33-.02-.67-.03-1-.95-.65-1.85-1.74-2.86-1.86-1.51-.18-2.57,.92-2.47,2.57,.09,1.51,1.13,2.53,2.56,2.23,1.02-.22,1.87-1.26,2.79-1.94Z"/>
    <path class="cls-2" d="M224.8,404.37c-.93,.68-1.77,1.73-2.79,1.94-1.43,.3-2.46-.72-2.56-2.23-.1-1.65,.95-2.75,2.47-2.57,1.01,.12,1.91,1.21,2.86,1.86,0,.33,.02,.67,.03,1Z"/>
  </g>
  <rect class="cls-3" x="113.54" y="113.54" width="368.2" height="368.2"/>
</svg>