<?xml version="1.0" encoding="UTF-8"?>
<svg id="Layer_1" data-name="Layer 1" xmlns="http://www.w3.org/2000/svg" viewBox="0 0 595.28 595.28">
  <defs>
    <style>
      .cls-1 {
        fill: #fff;
      }

      .cls-2 {
        fill: #31479d;
      }
    </style>
  </defs>
  <rect class="cls-2" y="2.27" width="595.28" height="595.28"/>
  <g>
    <path class="cls-2" d="M187.12,481.92H105.53V97.92H489.53v250.76c-.52-1.08-1.05-2.16-1.55-3.26-3.24-7.12-11.24-11.7-18.52-10.61-8.1,1.21-14.47,7.01-15.79,14.36-1.52,8.49,1.94,15.76,9.81,19.93,4.12,2.18,1.64,5.7,1.93,8.58,.05,.47-2.82,1.76-4.35,1.78-13.47,.14-26.94,.09-40.42,.07-1.19,0-2.37-.13-3.74-.22,0-10.73,.04-21.07-.01-31.41-.05-11.12-8.25-19.26-19.42-19.37-3.06-.03-6.13,0-9.49,0,0-4.02,.12-7.5-.03-10.97-.13-3.1,1.14-4.13,4.21-4.1,12.6,.12,25.2,.1,37.8,0,2.14-.02,3.23,.61,4.24,2.61,3.56,7.08,11.35,11.08,18.53,9.88,8.91-1.49,15.38-8.65,15.74-17.4,.33-8.04-5.28-15.81-13.04-18.07-8.55-2.48-17.16,1.23-21.33,9.46-.96,1.89-2.03,2.38-3.99,2.36-12.85-.07-25.7-.05-38.55-.04-9.71,0-14.94,5.28-14.96,15.05,0,3.68,0,7.37,0,10.98h-48.71c0-6.05-.18-11.89,.11-17.71,.08-1.69,1.16-3.63,2.36-4.92,4.73-5.11,9.98-9.77,14.46-15.09,2.15-2.55,4.27-3.67,7.42-4.01,41.94-4.59,70.72-45.88,59.31-86.53-3.93-14.02-10.43-27.43-16.77-40.63-32.06-66.81-121.07-81.61-173.19-29.01-3.59,3.62-3.87,6.69-.88,9.69,2.39,2.4,5.6,2.09,8.84-1.15,15.5-15.51,34.1-24.88,55.79-27.77,7.09-.94,14.42-2.4,21.46,.41,18.86,7.51,34.63,19,46.32,35.87,7.99,11.52,12.1,24.83,17.96,37.34,5.94,12.69,8.81,25.9,7.81,39.92-1.25,17.49-7.24,33.01-19.15,46.06-1.02,1.12-2.2,2.09-3.31,3.13-.18-1.39,.22-2.26,.58-3.15,4.47-10.94,6.97-22.29,6.99-34.14,0-3.92-2.32-6.83-5.37-6.97-3.42-.15-5.98,2.47-6.29,6.46-.16,1.99-.24,3.99-.45,5.97-3.24,31.26-19.4,53.15-47.96,66.01-3.8,1.71-7.71,1.78-11.6,.14-21.09-8.88-35.67-24-43.91-45.37-5.4-14-4.94-28.59-4.86-43.17,.01-2.46,1.62-2.69,3.56-2.68,7.24,.02,14.47,.07,21.71-.07,22.1-.43,38.22-10.47,48.02-30.34,.98-1.98,2.02-2.72,4.21-2.68,7.61,.13,15.22,.03,22.83,.06,5.79,.02,8.35,2.57,8.43,8.48,.08,5.36-.03,10.73,.04,16.09,.06,4.23,2.66,7.01,6.25,6.86,3.03-.12,5.35-3.03,5.39-6.95,.05-4.99,.02-9.98,.02-14.97,0-13.86-7.6-21.44-21.51-21.5-10.73-.05-21.47,.24-32.18-.28-10.26-.5-17.96-5.38-21.78-15.4-1.76-4.61-4.61-6.3-8.08-4.93-3.63,1.43-4.73,4.46-3.15,9.02,4.08,11.8,12.59,18.79,24.32,22.24,1.12,.33,2.23,.7,3.67,1.16-6.92,11.95-16.57,19.41-29.84,20.77-10.01,1.03-20.17,.66-30.26,.86-7.51,.15-13.19,5.67-13.38,13.23-.1,4.24,.07,8.48-.04,12.72-.37,14.26,2.01,27.99,7.79,41.08,.21,.48,.16,1.07,.23,1.67-.68,.04-1.07,.15-1.41,.07-35.69-8.74-54.53-46.51-39.93-80.24,4.89-11.31,10.17-22.45,15.17-33.71,.63-1.41,1.06-3.1,.92-4.61-.24-2.71-2.25-4.07-4.79-4.49-2.96-.48-5.12,.84-6.34,3.52-5.52,12.11-11.08,24.21-16.46,36.39-4.84,10.98-6.37,22.63-4.8,34.39,4.59,34.25,29.7,58.21,64.05,61.77,1.18,.12,2.5,.9,3.35,1.76,5.6,5.65,11.11,11.39,16.6,17.15,.72,.75,1.61,1.78,1.63,2.69,.14,6.44,.08,12.89,.08,19.69-3.14,0-5.86,0-8.57,0-5.81,0-8.46,1.7-8.55,5.48-.1,3.94,2.61,5.77,8.59,5.77,45.28,0,90.57,0,135.85,.01,7.92,0,10.46,2.57,10.46,10.58,0,32.06,0,64.12,0,96.18v4.3H190.12v-3.91c0-32.31,0-64.62,0-96.93,0-7.51,2.66-10.22,10.04-10.23,9.61-.01,19.21,.02,28.82-.02,4.37-.02,6.83-2.14,6.78-5.69-.05-3.51-2.54-5.51-6.97-5.55-3.08-.03-6.16,0-9.57,0,0-4.27,.03-8.1,0-11.94-.07-8.77-5.54-14.28-14.21-14.3-12.85-.03-25.7-.06-38.55,.04-2.5,.02-3.84-.61-5.09-3.04-4.21-8.18-13.9-11.58-22.38-8.27-8.44,3.29-13.13,12.11-11.1,20.84,1.79,7.65,7.72,13.05,15.56,14.15,7.09,1,14.49-3.08,18.29-9.87,.61-1.09,1.97-2.51,2.99-2.52,13.35-.17,26.7-.17,40.04,0,1.01,.01,2.8,1.53,2.87,2.45,.32,4.05,.14,8.14,.14,12.46-3.73,0-6.97-.07-10.2,.01-10.47,.25-18.57,8.49-18.67,18.98-.06,5.99-.01,11.98-.01,17.96,0,4.58,0,9.15,0,14.03-15.76,0-31.08,.02-46.39-.05-.72,0-2.02-.65-2.07-1.09-.25-2.46-.48-5-.1-7.42,.14-.91,1.89-1.66,3.01-2.31,7.01-4.08,10.56-12.31,8.66-20.22-1.83-7.62-9.07-13.45-17.15-13.78-7.69-.32-15.26,5.01-17.73,12.49-2.54,7.68,.2,16.59,7.19,20.62,3.56,2.05,4.57,4.24,4.49,8.14-.21,10.04,5.11,15.17,15.16,15.18,13.6,.02,27.2,0,40.79,.01,1.31,0,2.62,.11,3.9,.17v15.1c-8.82,0-17.41-.02-25.99,.01-1.99,0-4.03-.09-5.96,.29-5.33,1.04-11.22,5.86-10.54,14.64,.27,3.43-.06,6.01-3.9,8.02-7.24,3.8-10.2,12.41-7.95,20.29,2.25,7.87,9.62,13.16,18.03,12.95,7.96-.2,15.03-5.77,16.96-13.38,2.06-8.09-1.44-16.3-8.68-20.45-1.52-.87-3.67-1.11-3.26-3.8,.3-1.95,.06-3.99,.38-5.93,.09-.53,1.34-1.22,2.07-1.23,9.57-.08,19.14-.05,29.08-.05,0,9.6-.03,18.79,.02,27.99,.02,3.35,.42,6.53-3.6,8.4-1.49,.7-2.52,3.07-3.11,4.88-1.66,5.14,.09,9.78,2.76,14.17,2.81,4.63,7.45,6.73,12.14,8.75Zm135.25-44.19c1.82-.91,3.6-1.38,4.79-2.48,3.66-3.38,7.21-6.91,10.58-10.57,2.78-3.02,2.66-6.16,.09-9.46-2.32-2.99-1.66-4.71,2.05-5.34,4.75-.8,6.75-2.97,6.86-7.77,.1-4.24,.08-8.48,.01-12.72-.08-5.37-1.81-7.34-7.11-8.27-3.2-.56-4.06-2.59-2.13-5.01,3.14-3.94,3.1-6.95-.36-10.56-3.1-3.25-6.27-6.43-9.54-9.51-3.19-3.01-6.54-2.98-10.11-.46-.93,.66-2.56,1.17-3.46,.79-.89-.37-1.66-1.9-1.82-3.02-.62-4.28-3.03-6.74-7.41-6.85-4.61-.12-9.23-.12-13.84,0-4.35,.12-6.76,2.61-7.38,6.9-.16,1.12-.94,2.66-1.83,3.01-.92,.36-2.53-.2-3.47-.87-3.41-2.43-6.85-2.56-9.82,.23-3.54,3.33-7,6.77-10.3,10.33-2.83,3.05-2.82,6.21-.36,9.47,2.44,3.22,1.82,4.87-2.07,5.5-4.5,.73-6.57,2.97-6.69,7.53-.11,4.24-.08,8.48-.03,12.72,.06,5.62,1.66,7.46,7.26,8.51,3.16,.6,3.89,2.59,1.87,5.11-2.99,3.73-2.97,6.81,.32,10.28,3.09,3.26,6.28,6.43,9.53,9.52,3.38,3.21,6.54,3.21,10.39,.51,.92-.64,2.51-.99,3.51-.65,.79,.27,1.5,1.75,1.64,2.77,.63,4.56,3.01,6.96,7.58,7.06,4.49,.1,8.98,.1,13.47,0,4.57-.1,6.94-2.52,7.59-7.09,.14-1,.89-2.45,1.67-2.7,1.01-.33,2.41,.18,3.52,.62,1.67,.66,3.23,1.58,4.98,2.46Zm-24.62-148.46c5.18-1.62,10.21-2.86,14.95-4.78,3.35-1.35,4.31-4.86,2.91-7.76-1.39-2.88-4.55-3.94-7.98-2.28-6.61,3.2-13.08,3.17-19.69,.01-3.62-1.73-6.67-.6-8.11,2.6-1.36,3.04-.38,6.06,3.29,7.54,4.63,1.88,9.54,3.08,14.63,4.66Zm41.52-79.38c-.55-.68-1.44-2.67-2.97-3.51-8.01-4.43-16.19-4.35-24.17,.13-2.71,1.52-3.53,4.1-2.25,7.07,1.23,2.86,4.21,4.34,7.09,2.97,5.12-2.44,9.9-2.25,15.03,.06,3.6,1.62,7.39-1.51,7.27-6.72Zm-41.28,54.75c2.86-.93,5.66-1.55,8.19-2.75,3.04-1.43,3.76-4.21,2.7-7.28-.93-2.68-4.21-4.23-7.13-3.02-2.77,1.14-5.13,.97-7.85-.05-2.94-1.11-6.15,.52-7.02,3.26-.98,3.1-.18,5.8,2.94,7.15,2.58,1.12,5.35,1.79,8.16,2.7Zm-20.93-29.55s0,0-.01,0c0-1.87,.11-3.75-.02-5.6-.23-3.2-2.05-4.99-5.25-5.2-3.26-.21-5.49,1.58-5.84,4.58-.45,3.93-.38,7.97-.04,11.93,.26,3.11,3.1,5.03,6.17,4.65,3.17-.39,4.84-2.32,4.99-5.49,.08-1.62,.01-3.24,.01-4.86Zm41.71-.3c0,1.74-.08,3.49,.02,5.23,.18,3.17,1.89,5.08,5.06,5.43,3.06,.34,5.87-1.64,6.12-4.73,.31-3.84,.3-7.73,.02-11.57-.22-3.13-2.91-5.11-6-4.86-3.2,.26-4.97,2.09-5.19,5.27-.12,1.74-.02,3.49-.03,5.23Z"/>
    <path class="cls-1" d="M187.12,481.92c-4.69-2.02-9.32-4.12-12.14-8.75-2.67-4.39-4.42-9.03-2.76-14.17,.59-1.82,1.62-4.19,3.11-4.88,4.02-1.87,3.62-5.06,3.6-8.4-.05-9.2-.02-18.4-.02-27.99-9.94,0-19.51-.03-29.08,.05-.72,0-1.98,.7-2.07,1.23-.32,1.94-.09,3.98-.38,5.93-.41,2.69,1.74,2.93,3.26,3.8,7.24,4.15,10.74,12.36,8.68,20.45-1.93,7.6-8.99,13.18-16.96,13.38-8.41,.21-15.78-5.08-18.03-12.95-2.25-7.87,.7-16.49,7.95-20.29,3.84-2.01,4.16-4.59,3.9-8.02-.68-8.78,5.21-13.6,10.54-14.64,1.93-.38,3.97-.28,5.96-.29,8.59-.03,17.17-.01,25.99-.01v-15.1c-1.28-.06-2.59-.17-3.9-.17-13.6-.01-27.2,0-40.79-.01-10.05-.02-15.38-5.14-15.16-15.18,.08-3.9-.93-6.08-4.49-8.14-6.99-4.04-9.73-12.94-7.19-20.62,2.47-7.47,10.04-12.8,17.73-12.49,8.07,.34,15.32,6.16,17.15,13.78,1.9,7.9-1.65,16.13-8.66,20.22-1.12,.65-2.86,1.4-3.01,2.31-.38,2.42-.15,4.96,.1,7.42,.05,.44,1.34,1.09,2.07,1.09,15.32,.06,30.63,.05,46.39,.05,0-4.87,0-9.45,0-14.03,0-5.99-.04-11.98,.01-17.96,.1-10.49,8.2-18.72,18.67-18.98,3.23-.08,6.47-.01,10.2-.01,0-4.32,.18-8.41-.14-12.46-.07-.92-1.86-2.44-2.87-2.45-13.35-.17-26.7-.17-40.04,0-1.03,.01-2.38,1.43-2.99,2.52-3.79,6.78-11.2,10.87-18.29,9.87-7.84-1.1-13.78-6.5-15.56-14.15-2.04-8.73,2.66-17.55,11.1-20.84,8.48-3.31,18.17,.09,22.38,8.27,1.25,2.42,2.59,3.06,5.09,3.04,12.85-.1,25.7-.07,38.55-.04,8.68,.02,14.14,5.54,14.21,14.3,.03,3.84,0,7.68,0,11.94,3.41,0,6.49-.02,9.57,0,4.43,.04,6.92,2.04,6.97,5.55,.05,3.54-2.4,5.67-6.78,5.69-9.61,.04-19.21,0-28.82,.02-7.39,.01-10.04,2.72-10.04,10.23,0,32.31,0,64.62,0,96.93v3.91h215.56v-4.3c0-32.06,0-64.12,0-96.18,0-8.01-2.54-10.58-10.46-10.58-45.28,0-90.57,0-135.85-.01-5.98,0-8.69-1.83-8.59-5.77,.1-3.78,2.74-5.48,8.55-5.48,2.72,0,5.43,0,8.57,0,0-6.79,.07-13.24-.08-19.69-.02-.92-.91-1.94-1.63-2.69-5.49-5.76-11-11.5-16.6-17.15-.86-.86-2.18-1.64-3.35-1.76-34.34-3.56-59.46-27.53-64.05-61.77-1.58-11.77-.04-23.41,4.8-34.39,5.37-12.18,10.94-24.27,16.46-36.39,1.22-2.68,3.38-4,6.34-3.52,2.53,.41,4.55,1.78,4.79,4.49,.13,1.5-.3,3.2-.92,4.61-5.01,11.26-10.28,22.4-15.17,33.71-14.6,33.73,4.24,71.5,39.93,80.24,.34,.08,.73-.03,1.41-.07-.08-.6-.02-1.2-.23-1.67-5.78-13.09-8.16-26.82-7.79-41.08,.11-4.24-.06-8.48,.04-12.72,.18-7.56,5.86-13.08,13.38-13.23,10.09-.2,20.25,.17,30.26-.86,13.27-1.36,22.92-8.82,29.84-20.77-1.45-.46-2.55-.84-3.67-1.16-11.73-3.45-20.24-10.44-24.32-22.24-1.58-4.56-.48-7.59,3.15-9.02,3.47-1.37,6.33,.32,8.08,4.93,3.82,10.03,11.52,14.9,21.78,15.4,10.7,.52,21.45,.23,32.18,.28,13.9,.06,21.5,7.65,21.51,21.5,0,4.99,.04,9.98-.02,14.97-.04,3.92-2.36,6.83-5.39,6.95-3.59,.14-6.19-2.63-6.25-6.86-.07-5.36,.03-10.73-.04-16.09-.08-5.91-2.64-8.46-8.43-8.48-7.61-.03-15.22,.07-22.83-.06-2.18-.04-3.23,.7-4.21,2.68-9.8,19.88-25.92,29.91-48.02,30.34-7.23,.14-14.47,.09-21.71,.07-1.94,0-3.55,.23-3.56,2.68-.08,14.58-.54,29.17,4.86,43.17,8.23,21.37,22.81,36.49,43.91,45.37,3.89,1.64,7.8,1.57,11.6-.14,28.56-12.86,44.71-34.75,47.96-66.01,.21-1.98,.29-3.98,.45-5.97,.31-3.99,2.88-6.62,6.29-6.46,3.05,.14,5.37,3.05,5.37,6.97-.02,11.85-2.52,23.2-6.99,34.14-.36,.89-.76,1.76-.58,3.15,1.11-1.04,2.29-2.01,3.31-3.13,11.91-13.05,17.9-28.56,19.15-46.06,1-14.02-1.86-27.23-7.81-39.92-5.86-12.51-9.97-25.82-17.96-37.34-11.69-16.87-27.46-28.36-46.32-35.87-7.04-2.8-14.37-1.35-21.46-.41-21.69,2.89-40.29,12.26-55.79,27.77-3.24,3.25-6.45,3.55-8.84,1.15-2.99-3-2.71-6.06,.88-9.69,52.12-52.6,141.13-37.8,173.19,29.01,6.34,13.2,12.83,26.62,16.77,40.63,11.41,40.65-17.36,81.94-59.31,86.53-3.15,.34-5.28,1.46-7.42,4.01-4.48,5.32-9.72,9.98-14.46,15.09-1.2,1.29-2.27,3.23-2.36,4.92-.29,5.82-.11,11.66-.11,17.71h48.71c0-3.61,0-7.29,0-10.98,.03-9.78,5.25-15.05,14.96-15.05,12.85-.01,25.7-.04,38.55,.04,1.95,.01,3.03-.47,3.99-2.36,4.17-8.23,12.79-11.95,21.33-9.46,7.76,2.25,13.37,10.03,13.04,18.07-.36,8.76-6.84,15.92-15.74,17.4-7.18,1.2-14.96-2.8-18.53-9.88-1.01-2.01-2.11-2.63-4.24-2.61-12.6,.09-25.2,.11-37.8,0-3.06-.03-4.34,1.01-4.21,4.1,.15,3.47,.03,6.94,.03,10.97,3.37,0,6.43-.03,9.49,0,11.17,.11,19.37,8.26,19.42,19.37,.05,10.34,.01,20.68,.01,31.41,1.37,.08,2.55,.22,3.74,.22,13.47,.01,26.95,.07,40.42-.07,1.53-.02,4.4-1.31,4.35-1.78-.29-2.88,2.19-6.4-1.93-8.58-7.87-4.17-11.33-11.44-9.81-19.93,1.31-7.35,7.69-13.15,15.79-14.36,7.29-1.09,15.28,3.49,18.52,10.61,.5,1.09,1.03,2.17,1.55,3.26v8.23c-1.89,4.36-3.78,9.05-8.31,11.03-3.98,1.74-4.22,4.35-4.18,7.92,.09,10.07-5.13,15.21-15.17,15.23-13.6,.02-27.2,0-40.79,0-1.31,0-2.62,0-3.95,0v15.27c9.8,0,19.38-.04,28.96,.01,6.47,.04,11.94,4.11,13.19,10.06,.5,2.4,.42,4.97,.3,7.45-.11,2.24,.48,3.47,2.68,4.57,7.69,3.84,11.38,12.25,9.34,20.39-2.04,8.14-9.04,13.67-17.4,13.72-8.35,.06-15.71-5.5-17.72-13.37-2.11-8.24,1.46-16.46,8.98-20.65,2.49-1.39,4.14-7.03,2.64-9.51-.38-.63-1.38-1.27-2.1-1.27-9.57-.08-19.14-.06-29.1-.06,0,8.58-.02,16.78,0,24.97,.01,4.54-1.1,9.38,4.36,12.17,1.25,.64,1.94,2.85,2.41,4.47,1.46,5.05-.29,9.54-2.87,13.82-2.8,4.64-7.45,6.72-12.12,8.76h-47.16c-2.65-1.79-4.66-3.95-3.39-7.44,1.24-3.41,4.09-3.84,7.31-3.83,12.72,.08,25.44,.06,38.16,0,5.37-.02,8.51-2.93,8.85-8.07H183.28c.51,5.55,3.6,8.09,9.7,8.09,47.39,0,94.79,.02,142.18-.03,3.23,0,6.08,.43,7.31,3.83,1.26,3.48-.73,5.66-3.41,7.43H187.12Zm129.24-167.33c-12.33,8.5-24.63,7.99-36.84,.23v13.4h36.84v-13.63Zm-185.33,38.3c0-3.84-2.66-6.59-6.47-6.68-3.85-.09-7,2.92-6.99,6.68,.01,3.65,3.38,6.95,6.98,6.83,3.58-.12,6.47-3.17,6.48-6.83Zm333.76,.01c.01,3.67,2.91,6.71,6.49,6.82,3.61,.11,6.97-3.18,6.97-6.84,0-3.75-3.16-6.76-7.01-6.67-3.82,.09-6.47,2.84-6.46,6.69Zm-10.7,84.94c-3.72-.03-6.55,2.77-6.61,6.54-.06,3.83,2.6,6.66,6.36,6.76,3.82,.1,6.98-2.95,6.94-6.7-.04-3.59-3.06-6.57-6.69-6.61Zm-305.75,6.6c-.03-3.77-2.84-6.6-6.55-6.6-3.63,0-6.67,2.94-6.75,6.55-.09,3.74,3.05,6.83,6.88,6.76,3.76-.07,6.45-2.88,6.42-6.7Zm-2.73-143.07c-3.74-.02-6.66,2.81-6.69,6.49-.03,3.61,2.98,6.7,6.57,6.74,3.59,.04,6.59-2.96,6.63-6.62,.03-3.79-2.72-6.59-6.51-6.61Zm311.27,6.7c.09-3.69-2.74-6.63-6.47-6.7-3.83-.07-6.64,2.6-6.71,6.4-.07,3.68,2.79,6.73,6.41,6.82,3.57,.09,6.68-2.91,6.77-6.52Z"/>
    <path class="cls-2" d="M408.69,481.92c4.67-2.05,9.32-4.12,12.12-8.76,2.58-4.27,4.32-8.76,2.87-13.82-.47-1.63-1.16-3.83-2.41-4.47-5.46-2.79-4.35-7.63-4.36-12.17-.02-8.2,0-16.4,0-24.97,9.96,0,19.53-.03,29.1,.06,.72,0,1.71,.64,2.1,1.27,1.5,2.48-.15,8.12-2.64,9.51-7.51,4.19-11.08,12.41-8.98,20.65,2.01,7.87,9.38,13.43,17.72,13.37,8.36-.06,15.36-5.58,17.4-13.72,2.04-8.15-1.65-16.56-9.34-20.39-2.2-1.1-2.79-2.32-2.68-4.57,.12-2.48,.2-5.05-.3-7.45-1.25-5.95-6.72-10.03-13.19-10.06-9.58-.05-19.16-.01-28.96-.01v-15.27c1.33,0,2.64,0,3.95,0,13.6,0,27.2,.02,40.79,0,10.03-.02,15.26-5.16,15.17-15.23-.03-3.57,.2-6.19,4.18-7.92,4.54-1.98,6.42-6.67,8.31-11.03v125.01h-80.84Z"/>
    <path class="cls-2" d="M339.07,481.92c2.68-1.78,4.66-3.96,3.41-7.43-1.23-3.4-4.09-3.83-7.31-3.83-47.39,.05-94.79,.04-142.18,.03-6.1,0-9.19-2.55-9.7-8.09h229.18c-.34,5.14-3.47,8.05-8.85,8.07-12.72,.06-25.44,.07-38.16,0-3.22-.02-6.07,.41-7.31,3.83-1.27,3.49,.74,5.65,3.39,7.44h-22.46Z"/>
    <path class="cls-1" d="M322.37,437.72c-1.75-.88-3.31-1.8-4.98-2.46-1.11-.44-2.51-.95-3.52-.62-.79,.26-1.53,1.7-1.67,2.7-.64,4.57-3.02,6.99-7.59,7.09-4.49,.1-8.98,.1-13.47,0-4.57-.1-6.94-2.5-7.58-7.06-.14-1.03-.85-2.51-1.64-2.77-1-.34-2.59,0-3.51,.65-3.85,2.69-7.01,2.7-10.39-.51-3.25-3.09-6.44-6.26-9.53-9.52-3.29-3.47-3.31-6.55-.32-10.28,2.02-2.52,1.29-4.52-1.87-5.11-5.6-1.05-7.2-2.89-7.26-8.51-.05-4.24-.08-8.48,.03-12.72,.12-4.56,2.19-6.8,6.69-7.53,3.88-.63,4.5-2.28,2.07-5.5-2.46-3.26-2.47-6.41,.36-9.47,3.31-3.56,6.76-7,10.3-10.33,2.97-2.79,6.41-2.66,9.82-.23,.94,.67,2.55,1.23,3.47,.87,.89-.35,1.67-1.89,1.83-3.01,.62-4.29,3.02-6.78,7.38-6.9,4.61-.12,9.23-.12,13.84,0,4.38,.11,6.78,2.57,7.41,6.85,.16,1.12,.93,2.65,1.82,3.02,.91,.38,2.53-.13,3.46-.79,3.57-2.52,6.92-2.55,10.11,.46,3.27,3.08,6.44,6.27,9.54,9.51,3.46,3.62,3.5,6.62,.36,10.56-1.93,2.42-1.07,4.45,2.13,5.01,5.3,.93,7.03,2.89,7.11,8.27,.06,4.24,.08,8.48-.01,12.72-.11,4.8-2.1,6.97-6.86,7.77-3.71,.62-4.37,2.35-2.05,5.34,2.57,3.3,2.69,6.44-.09,9.46-3.37,3.67-6.92,7.19-10.58,10.57-1.19,1.1-2.97,1.57-4.79,2.48Zm-52.68-67.07c4.72,7.69,.2,18.83-8.96,22.6v4.28c8.91,3.72,13.33,14.4,9.21,22.93,.91,.91,1.95,1.94,2.86,2.86q6.13-3.03,12.24-.25c1.47,.66,3.25,.85,4.49,1.78,1.99,1.5,3.62,3.47,5.43,5.21,.92,.88,1.89,2.34,2.87,2.37,.95,.03,2.06-1.34,2.88-2.29,1.11-1.3,1.74-3.59,3.05-4.03,6.12-2.06,11.68-8.37,18.81-2.7,1.26-1.14,2.26-2.04,3.49-3.15-3.64-4.16-2.83-8.18-.48-12.26,.67-1.17,1-2.54,1.45-3.83,1-2.86,2.67-4.92,5.77-5.85,.94-.28,2.19-1.84,2.11-2.7-.1-1.09-1.28-2.23-2.25-3.05-1.1-.94-3.2-1.28-3.62-2.36-2.41-6.26-8.78-11.92-3.15-19.57-1.25-1.13-2.31-2.1-3.3-3-8.12,4.24-19.24-.64-22.52-9.53h-4.73c-1.54,8.61-13.4,13.52-22.41,9.29-.99,.99-2.04,2.04-3.25,3.25Z"/>
    <path class="cls-2" d="M316.36,314.59v13.63h-36.84v-13.4c12.21,7.76,24.51,8.26,36.84-.23Z"/>
    <path class="cls-2" d="M131.02,352.89c0,3.67-2.9,6.72-6.48,6.83-3.6,.12-6.97-3.17-6.98-6.83-.01-3.76,3.13-6.77,6.99-6.68,3.82,.09,6.48,2.83,6.47,6.68Z"/>
    <path class="cls-2" d="M464.78,352.91c-.01-3.85,2.64-6.6,6.46-6.69,3.85-.09,7.01,2.92,7.01,6.67,0,3.66-3.36,6.95-6.97,6.84-3.58-.11-6.47-3.15-6.49-6.82Z"/>
    <path class="cls-2" d="M454.07,437.85c3.63,.03,6.65,3.01,6.69,6.61,.04,3.74-3.12,6.8-6.94,6.7-3.76-.1-6.42-2.93-6.36-6.76,.06-3.77,2.89-6.58,6.61-6.54Z"/>
    <path class="cls-2" d="M148.33,444.45c.03,3.82-2.66,6.63-6.42,6.7-3.83,.07-6.97-3.01-6.88-6.76,.08-3.6,3.12-6.55,6.75-6.55,3.71,0,6.52,2.83,6.55,6.6Z"/>
    <path class="cls-2" d="M145.6,301.38c3.79,.02,6.54,2.82,6.51,6.61-.03,3.66-3.04,6.66-6.63,6.62-3.59-.04-6.6-3.13-6.57-6.74,.03-3.68,2.95-6.52,6.69-6.49Z"/>
    <path class="cls-2" d="M456.87,308.09c-.09,3.62-3.2,6.61-6.77,6.52-3.61-.09-6.48-3.14-6.41-6.82,.07-3.79,2.88-6.47,6.71-6.4,3.73,.07,6.56,3,6.47,6.7Z"/>
    <path class="cls-2" d="M269.69,370.65c1.21-1.21,2.26-2.26,3.25-3.25,9.01,4.23,20.88-.68,22.41-9.29h4.73c3.28,8.89,14.4,13.77,22.52,9.53,.99,.9,2.06,1.87,3.3,3-5.63,7.65,.74,13.31,3.15,19.57,.42,1.08,2.52,1.42,3.62,2.36,.97,.82,2.14,1.96,2.25,3.05,.08,.86-1.17,2.42-2.11,2.7-3.1,.92-4.77,2.99-5.77,5.85-.45,1.29-.78,2.66-1.45,3.83-2.35,4.08-3.16,8.11,.48,12.26-1.23,1.11-2.23,2.01-3.49,3.15-7.13-5.67-12.7,.64-18.81,2.7-1.31,.44-1.94,2.74-3.05,4.03-.81,.95-1.93,2.32-2.88,2.29-.98-.03-1.95-1.48-2.87-2.37-1.81-1.74-3.45-3.7-5.43-5.21-1.24-.94-3.01-1.12-4.49-1.78q-6.13-2.77-12.24,.25c-.92-.92-1.95-1.95-2.86-2.86,4.12-8.53-.3-19.22-9.21-22.93v-4.28c9.16-3.77,13.68-14.91,8.96-22.6Zm27.79,47.94c13.14,.08,23.78-10.28,23.78-23.15,0-12.25-10.59-22.92-22.85-23.03-13.33-.12-23.82,9.98-23.85,22.96-.03,12.61,10.36,23.14,22.92,23.22Z"/>
    <path class="cls-1" d="M297.48,418.6c-12.56-.08-22.95-10.61-22.92-23.22,.03-12.98,10.52-23.08,23.85-22.96,12.27,.11,22.85,10.78,22.85,23.03,0,12.87-10.64,23.23-23.78,23.15Zm.35-11.52c6.45-.02,11.53-5.17,11.51-11.68-.02-6.5-5.13-11.58-11.61-11.55-6.31,.03-11.71,5.42-11.67,11.66,.04,6.27,5.45,11.58,11.77,11.57Z"/>
    <path class="cls-2" d="M297.83,407.07c-6.32,.01-11.73-5.3-11.77-11.57-.04-6.24,5.35-11.63,11.67-11.66,6.48-.03,11.59,5.05,11.61,11.55,.02,6.5-5.06,11.66-11.51,11.68Z"/>
  </g>
</svg>