<?xml version="1.0" encoding="UTF-8"?>
<svg id="Layer_1" data-name="Layer 1" xmlns="http://www.w3.org/2000/svg" viewBox="0 0 595.28 595.28">
  <defs>
    <style>
      .cls-1 {
        fill: #fff;
      }

      .cls-2 {
        fill: #31479d;
      }
    </style>
  </defs>
  <rect class="cls-2" y=".37" width="595.28" height="595.28"/>
  <g>
    <path class="cls-2" d="M115.05,470.97V86.97H499.05V470.97H115.05Zm102.15-78.6c-9.47,0-18.82-.08-28.17,.04-3.98,.05-7.98,.26-11.92,.78-29.75,3.89-54.87,32.16-55.32,62.16-.11,7.24,1.47,8.88,8.58,8.88,78.13,0,156.26,0,234.38,0,.75,0,1.5,.02,2.25,0,4.03-.15,6.33-2.28,6.31-6.25-.02-3.1-.28-6.22-.68-9.3-3.27-25.3-22.97-47.76-47.7-53.91-5.86-1.46-12.03-2.05-18.09-2.28-9.68-.37-19.38-.1-29.01-.1q-.81-7.36,4.67-11.3c1.01-.73,2.01-1.48,2.97-2.27,10.9-8.93,17.67-20.41,20.94-34.38,2.56,0,5.06,.24,7.5-.06,3.05-.38,6.26-.73,9.04-1.95,9.04-3.95,14.03-11.13,14.38-20.96,.37-10.33-4.5-17.87-13.7-22.58-1.37-.7-3.23-.83-2.67-3.22,.86-3.61,1.56-7.26,2.37-11.11,1.52,0,2.88,0,4.24,0,16.72,0,33.45,.08,50.17-.02,24.31-.15,41.45-11.5,51.47-33.55,.92-2.02,2.01-2.38,3.94-2.41,4.73-.08,9.49-.08,14.17-.67,21.32-2.72,42.5-20.52,45.51-47.68,2.24-20.26-7.95-43.51-30.46-54.01-3.92-1.83-5.27-4.06-5.96-8.08-3.45-20.01-14.73-34.17-33.63-41.5-19.21-7.45-37.45-4.5-53.34,8.53-5.32,4.37-9.68,6.75-17.04,6.05-16.86-1.6-31.17,4.91-42.82,17.25-.8,.85-2.47,1.27-3.72,1.23-4.1-.12-8.19-.79-12.29-.8-30.7-.07-61.41-.37-92.1,.17-8.36,.15-14.6-1.81-19.57-8.42-1.15-1.54-1.71-2.55-1.1-4.53,2.44-7.86-.54-15.88-7.26-20.29-6.45-4.24-14.92-3.87-20.97,.91-6.23,4.93-8.53,13.16-5.72,20.51,2.85,7.48,10.28,13.09,18.19,11.22,6.56-1.54,9.51,1.52,13.01,5.31,1.1,1.19,2.38,2.22,3.42,3.46,2.24,2.7,4.96,3.65,8.52,3.63,22.21-.14,44.43-.07,66.65-.07h4.31c-3.12,3.5-5.98,6.42-8.46,9.63-1.38,1.77-2.76,2.43-4.98,2.43-29.2-.07-58.41-.08-87.61,.01-2.33,0-3.45-.73-4.55-2.77-3.96-7.33-12.22-10.84-20.01-8.79-8.28,2.18-13.6,9.01-13.61,17.46,0,8.45,5.3,15.26,13.59,17.47,7.76,2.06,16.06-1.41,19.99-8.78,1.22-2.29,2.62-2.75,4.94-2.75,26.83,.07,53.67,.04,80.5,.05,1.17,0,2.34,.12,3.54,.18-.69,3.09-1.61,5.85-1.86,8.67-.23,2.67-1.37,3.21-3.79,3.19-12.35-.1-24.78,.75-37.05-.28-11.86-.99-21.2,1.86-28.07,11.75-1.21,1.75-2.65,1.94-4.79,1.27-7.76-2.43-15.86,.68-20.21,7.45-4.26,6.62-3.7,15.18,1.38,21.24,5.18,6.18,13.69,8.17,21.02,4.92,7.33-3.25,12.39-11.04,10.36-18.77-1.38-5.25,.62-7.78,3.86-10.61,1.03-.9,1.82-2.16,2.96-2.84,1.59-.95,3.4-2.09,5.14-2.13,9.61-.2,19.22-.11,28.83-.09,.9,0,1.8,.18,2.52,.26-3.33,3.96-6.5,7.8-9.77,11.55-.68,.77-1.66,1.52-2.63,1.76-26.37,6.45-48.18,33.41-41.28,67.88,1.8,8.99,2.6,18.17,3.85,27.16-12.57,5.82-18.52,15.14-16.91,26.39,.74,5.19,2.96,9.74,6.62,13.55,6.67,6.94,15.23,7.79,24.2,7.09,.25,1,.4,1.58,.55,2.16,3.69,14.3,11.21,26.16,23.49,34.41,4.49,3.02,5.8,6.19,4.47,11.45Zm275.97-30.03c.05-39.31-32.06-71.72-71.1-71.79-40.09-.07-72.57,31.66-72.65,70.98-.08,40.44,31.67,72.67,71.66,72.73,39.95,.06,72.04-31.95,72.09-71.92Z"/>
    <path class="cls-1" d="M217.2,392.37c1.33-5.26,.03-8.43-4.47-11.45-12.28-8.25-19.8-20.11-23.49-34.41-.15-.58-.3-1.16-.55-2.16-8.97,.7-17.53-.15-24.2-7.09-3.66-3.81-5.88-8.36-6.62-13.55-1.61-11.25,4.34-20.57,16.91-26.39-1.25-9-2.05-18.18-3.85-27.16-6.9-34.47,14.92-61.43,41.28-67.88,.97-.24,1.95-.99,2.63-1.76,3.27-3.75,6.43-7.59,9.77-11.55-.72-.08-1.62-.26-2.52-.26-9.61-.02-19.22-.12-28.83,.09-1.74,.04-3.55,1.18-5.14,2.13-1.14,.68-1.93,1.94-2.96,2.84-3.24,2.83-5.24,5.36-3.86,10.61,2.03,7.72-3.04,15.52-10.36,18.77-7.33,3.25-15.84,1.26-21.02-4.92-5.08-6.06-5.64-14.62-1.38-21.24,4.35-6.76,12.44-9.87,20.21-7.45,2.14,.67,3.58,.48,4.79-1.27,6.88-9.89,16.22-12.74,28.07-11.75,12.27,1.03,24.69,.17,37.05,.28,2.43,.02,3.57-.52,3.79-3.19,.24-2.82,1.16-5.58,1.86-8.67-1.21-.06-2.37-.18-3.54-.18-26.83-.01-53.67,.02-80.5-.05-2.33,0-3.72,.46-4.94,2.75-3.93,7.37-12.23,10.84-19.99,8.78-8.3-2.2-13.6-9.01-13.59-17.47,0-8.45,5.33-15.28,13.61-17.46,7.78-2.05,16.04,1.45,20.01,8.79,1.1,2.03,2.23,2.77,4.55,2.77,29.2-.09,58.41-.08,87.61-.01,2.22,0,3.6-.65,4.98-2.43,2.49-3.21,5.35-6.13,8.46-9.63h-4.31c-22.22,0-44.43-.07-66.65,.07-3.56,.02-6.28-.93-8.52-3.63-1.03-1.24-2.32-2.27-3.42-3.46-3.5-3.8-6.45-6.86-13.01-5.31-7.91,1.86-15.33-3.75-18.19-11.22-2.8-7.35-.51-15.59,5.72-20.51,6.05-4.78,14.51-5.15,20.97-.91,6.71,4.41,9.69,12.43,7.26,20.29-.61,1.98-.06,3,1.1,4.53,4.97,6.62,11.22,8.57,19.57,8.42,30.69-.54,61.4-.25,92.1-.17,4.1,0,8.19,.69,12.29,.8,1.25,.04,2.92-.38,3.72-1.23,11.65-12.35,25.96-18.85,42.82-17.25,7.36,.7,11.71-1.68,17.04-6.05,15.89-13.03,34.13-15.98,53.34-8.53,18.9,7.33,30.18,21.49,33.63,41.5,.69,4.02,2.04,6.25,5.96,8.08,22.51,10.49,32.71,33.75,30.46,54.01-3.01,27.16-24.19,44.96-45.51,47.68-4.68,.6-9.44,.59-14.17,.67-1.94,.03-3.02,.39-3.94,2.41-10.02,22.05-27.16,33.4-51.47,33.55-16.72,.1-33.45,.02-50.17,.02-1.36,0-2.72,0-4.24,0-.81,3.85-1.52,7.5-2.37,11.11-.57,2.39,1.29,2.52,2.67,3.22,9.2,4.71,14.06,12.25,13.7,22.58-.35,9.84-5.34,17.01-14.38,20.96-2.77,1.21-5.98,1.56-9.04,1.95-2.43,.31-4.93,.06-7.5,.06-3.26,13.97-10.04,25.45-20.94,34.38-.96,.79-1.96,1.55-2.97,2.27q-5.48,3.94-4.67,11.3c9.64,0,19.34-.27,29.01,.1,6.06,.23,12.22,.83,18.09,2.28,24.73,6.14,44.43,28.6,47.7,53.91,.4,3.08,.67,6.2,.68,9.3,.02,3.97-2.28,6.1-6.31,6.25-.75,.03-1.5,0-2.25,0-78.13,0-156.26,0-234.38,0-7.12,0-8.69-1.63-8.58-8.88,.45-29.99,25.57-58.27,55.32-62.16,3.94-.52,7.94-.73,11.92-.78,9.35-.11,18.7-.04,28.17-.04Zm109.39-119.79c16.49,0,33.69,.02,50.89-.03,2.48,0,4.98-.24,7.44-.58,19.66-2.73,33.34-17.1,36.02-37.75,2.22-17.16-8.83-35.43-25.86-42.25-3.55-1.42-5.6-3.5-7.02-7.04-7.81-19.52-28.84-30.06-49.17-24.64-4.55,1.21-7.61,.51-10.66-3.4-11.02-14.18-29.56-19.48-46.36-13.71-16.56,5.69-27.96,21.36-28.31,38.93-.12,5.95-.8,6.87-6.57,8.71-5.95,1.9-11.28,4.81-16.42,9.89,5.23,0,9.55-.03,13.87,0,8.11,.07,14.34,5.63,15,13.67,.26,3.23,1.71,4.38,4.75,4.31,3.99-.09,7.99-.03,11.98-.02,20.7,.08,39.38,12.93,46.11,32.54,2.26,6.59,2.82,13.76,4.29,21.36Zm-5.68-138.16c4.65,3.8,9.25,7.18,13.35,11.09,2.03,1.94,3.66,2.53,6.42,2.1,24.34-3.84,46.92,8.13,57.62,30.17,.78,1.61,2.38,3.19,3.99,3.99,15.46,7.65,25.57,19.66,29.44,36.48,1.35,5.85,1.42,12,2.11,18.34,2.04,0,4.38,.1,6.72-.02,26.99-1.35,45.73-26.13,39.09-52.13-3.75-14.69-13.2-24.56-27.6-29.48-6.04-2.06-6.57-2.74-6.85-8.91-.13-2.85-.42-5.74-1.12-8.5-4.32-17.04-15.1-28.02-32.22-31.64-16.84-3.56-30.97,2.09-41.71,15.57-2.52,3.16-5.12,3.87-9.06,3.3-5.97-.87-12.14-1.61-18.1-1.03-8.56,.83-16.04,4.75-22.09,10.68Zm-24.77,181.67c-.21-.02-.43-.03-.64-.05,0-6.11,.27-12.24-.14-18.32-.15-2.2-1.45-4.81-3.08-6.32-3.35-3.13-7.32-5.59-10.94-8.44-2.1-1.66-3.76-1.58-5.95,.09-7.22,5.52-14.97,4.86-21.52-1.61-5.94-5.88-11.78-11.85-17.75-17.7-4.31-4.23-8.79-4.2-13.12,.05-5.52,5.42-10.98,10.89-16.4,16.4-3.5,3.55-6.3,7.78-6.38,12.77-.25,15.31-1.07,30.71,.25,45.91,1.98,22.81,21.61,40.15,44.88,41.47,22.49,1.28,43.96-14.54,48.53-36.77,1.84-8.93,1.57-18.3,2.26-27.47Zm-78.12,88.23c-10.33,0-20.44-.22-30.53,.05-18.99,.51-34.06,8.6-44.77,24.35-4.73,6.95-7.73,14.66-8.37,23.35h226.39c-.07-1.2-.04-2.2-.21-3.17-3.61-21.18-20.34-39.05-41.58-42.98-8.85-1.64-18.1-1.21-27.17-1.55-4.94-.19-9.89-.03-14.69-.03-4.57,15.37-15.35,23.97-29.6,23.96-14.15,0-24.94-8.68-29.47-23.96Zm90.18-108.01c.26-.77,.61-1.51,.78-2.3,1.21-5.85,2.38-11.7,3.57-17.56,4.45-21.93-9.39-42.02-31.53-45.21-6.12-.88-12.44-.49-18.66-.62-7.84-.17-14.06-5.76-14.7-13.61-.26-3.16-1.55-4.45-4.67-4.39-5.99,.1-11.98-.08-17.97,.07-18.25,.46-34.33,12.07-40.54,29.19-2.55,7.03-3.4,14.21-2.25,21.67,1.67,10.79,3.07,21.61,4.59,32.42,1.02-12.51,7.63-21.65,16.44-29.67,3.78-3.44,7.24-7.23,10.88-10.82,9.24-9.11,21.68-9.09,30.95,.07,5.68,5.61,11.36,11.23,16.92,16.96,2.18,2.25,3.91,2.81,6.63,.56,5.87-4.84,12.8-4.87,18.97-.47,2.94,2.1,5.72,4.44,8.71,6.46,6.2,4.18,11.01,9.22,11.88,17.25Zm-42.46,93.36c-12.29,3.59-24.08,3.49-36.1,.1,0,3.6-.22,6.73,.04,9.81,.79,9.24,8.07,16.24,17.17,16.71,8.63,.45,16.48-5.67,18.14-14.6,.69-3.74,.5-7.65,.74-12.02Zm-78.2-81.01c-6.69-.59-12.71-.28-16.28,6.11-2.41,4.31-2.11,8.66,.8,12.63,3.91,5.35,9.5,5.52,15.49,4.82v-23.56Zm120.08,23.66c6.4,.51,12.31,.32,16-5.73,2.56-4.2,2.45-8.52-.29-12.64-3.83-5.75-9.56-5.82-15.7-5.27v23.65ZM169.65,110.73c-.07-3.09-3-5.93-6.07-5.86-3.1,.07-5.92,3-5.85,6.07,.08,3.11,2.98,5.92,6.07,5.86,3.09-.06,5.92-3,5.85-6.07Zm-29.94,53.99c3.09,0,5.96-2.86,5.98-5.95,.02-3.07-2.87-5.97-5.95-5.98-3.07-.01-5.97,2.88-5.98,5.95,0,3.08,2.87,5.98,5.95,5.98Zm29.94,41.99c.03-3.07-2.84-5.98-5.92-6-3.07-.03-5.98,2.85-6,5.93-.02,3.08,2.84,5.98,5.92,6,3.09,.02,5.97-2.83,6-5.93Z"/>
    <path class="cls-1" d="M493.17,362.34c-.05,39.97-32.14,71.98-72.09,71.92-39.98-.06-71.74-32.3-71.66-72.73,.08-39.31,32.56-71.04,72.65-70.98,39.04,.06,71.15,32.48,71.1,71.79Zm-71.55-59.82c-33.27,0-60.25,26.93-60.23,60.13,.02,32.65,27.05,59.54,59.95,59.66,32.58,.12,59.92-27.19,59.86-59.78-.07-32.91-26.97-60.01-59.58-60.02Z"/>
    <path class="cls-2" d="M326.59,272.58c-1.47-7.6-2.03-14.77-4.29-21.36-6.73-19.61-25.41-32.46-46.11-32.54-3.99-.01-7.99-.07-11.98,.02-3.05,.07-4.49-1.08-4.75-4.31-.65-8.05-6.89-13.6-15-13.67-4.32-.04-8.64,0-13.87,0,5.14-5.08,10.46-7.99,16.42-9.89,5.77-1.84,6.45-2.76,6.57-8.71,.35-17.57,11.75-33.24,28.31-38.93,16.8-5.77,35.33-.46,46.36,13.71,3.04,3.91,6.11,4.62,10.66,3.4,20.33-5.42,41.36,5.12,49.17,24.64,1.42,3.54,3.47,5.62,7.02,7.04,17.03,6.83,28.08,25.1,25.86,42.25-2.68,20.65-16.36,35.01-36.02,37.75-2.46,.34-4.96,.57-7.44,.58-17.2,.05-34.4,.03-50.89,.03Z"/>
    <path class="cls-2" d="M320.91,134.42c6.05-5.93,13.53-9.85,22.09-10.68,5.95-.58,12.13,.16,18.1,1.03,3.93,.57,6.54-.14,9.06-3.3,10.74-13.48,24.87-19.13,41.71-15.57,17.12,3.62,27.9,14.6,32.22,31.64,.7,2.75,.98,5.65,1.12,8.5,.29,6.18,.82,6.85,6.85,8.91,14.41,4.92,23.85,14.79,27.6,29.48,6.64,26-12.1,50.78-39.09,52.13-2.33,.12-4.68,.02-6.72,.02-.69-6.34-.77-12.49-2.11-18.34-3.87-16.82-13.99-28.83-29.44-36.48-1.61-.8-3.21-2.37-3.99-3.99-10.7-22.04-33.28-34.01-57.62-30.17-2.76,.43-4.39-.16-6.42-2.1-4.09-3.91-8.7-7.29-13.35-11.09Z"/>
    <path class="cls-2" d="M296.14,316.09c-.69,9.17-.42,18.53-2.26,27.47-4.57,22.23-26.04,38.05-48.53,36.77-23.26-1.32-42.9-18.66-44.88-41.47-1.32-15.2-.49-30.6-.25-45.91,.08-4.99,2.88-9.22,6.38-12.77,5.43-5.51,10.88-10.99,16.4-16.4,4.33-4.25,8.81-4.28,13.12-.05,5.97,5.85,11.81,11.82,17.75,17.7,6.54,6.48,14.3,7.13,21.52,1.61,2.19-1.67,3.85-1.75,5.95-.09,3.62,2.86,7.59,5.31,10.94,8.44,1.62,1.51,2.93,4.12,3.08,6.32,.41,6.08,.14,12.21,.14,18.32,.21,.02,.43,.03,.64,.05Z"/>
    <path class="cls-2" d="M218.02,404.32c4.54,15.28,15.32,23.95,29.47,23.96,14.25,0,25.03-8.59,29.6-23.96,4.8,0,9.75-.15,14.69,.03,9.07,.35,18.32-.09,27.17,1.55,21.23,3.93,37.97,21.81,41.58,42.98,.17,.97,.13,1.98,.21,3.17H134.35c.64-8.69,3.64-16.39,8.37-23.35,10.71-15.75,25.78-23.84,44.77-24.35,10.09-.27,20.2-.05,30.53-.05Z"/>
    <path class="cls-2" d="M308.21,296.32c-.87-8.03-5.68-13.07-11.88-17.25-2.99-2.02-5.77-4.36-8.71-6.46-6.16-4.4-13.1-4.37-18.97,.47-2.72,2.25-4.45,1.69-6.63-.56-5.56-5.73-11.24-11.34-16.92-16.96-9.26-9.16-21.71-9.18-30.95-.07-3.64,3.59-7.1,7.38-10.88,10.82-8.82,8.02-15.42,17.16-16.44,29.67-1.52-10.81-2.92-21.64-4.59-32.42-1.16-7.47-.31-14.64,2.25-21.67,6.21-17.11,22.3-28.73,40.54-29.19,5.99-.15,11.98,.03,17.97-.07,3.11-.05,4.41,1.23,4.67,4.39,.63,7.84,6.86,13.43,14.7,13.61,6.23,.14,12.54-.26,18.66,.62,22.15,3.19,35.98,23.28,31.53,45.21-1.19,5.85-2.36,11.71-3.57,17.56-.16,.79-.51,1.54-.78,2.3Z"/>
    <path class="cls-2" d="M265.74,389.67c-.24,4.37-.05,8.27-.74,12.02-1.66,8.94-9.51,15.05-18.14,14.6-9.1-.48-16.38-7.47-17.17-16.71-.26-3.08-.04-6.2-.04-9.81,12.02,3.39,23.81,3.49,36.1-.1Z"/>
    <path class="cls-2" d="M187.54,308.67v23.56c-5.99,.69-11.58,.52-15.49-4.82-2.9-3.97-3.21-8.33-.8-12.63,3.57-6.38,9.59-6.69,16.28-6.11Z"/>
    <path class="cls-2" d="M307.62,332.33v-23.65c6.14-.55,11.88-.48,15.7,5.27,2.74,4.12,2.86,8.44,.29,12.64-3.69,6.05-9.59,6.24-16,5.73Z"/>
    <path class="cls-2" d="M169.65,110.73c.07,3.08-2.76,6.01-5.85,6.07-3.09,.06-5.99-2.75-6.07-5.86-.07-3.07,2.75-6,5.85-6.07,3.07-.07,6,2.77,6.07,5.86Z"/>
    <path class="cls-2" d="M139.71,164.72c-3.08,0-5.96-2.89-5.95-5.98,0-3.08,2.91-5.97,5.98-5.95,3.08,.01,5.96,2.91,5.95,5.98-.02,3.09-2.89,5.95-5.98,5.95Z"/>
    <path class="cls-2" d="M169.65,206.71c-.03,3.1-2.92,5.94-6,5.93-3.08-.02-5.95-2.92-5.92-6,.02-3.08,2.93-5.96,6-5.93,3.09,.03,5.96,2.94,5.92,6Z"/>
    <path class="cls-2" d="M421.62,302.52c32.62,0,59.52,27.11,59.58,60.02,.06,32.59-27.28,59.9-59.86,59.78-32.9-.12-59.93-27.01-59.95-59.66-.02-33.2,26.96-60.14,60.23-60.13Zm23.63,59.88c4.15,0,7.76-.05,11.36,.02,2.77,.05,4.88-.92,6.05-3.49,1.24-2.71,.54-5.09-1.51-7.14-11.73-11.73-23.43-23.49-35.21-35.17-3.04-3.02-6.22-3.04-9.23-.05-11.78,11.68-23.48,23.44-35.22,35.16-2.06,2.05-2.8,4.41-1.61,7.13,1.12,2.57,3.22,3.62,6,3.57,3.71-.06,7.41-.02,11.46-.02,0,1.72,0,3.06,0,4.4,0,12.1-.01,24.19,0,36.29,0,5.2,2.02,7.21,7.24,7.22,10.6,.02,21.2,0,31.81,0,7.41,0,8.84-1.46,8.84-9,0-12.82,0-25.64,0-38.91Z"/>
    <path class="cls-1" d="M445.25,362.39c0,13.27,0,26.09,0,38.91,0,7.54-1.43,9-8.84,9-10.6,0-21.2,.02-31.81,0-5.21-.01-7.23-2.02-7.24-7.22-.02-12.1,0-24.19,0-36.29,0-1.34,0-2.68,0-4.4-4.04,0-7.75-.05-11.46,.02-2.78,.05-4.88-1-6-3.57-1.19-2.72-.45-5.07,1.61-7.13,11.74-11.72,23.43-23.48,35.22-35.16,3.01-2.98,6.18-2.96,9.23,.05,11.78,11.68,23.48,23.43,35.21,35.17,2.05,2.05,2.74,4.43,1.51,7.14-1.17,2.57-3.28,3.55-6.05,3.49-3.6-.07-7.21-.02-11.36-.02Zm-43.97-12.26c7.5,1.2,8.02,1.82,8.02,10.23,0,6.61,0,13.22,0,19.82,0,5.95,0,11.89,0,17.94h23.99c0-1.45,0-2.68,0-3.9,0-12.34-.02-24.69,.01-37.03,.01-4.53,2.05-6.54,6.57-6.76,.66-.03,1.31-.09,1.65-.12-6.89-6.89-13.72-13.71-20.22-20.21-6.57,6.56-13.39,13.38-20.03,20.01Z"/>
    <path class="cls-2" d="M401.28,350.13c6.64-6.63,13.46-13.45,20.03-20.01,6.49,6.49,13.33,13.32,20.22,20.21-.33,.02-.99,.09-1.65,.12-4.52,.21-6.56,2.23-6.57,6.76-.04,12.34-.01,24.69-.01,37.03,0,1.23,0,2.45,0,3.9h-23.99c0-6.05,0-11.99,0-17.94,0-6.61,0-13.22,0-19.82,0-8.41-.52-9.04-8.02-10.23Z"/>
  </g>
</svg>