<?xml version="1.0" encoding="UTF-8"?>
<svg id="Layer_1" data-name="Layer 1" xmlns="http://www.w3.org/2000/svg" viewBox="0 0 595.28 595.28">
  <defs>
    <style>
      .cls-1 {
        fill: #fff;
      }

      .cls-2 {
        fill: #31479d;
      }
    </style>
  </defs>
  <rect class="cls-2" y=".37" width="595.28" height="595.28"/>
  <g>
    <path class="cls-2" d="M178.88,490.36H105.53c0-128,0-256,0-384,128,0,256,0,384,0,0,128,0,256,0,384-24.2,0-48.41,0-72.61,0,4.25-1.96,8.92-3.32,12.67-5.98,11.12-7.91,13.38-19.52,12.06-32.23-.34-3.23-2.72-4.63-5.84-4.58-3.34,.06-4.96,2.25-5.35,5.2-.34,2.58-.1,5.23-.14,7.85-.13,8.71-5.69,16.07-14.32,17.61-5.66,1.01-11.55,.73-17.73,1.04,0-8.03,0-15.36,0-22.69,0-1.37,.13-2.78-.16-4.1-.69-3.14-2.53-5.12-6-4.95-3.46,.17-5.22,2.17-5.32,5.51-.13,4.24-.07,8.48-.08,12.72,0,4.33,0,8.66,0,13.05h-49.3c9.51-45.46,10.27-90.84,2.58-136.8,7.9,1.96,15.19,3.94,22.55,5.58,26.21,5.84,45.9,20.32,58.53,44.1,5.67,10.69,8.66,22.18,9.25,34.28,.19,3.88,2.6,6.61,5.76,6.59,3.47-.03,5.72-2.77,5.63-6.93-.04-1.75-.06-3.5-.24-5.23-4.15-39.86-32.75-72.91-71.64-82.78-8.07-2.05-16.17-4-24.24-6.06-3.66-.94-6.91-2.5-8.46-6.62,8.93-3.07,17.75-5.72,26.28-9.11,15.06-5.99,25.03-17,27.9-32.99,1.64-9.1,.96-18.61,1.49-27.92,.09-1.58,.67-3.43,1.67-4.61,3.4-4.01,4.99-8.57,5.02-13.73,.04-7.61,.33-15.24-.12-22.82-.22-3.72-.93-8.1-3.09-10.86-3.09-3.93-4.4-7.84-4.32-12.57,.01-.86-.32-1.71-.44-2.58-6.81-51.08-56.74-87.99-107.89-79.71-47.5,7.69-77.95,46.85-80.14,87.4-.08,1.46-.78,3.17-1.77,4.24-3.49,3.77-5.25,8.18-5.32,13.21-.12,8.11-.3,16.23,.09,24.32,.16,3.36,.75,7.59,2.86,9.77,4.27,4.44,3.76,9.4,3.78,14.55,.01,3.24-.01,6.49,0,9.73,.1,22.6,12.26,39.2,33.76,46.21,7.31,2.38,14.56,4.94,21.9,7.44-1.6,3.94-4.58,5.6-8.07,6.52-6.38,1.67-12.75,3.37-19.18,4.81-9.64,2.16-18.96,5.17-27.63,9.99-3.31,1.84-4.28,4.94-2.72,7.9,1.41,2.66,4.49,3.93,7.31,2.37,11.84-6.53,25-8.84,37.86-12.12,3.05-.78,6.09-1.57,9.59-2.47-7.89,46.2-6.94,91.58,2.45,136.89h-48.75c-.22-.36-.34-.47-.34-.58-.07-8.1-.07-16.21-.2-24.31-.07-4.24-2.08-6.37-5.69-6.34-3.45,.02-5.68,2.36-5.75,6.42-.11,6.23-.03,12.47-.04,18.71,0,2.06,0,4.12,0,6.32-5.35,0-10.09,.24-14.8-.05-9.89-.6-17.3-8.57-17.36-18.53-.07-11.6-.07-23.2,.08-34.8,.04-3.34,.52-6.7,1.09-10.01,2.93-16.92,10.58-31.47,22.3-43.96,2.68-2.86,2.7-6,.39-8.29-2.48-2.46-5.79-2.38-8.56,.49-14.09,14.61-23.44,31.9-25.52,52.05-1.59,15.44-1.36,31.13-.97,46.68,.31,12.19,7.35,20.55,18.38,25.5,2.01,.9,4.16,1.51,6.24,2.26Zm205.87-57.43s0,.07,0,.1c3.99,0,7.98,.01,11.97,0,4.49-.02,8.23-1.76,11.26-5.02,5.34-5.74,5.18-12.77,4.04-19.73-1.27-7.74-6.37-12.72-14.09-13.16-8.81-.51-17.7-.39-26.51,.11-6.59,.37-11.15,4.48-12.88,10.77-1,3.63-.84,7.63-.82,11.46,.04,8.33,6.4,15,14.69,15.43,4.1,.22,8.23,.04,12.35,.04Z"/>
    <path class="cls-1" d="M178.88,490.36c-2.08-.75-4.23-1.36-6.24-2.26-11.03-4.95-18.07-13.31-18.38-25.5-.39-15.55-.62-31.24,.97-46.68,2.07-20.16,11.43-37.45,25.52-52.05,2.76-2.86,6.08-2.95,8.56-.49,2.3,2.29,2.29,5.42-.39,8.29-11.72,12.5-19.37,27.04-22.3,43.96-.57,3.3-1.05,6.66-1.09,10.01-.15,11.6-.14,23.2-.08,34.8,.06,9.96,7.47,17.93,17.36,18.53,4.71,.29,9.45,.05,14.8,.05,0-2.2,0-4.26,0-6.32,0-6.24-.08-12.47,.04-18.71,.07-4.07,2.3-6.4,5.75-6.42,3.6-.03,5.62,2.1,5.69,6.34,.13,8.1,.14,16.21,.2,24.31,0,.11,.12,.21,.34,.58h48.75c-9.4-45.3-10.34-90.68-2.45-136.89-3.5,.9-6.54,1.69-9.59,2.47-12.86,3.28-26.02,5.59-37.86,12.12-2.82,1.55-5.9,.29-7.31-2.37-1.57-2.96-.59-6.06,2.72-7.9,8.66-4.82,17.98-7.83,27.63-9.99,6.43-1.44,12.8-3.15,19.18-4.81,3.49-.91,6.47-2.58,8.07-6.52-7.35-2.5-14.59-5.06-21.9-7.44-21.5-7.01-33.66-23.61-33.76-46.21-.01-3.24,0-6.49,0-9.73-.02-5.15,.5-10.11-3.78-14.55-2.11-2.18-2.69-6.42-2.86-9.77-.39-8.09-.21-16.21-.09-24.32,.07-5.03,1.83-9.44,5.32-13.21,.99-1.06,1.69-2.78,1.77-4.24,2.19-40.56,32.65-79.72,80.14-87.4,51.15-8.28,101.09,28.63,107.89,79.71,.12,.86,.45,1.72,.44,2.58-.08,4.73,1.23,8.64,4.32,12.57,2.17,2.76,2.87,7.14,3.09,10.86,.45,7.58,.16,15.21,.12,22.82-.03,5.16-1.62,9.73-5.02,13.73-1,1.18-1.58,3.03-1.67,4.61-.53,9.31,.14,18.82-1.49,27.92-2.88,15.99-12.84,27.01-27.9,32.99-8.52,3.39-17.34,6.04-26.28,9.11,1.56,4.12,4.8,5.68,8.46,6.62,8.07,2.06,16.17,4.01,24.24,6.06,38.88,9.87,67.48,42.92,71.64,82.78,.18,1.73,.2,3.49,.24,5.23,.09,4.15-2.16,6.9-5.63,6.93-3.16,.03-5.58-2.71-5.76-6.59-.59-12.1-3.58-23.59-9.25-34.28-12.62-23.78-32.31-38.26-58.53-44.1-7.36-1.64-14.65-3.61-22.55-5.58,7.69,45.96,6.93,91.34-2.58,136.8h49.3c0-4.38,0-8.72,0-13.05,0-4.24-.06-8.48,.08-12.72,.11-3.33,1.86-5.34,5.32-5.51,3.47-.17,5.31,1.81,6,4.95,.29,1.32,.16,2.73,.16,4.1,.01,7.33,0,14.66,0,22.69,6.18-.32,12.07-.03,17.73-1.04,8.63-1.54,14.19-8.89,14.32-17.61,.04-2.62-.2-5.27,.14-7.85,.39-2.95,2.01-5.15,5.35-5.2,3.12-.05,5.5,1.35,5.84,4.58,1.32,12.71-.94,24.32-12.06,32.23-3.75,2.66-8.42,4.03-12.67,5.98H178.88Zm61.57-285.17c-.13,1.75-.25,2.6-.25,3.44-.02,10.23-.06,20.46-.01,30.69,.09,17.31,6.61,31.88,19.59,43.19,15.67,13.66,33.84,17.36,54.41,12.16-1.06-1.17-1.82-1.94-2.52-2.78-7.94-9.57-3.39-24.56,8.8-26.35,9.06-1.33,18.59-2.13,27.88,1.59,4.27-7.39,6.83-15.42,7.06-23.96,.33-12.34,.07-24.7,.2-37.05,.02-2.15-.72-3.33-2.51-4.44-7.07-4.39-13.11-9.96-17.68-16.95-2.77-4.24-5.23-8.69-7.89-13.15-2.19,2.67-4.25,5.46-6.59,7.99-15.64,16.89-35.76,23.81-58.03,25.54-7.31,.57-14.69,.09-22.45,.09Zm85.25,273.83c7.35-34.15,9.9-68.43,6.93-103.6-11.63,4.29-23,6.55-34.83,6.56-11.81,0-23.14-2.38-34.66-6.51-2.9,35.23-.44,69.52,6.98,103.55h55.59Zm-54.8-176.04c2.49,21.08-5.2,40.36-6.34,60.66,22.33,9.44,44.54,9.43,66.69-.03-1.21-20.45-8.88-39.69-6.38-60.67-18.23,7.17-35.59,7.13-53.97,.04Zm-42.31-58.24v-39.02c-4.78,0-9.25-.15-13.7,.04-4.56,.2-6.87,2.52-6.94,7.05-.14,8.22-.14,16.44-.01,24.66,.07,4.48,2.78,7.09,7.32,7.24,4.35,.14,8.71,.03,13.34,.03Zm138.59-38.85v38.85c4.66,0,9.01,.1,13.37-.03,4.27-.13,7.15-2.56,7.23-6.5,.18-8.71,.14-17.43,.01-26.15-.05-3.39-2.02-5.85-5.41-6.08-4.93-.35-9.9-.09-15.2-.09Z"/>
    <path class="cls-1" d="M384.75,432.93c-4.12,0-8.24,.18-12.35-.04-8.28-.44-14.65-7.11-14.69-15.43-.02-3.83-.18-7.84,.82-11.46,1.73-6.29,6.29-10.4,12.88-10.77,8.82-.5,17.7-.62,26.51-.11,7.72,.45,12.82,5.43,14.09,13.16,1.14,6.96,1.3,13.99-4.04,19.73-3.03,3.26-6.77,5-11.26,5.02-3.99,.02-7.98,0-11.97,0,0-.03,0-.07,0-.1Zm.03-11.3s0-.01,0-.02c3.74,0,7.47-.02,11.21,0,3.05,.02,4.58-1.67,4.95-4.5,.19-1.47,.11-2.98,.09-4.48-.08-4.8-1.5-6.29-6.21-6.36-5.35-.08-10.71-.04-16.07-.04-9.55,0-10.13,.6-9.75,10.2,.14,3.62,1.61,5.1,5.33,5.18,3.49,.07,6.97,.02,10.46,.02Z"/>
    <path class="cls-2" d="M240.46,205.19c7.76,0,15.15,.48,22.45-.09,22.26-1.72,42.39-8.64,58.03-25.54,2.34-2.53,4.4-5.32,6.59-7.99,2.66,4.47,5.12,8.91,7.89,13.15,4.57,6.99,10.61,12.56,17.68,16.95,1.79,1.11,2.53,2.3,2.51,4.44-.12,12.35,.14,24.71-.2,37.05-.23,8.54-2.79,16.57-7.06,23.96-9.29-3.72-18.83-2.92-27.88-1.59-12.18,1.79-16.74,16.78-8.8,26.35,.69,.83,1.46,1.61,2.52,2.78-20.57,5.2-38.73,1.5-54.41-12.16-12.98-11.31-19.5-25.89-19.59-43.19-.05-10.23,0-20.46,.01-30.69,0-.84,.12-1.69,.25-3.44Z"/>
    <path class="cls-2" d="M325.7,479.02h-55.59c-7.42-34.03-9.87-68.32-6.98-103.55,11.52,4.13,22.85,6.51,34.66,6.51,11.83,0,23.2-2.26,34.83-6.56,2.97,35.16,.42,69.45-6.93,103.6Z"/>
    <path class="cls-2" d="M270.9,302.98c18.38,7.09,35.74,7.13,53.97-.04-2.5,20.98,5.17,40.23,6.38,60.67-22.15,9.46-44.36,9.47-66.69,.03,1.14-20.31,8.84-39.59,6.34-60.66Z"/>
    <path class="cls-2" d="M228.59,244.73c-4.63,0-8.99,.11-13.34-.03-4.54-.15-7.25-2.76-7.32-7.24-.13-8.22-.13-16.44,.01-24.66,.08-4.53,2.38-6.86,6.94-7.05,4.45-.19,8.92-.04,13.7-.04v39.02Z"/>
    <path class="cls-2" d="M367.19,205.89c5.3,0,10.27-.26,15.2,.09,3.38,.24,5.36,2.69,5.41,6.08,.12,8.71,.17,17.43-.01,26.15-.08,3.94-2.96,6.37-7.23,6.5-4.35,.13-8.71,.03-13.37,.03v-38.85Z"/>
    <path class="cls-2" d="M384.78,421.63c-3.49,0-6.98,.06-10.46-.02-3.72-.08-5.19-1.56-5.33-5.18-.38-9.6,.2-10.21,9.75-10.2,5.36,0,10.71-.03,16.07,.04,4.72,.07,6.13,1.56,6.21,6.36,.03,1.49,.1,3.01-.09,4.48-.37,2.83-1.9,4.52-4.95,4.5-3.74-.02-7.47,0-11.21,0,0,0,0,.01,0,.02Z"/>
  </g>
</svg>