<?xml version="1.0" encoding="UTF-8"?>
<svg id="Layer_1" data-name="Layer 1" xmlns="http://www.w3.org/2000/svg" viewBox="0 0 595.28 595.28">
  <defs>
    <style>
      .cls-1 {
        fill: #fff;
      }

      .cls-2 {
        fill: #31479d;
      }
    </style>
  </defs>
  <rect class="cls-2" y="2.27" width="595.28" height="595.28"/>
  <g>
    <path class="cls-2" d="M105.53,491.24c0-127.98,0-255.96,0-384H489.53V491.24H105.53ZM291.94,179.67c0-11.95,.02-23.54,0-35.13-.04-17.72-12.97-30.59-30.77-30.6-39.31-.02-78.62-.02-117.93,0-18.23,0-30.97,12.82-30.97,31.15,0,86.97,0,173.94,0,260.9,0,18.57,12.69,31.32,31.17,31.33,18.72,.01,37.44,0,56.16,.03,1.2,0,2.78-.09,3.54,.59,6.57,5.85,14.18,9.5,22.95,11.07,0,2.41-.01,4.52,0,6.62,.13,16.27,13.27,29.54,29.52,29.59,28.2,.08,56.41,.06,84.61,0,14.03-.03,26.06-9.81,28.85-23.61,.83-4.09,.77-8.36,1.11-12.53,10.9-2.98,14.72-4.9,20.83-9.61,1.51-1.17,3.71-2.03,5.6-2.05,19.09-.15,38.19-.04,57.28-.11,16.5-.06,29.72-13.24,29.73-29.75,.04-87.97,.04-175.93,0-263.9,0-16.51-13.24-29.69-29.76-29.71-40.06-.05-80.12-.04-120.18,0-14.08,.02-26.1,9.76-28.98,23.48-.58,2.77-.69,5.68-.71,8.53-.08,11.19-.03,22.37-.03,33.7h-12.01Z"/>
    <path class="cls-1" d="M291.94,179.67h12.01c0-11.33-.05-22.52,.03-33.7,.02-2.85,.13-5.76,.71-8.53,2.88-13.72,14.9-23.46,28.98-23.48,40.06-.04,80.12-.05,120.18,0,16.52,.02,29.75,13.2,29.76,29.71,.04,87.97,.04,175.93,0,263.9,0,16.51-13.22,29.69-29.73,29.75-19.09,.07-38.19-.04-57.28,.11-1.89,.01-4.09,.88-5.6,2.05-6.1,4.72-9.92,6.64-20.83,9.61-.35,4.17-.29,8.44-1.11,12.53-2.79,13.8-14.82,23.58-28.85,23.61-28.2,.06-56.41,.07-84.61,0-16.25-.04-29.39-13.31-29.52-29.59-.02-2.11,0-4.22,0-6.62-8.77-1.56-16.38-5.21-22.95-11.07-.76-.68-2.34-.59-3.54-.59-18.72-.03-37.44-.01-56.16-.03-18.47-.01-31.16-12.77-31.17-31.33,0-86.97,0-173.94,0-260.9,0-18.33,12.74-31.14,30.97-31.15,39.31-.01,78.62-.02,117.93,0,17.8,0,30.73,12.88,30.77,30.6,.03,11.59,0,23.18,0,35.13Zm-23.96,5.15c3.31-1.23,6.02-2.63,8.9-3.18,2.81-.54,3.18-1.92,3.16-4.37-.11-10.6-.02-21.21-.06-31.82-.04-12.05-7.57-19.55-19.69-19.56-38.81-.02-77.62-.02-116.42,0-12.1,0-19.64,7.52-19.64,19.6-.02,86.71-.01,173.43,0,260.14,0,12.27,7.53,19.72,19.89,19.73,15.47,.02,30.95,0,46.42,0,1.05,0,2.09-.12,3.14-.18-7.57-21.06-2.02-40.41,6.61-59.73-1.72,0-3.07,0-4.42,0-15.6,0-31.2,.01-46.79,0-7.99-.01-12.83-4.82-12.84-12.77-.02-15.1-.01-30.19,0-45.29,0-9.23,4.52-13.77,13.71-13.77,33.19,0,66.39,0,99.58,0h4.03c-.53-4.18-1.9-6.23-6.56-6.33-3.6-.08-7.12-2.52-10.71-3.84-1.9-.7-3.86-1.75-5.8-1.76-27.08-.12-54.16-.07-81.24-.08-8.24,0-12.99-4.75-13-12.98-.02-15.1,0-30.19,0-45.29,0-8.96,4.6-13.56,13.55-13.56,26.08,0,52.16,0,78.24-.04,1.28,0,3.09-.1,3.74-.89,4.36-5.36,9.88-8.84,16.39-11.08-1.37,0-2.73,0-4.1,0-31.7,0-63.39,.01-95.09,0-7.78,0-12.7-4.85-12.73-12.5-.03-11.6-.03-23.21,0-34.81,.02-7.64,4.96-12.53,12.69-12.54,35.44-.02,70.88-.02,106.32,0,7.94,0,12.72,4.85,12.73,12.87,.02,11.22,0,22.45,0,34.04Zm74.3,108.8c1.6,0,2.97,0,4.34,0,33.19,0,66.39,0,99.58,0,8.8,0,13.46,4.59,13.46,13.27,.01,15.1,.01,30.19,0,45.29,0,8.67-4.68,13.27-13.47,13.27-15.47,0-30.95,0-46.42,0h-4.19c8.73,19.54,14.19,38.9,6.63,59.78,.95,.05,1.8,.13,2.66,.13,15.85,0,31.7,.04,47.54,0,11.58-.04,19.24-7.66,19.24-19.25,.03-86.96,.02-173.93,0-260.89,0-11.64-7.61-19.3-19.17-19.32-39.18-.04-78.37-.04-117.55,0-11.34,.01-18.96,7.71-19.02,19.08-.06,10.61-.02,21.21,0,31.82,0,.95,.16,1.9,.25,2.78,3.97,.31,7.66,.6,11.75,.92,0-1.32,0-2.55,0-3.77,0-8.61-.01-17.22,0-25.83,.02-8.19,4.8-13,12.98-13,35.32-.01,70.63-.01,105.95,0,7.99,0,12.8,4.82,12.82,12.79,.03,11.23,.01,22.46,0,33.69,0,8.75-4.63,13.38-13.37,13.38-28.2,0-56.4,0-84.61,0h-4.3c2.17,3.36,4.26,6.14,5.82,9.19,1.13,2.22,2.46,2.88,4.9,2.87,26.21-.1,52.41-.07,78.62-.05,8.2,0,12.92,4.78,12.93,13.05,.02,15.1,.01,30.19,0,45.29,0,8.95-4.59,13.49-13.63,13.49-27.08,0-54.16-.03-81.24,.08-1.82,0-3.67,1.01-5.44,1.7-3.46,1.32-6.84,3.76-10.31,3.88-4.52,.15-6.15,1.99-6.76,6.35Zm-104.25,155.52h119.83v-3.47c0-16.22,.03-32.43,0-48.65-.03-12.05-7.57-19.56-19.67-19.57-26.82-.02-53.65-.02-80.47,0-12.11,.01-19.65,7.51-19.67,19.56-.03,16.22,0,32.43,0,48.65,0,1.09,0,2.18,0,3.47Zm-89.69-95.63c18.88,0,37.33-.06,55.78,.06,2.87,.02,4.75-.77,6.59-3.05,8.85-10.93,19.77-19.22,32.63-24.98,9.17-4.1,18.73-6.59,28.74-7.52,1.16-.11,2.21-1.45,3.31-2.21-.79-.92-1.45-2.03-2.4-2.73-2.61-1.9-5.28-3.76-8.08-5.35-1.72-.98-3.73-2.07-5.61-2.07-35.79-.12-71.58-.09-107.37-.08-1.19,0-2.39,.11-3.6,.17v47.77Zm299.23-47.64c-.63-.15-.86-.26-1.1-.26-37.03-.02-74.07-.04-111.1,0-1.02,0-2.18,.4-3.05,.96-3.55,2.28-7.06,4.64-10.49,7.09-.64,.46-1.33,1.55-1.21,2.21,.13,.74,1.06,1.48,1.81,1.94,.59,.36,1.44,.33,2.19,.4,24.94,2.49,45.2,13.71,61.08,32.95,1.54,1.87,3.12,2.4,5.4,2.39,17.58-.08,35.16-.04,52.75-.05,1.2,0,2.4-.11,3.72-.17v-47.46Zm-114.21-44.74c.18,0,.35,0,.53,0,0-4.86,.01-9.72,0-14.58-.02-5.93-1.78-7.8-7.55-8.42-5.07-.55-10.12-1.31-15.18-1.92-6.54-.79-13.14-2.41-19.62-2.07-8.02,.42-15.94,2.54-23.91,3.84-3.88,.63-5.61,2.98-5.62,6.69-.04,10.59-.23,21.19,.07,31.78,.43,14.65,10.76,26.41,25.26,28.49,5.99,.86,12.19,.86,18.25,.49,14.48-.88,25.66-10.96,27.63-25.29,.86-6.22,.14-12.66,.14-19Zm22.91-19.53c.18-.43,.44-.87,.56-1.34,5.25-21.19-10.79-45.31-32.59-47.59-12.34-1.29-24.9-1.09-37.33-.63-10.48,.39-19.1,5.49-25.11,14.2-1.86,2.7-3.76,3.58-6.95,3.57-9.8-.05-17.45,7.59-16.7,16.67,.4,4.91,1.51,9.76,2.28,14.55,3.49-.6,6.66-1.15,10.09-1.74,2.65-8.71,9.07-12.84,18.08-13.86,5.02-.57,9.99-1.66,15.23-2.56-1.2-3.92-2.3-7.52-3.47-11.33,3.94-1.29,7.45-2.44,11.29-3.69,1.4,4.13,2.57,8.04,4.09,11.82,.45,1.13,1.76,2.55,2.84,2.7,8.5,1.22,17.04,2.17,25.57,3.19,6.34,.76,12.8,1.35,17.15,6.89,1.72,2.2,3,4.76,4.21,6.72,3.72,.83,7.09,1.59,10.77,2.41Zm-207.93-56.05h107.38v-35.51h-107.38v35.51Zm191.51-35.52c0,10.24,0,20.31,0,30.37q0,5.4,5.31,5.41c32.8,0,65.6,0,98.4,0,1.31,0,2.63,0,3.84,0v-35.78h-107.55Zm-113.76,119.51q-.25-9.84,3.04-18.35c.32-.85,.25-1.92,.12-2.85-1.25-8.71-2.55-17.41-3.86-26.35h-76.91v47.55h77.62Zm221.35-.07v-47.54h-78.5c1.71,9.73,.95,19.05-2.14,28.18-.25,.75-.26,1.8,.07,2.5,2.58,5.33,3.52,10.84,1.97,16.86h78.6Zm-77.47,166.9c14.61-2.65,24.71-15.92,23.69-31.83-1.87-29.24-15.64-51.28-41.32-65.47-6.06-3.35-12.89-5.33-19.82-8.12-1.36,12.15-2.6,23.14-3.89,34.63,10.91-.42,21.72-.89,30.6,6.91,8.76,7.69,11.5,17.63,10.5,29.08h11.77v11.9h-11.53v22.89Zm-155.8-35.07h11.9c0-1.77,0-3.13,0-4.49,.03-18.74,12.68-31.31,31.53-31.33,3.17,0,6.34,0,9.64,0-1.3-11.57-2.54-22.57-3.78-33.58-33.89,6.51-62.8,38.8-61.13,77.7,.59,13.78,11.44,25.21,23.51,26.66v-23.06h-11.65v-11.9Zm25.09,60.11c3.4,7.61,8.86,11.71,16.44,11.77,28.17,.22,56.35,.13,84.52,.06,6.65-.02,14.73-5.06,15.8-11.82h-116.76Zm58.67-124.01c3.74-5,7.31-9.57,10.63-14.31,1.63-2.32,.34-5.52-2.04-5.55-6.31-.08-12.62-.03-19.6-.03,.11,2.07-.42,4.23,.42,5.49,3.19,4.82,6.83,9.36,10.59,14.39Zm-48.01-85.58c-7.9,.46-12.64,5.88-11.95,13.33,.55,5.95,6.05,10.6,11.95,10v-23.33Zm96.07,23.7c7.54-.94,11.68-5.68,11.36-12.57-.3-6.35-4.72-10.72-11.36-11.07v23.64Zm-67.42,82.1c3.68-3.84,7.16-7.48,10.74-11.21-4.64-7.73-11.24-15.67-13.82-16.2,1.03,9.16,2.05,18.22,3.08,27.41Zm28.07-11.68c3.91,4,7.42,7.59,10.72,10.97,.48-4.07,1.04-8.63,1.55-13.2,.5-4.52,.94-9.04,1.41-13.56-.41-.24-.81-.48-1.22-.71-4.32,5.72-8.64,11.44-12.47,16.51Zm-17.08,19.23h16.1c-2.55-2.66-5.35-5.58-7.91-8.24-2.62,2.64-5.4,5.43-8.2,8.24Z"/>
    <path class="cls-2" d="M267.98,184.81c0-11.59,.02-22.82,0-34.04-.02-8.03-4.79-12.87-12.73-12.87-35.44-.02-70.88-.02-106.32,0-7.73,0-12.67,4.89-12.69,12.54-.03,11.6-.03,23.21,0,34.81,.02,7.66,4.95,12.5,12.73,12.5,31.7,.02,63.39,0,95.09,0,1.37,0,2.73,0,4.1,0-6.51,2.24-12.02,5.72-16.39,11.08-.65,.8-2.47,.89-3.74,.89-26.08,.05-52.16,.03-78.24,.04-8.95,0-13.54,4.61-13.55,13.56,0,15.1-.01,30.19,0,45.29,0,8.23,4.76,12.98,13,12.98,27.08,.01,54.16-.03,81.24,.08,1.94,0,3.9,1.06,5.8,1.76,3.59,1.31,7.12,3.76,10.71,3.84,4.66,.11,6.03,2.15,6.56,6.33h-4.03c-33.19,0-66.39,0-99.58,0-9.19,0-13.71,4.54-13.71,13.77,0,15.1-.02,30.19,0,45.29,.01,7.95,4.85,12.76,12.84,12.77,15.6,.02,31.2,0,46.79,0,1.35,0,2.7,0,4.42,0-8.63,19.32-14.19,38.66-6.61,59.73-1.05,.06-2.09,.18-3.14,.18-15.47,.01-30.95,.02-46.42,0-12.37-.02-19.89-7.46-19.89-19.73-.01-86.71-.01-173.43,0-260.14,0-12.08,7.54-19.6,19.64-19.6,38.81-.02,77.62-.02,116.42,0,12.12,0,19.65,7.5,19.69,19.56,.04,10.61-.06,21.21,.06,31.82,.03,2.45-.34,3.83-3.16,4.37-2.88,.55-5.59,1.96-8.9,3.18Zm-113.86,228.55c10.07,.02,18.03-7.93,18.02-17.99,0-9.9-7.86-17.85-17.7-17.92-10.14-.07-18.16,7.78-18.2,17.79-.04,10.1,7.85,18.09,17.89,18.11Z"/>
    <path class="cls-2" d="M342.28,293.61c.61-4.37,2.24-6.2,6.76-6.35,3.48-.12,6.86-2.55,10.31-3.88,1.78-.68,3.63-1.69,5.44-1.7,27.08-.11,54.16-.07,81.24-.08,9.04,0,13.62-4.54,13.63-13.49,0-15.1,.01-30.19,0-45.29,0-8.27-4.73-13.05-12.93-13.05-26.21-.01-52.41-.04-78.62,.05-2.44,0-3.77-.66-4.9-2.87-1.56-3.05-3.66-5.83-5.82-9.19h4.3c28.2,0,56.4,0,84.61,0,8.74,0,13.36-4.63,13.37-13.38,.01-11.23,.02-22.46,0-33.69-.02-7.97-4.84-12.78-12.82-12.79-35.32-.01-70.63-.01-105.95,0-8.17,0-12.96,4.82-12.98,13-.02,8.61,0,17.22,0,25.83,0,1.22,0,2.44,0,3.77-4.09-.32-7.78-.61-11.75-.92-.08-.88-.24-1.83-.25-2.78-.02-10.61-.06-21.21,0-31.82,.06-11.37,7.68-19.07,19.02-19.08,39.18-.04,78.37-.04,117.55,0,11.56,.01,19.17,7.68,19.17,19.32,.02,86.96,.02,173.93,0,260.89,0,11.59-7.66,19.21-19.24,19.25-15.85,.05-31.7,.01-47.54,0-.85,0-1.7-.08-2.66-.13,7.56-20.88,2.1-40.24-6.63-59.78h4.19c15.47,0,30.95,0,46.42,0,8.79,0,13.47-4.61,13.47-13.27,.01-15.1,.01-30.19,0-45.29,0-8.68-4.67-13.27-13.46-13.27-33.19,0-66.39,0-99.58,0-1.37,0-2.73,0-4.34,0Zm99.58,83.85c-10.11-.04-18.09,7.85-18.11,17.89-.02,9.91,7.82,17.92,17.61,18.01,10.14,.1,18.23-7.73,18.3-17.71,.07-10.13-7.78-18.15-17.8-18.19Z"/>
    <path class="cls-2" d="M238.03,449.13c0-1.29,0-2.38,0-3.47,0-16.22-.02-32.43,0-48.65,.02-12.06,7.56-19.55,19.67-19.56,26.82-.02,53.65-.02,80.47,0,12.1,.01,19.64,7.52,19.67,19.57,.04,16.22,0,32.43,0,48.65v3.47h-119.83Zm60.07-59.69c-10.11-.04-18.09,7.85-18.1,17.89-.02,9.91,7.82,17.92,17.61,18.01,10.14,.1,18.23-7.73,18.29-17.71,.07-10.13-7.78-18.15-17.8-18.19Z"/>
    <path class="cls-2" d="M148.35,353.5v-47.77c1.21-.06,2.4-.17,3.6-.17,35.79,0,71.58-.04,107.37,.08,1.88,0,3.89,1.09,5.61,2.07,2.8,1.6,5.46,3.46,8.08,5.35,.96,.69,1.61,1.8,2.4,2.73-1.1,.77-2.15,2.11-3.31,2.21-10.01,.92-19.57,3.41-28.74,7.52-12.86,5.76-23.79,14.05-32.63,24.98-1.84,2.28-3.72,3.07-6.59,3.05-18.45-.12-36.9-.06-55.78-.06Zm12.1-35.76v23.46h11.5v-23.46h-11.5Zm23.77,23.52h11.63v-23.39h-11.63v23.39Z"/>
    <path class="cls-2" d="M447.58,305.87v47.46c-1.32,.06-2.52,.17-3.72,.17-17.58,.01-35.16-.03-52.75,.05-2.29,.01-3.86-.52-5.4-2.39-15.88-19.24-36.13-30.46-61.08-32.95-.74-.07-1.59-.04-2.19-.4-.75-.46-1.68-1.19-1.81-1.94-.12-.66,.56-1.75,1.21-2.21,3.44-2.45,6.94-4.82,10.49-7.09,.87-.56,2.03-.96,3.05-.96,37.03-.04,74.07-.02,111.1,0,.24,0,.47,.11,1.1,.26Zm-36.1,35.47v-23.45h-11.49v23.45h11.49Zm23.95,.01v-23.59h-11.46v23.59h11.46Z"/>
    <path class="cls-2" d="M333.37,261.13c0,6.34,.71,12.78-.14,19-1.97,14.33-13.15,24.41-27.63,25.29-6.06,.37-12.26,.36-18.25-.49-14.5-2.07-24.83-13.84-25.26-28.49-.31-10.58-.11-21.18-.07-31.78,.01-3.71,1.74-6.06,5.62-6.69,7.98-1.3,15.9-3.41,23.91-3.84,6.49-.34,13.08,1.28,19.62,2.07,5.06,.61,10.11,1.37,15.18,1.92,5.77,.62,7.53,2.49,7.55,8.42,.01,4.86,0,9.72,0,14.58-.18,0-.35,0-.53,0Zm-48.59,11.88c-3.51,1.78-6.81,3.46-10.07,5.11,2.53,8.63,12.33,15.36,22.23,15.47,10.96,.12,20.82-6.24,23.73-15.48-3.36-1.68-6.76-3.38-10.12-5.06-6.81,11.48-19.39,11.12-25.77-.04Zm.99-15.18c.1-3.17-2.58-5.99-5.82-6.12-3.33-.13-6.05,2.32-6.23,5.61-.19,3.45,2.47,6.29,5.92,6.32,3.25,.02,6.03-2.61,6.14-5.81Zm35.94-.3c-.09-3.21-2.86-5.84-6.12-5.82-3.45,.02-6.12,2.85-5.93,6.29,.18,3.3,2.9,5.76,6.22,5.64,3.23-.12,5.93-2.94,5.84-6.11Z"/>
    <path class="cls-2" d="M356.29,241.6c-3.68-.82-7.05-1.58-10.77-2.41-1.21-1.97-2.49-4.52-4.21-6.72-4.35-5.54-10.81-6.13-17.15-6.89-8.53-1.02-17.07-1.97-25.57-3.19-1.08-.16-2.39-1.57-2.84-2.7-1.52-3.78-2.69-7.69-4.09-11.82-3.84,1.26-7.35,2.41-11.29,3.69,1.16,3.81,2.27,7.42,3.47,11.33-5.24,.9-10.21,1.99-15.23,2.56-9.01,1.02-15.44,5.15-18.08,13.86-3.43,.59-6.6,1.14-10.09,1.74-.77-4.79-1.87-9.64-2.28-14.55-.75-9.08,6.91-16.72,16.7-16.67,3.18,.02,5.08-.87,6.95-3.57,6.02-8.71,14.63-13.81,25.11-14.2,12.43-.46,24.99-.66,37.33,.63,21.8,2.28,37.84,26.39,32.59,47.59-.12,.47-.38,.91-.56,1.34Z"/>
    <path class="cls-2" d="M148.36,185.55v-35.51h107.38v35.51h-107.38Zm83.89-11.96h11.53v-11.47h-11.53v11.47Zm-23.91-11.67v11.62h11.42v-11.62h-11.42Zm-47.91,0v11.6h11.4v-11.6h-11.4Zm35.37,11.74v-11.62h-11.42v11.62h11.42Z"/>
    <path class="cls-2" d="M339.87,150.03h107.55v35.78c-1.21,0-2.53,0-3.84,0-32.8,0-65.6,0-98.4,0q-5.31,0-5.31-5.41c0-10.06,0-20.13,0-30.37Zm60.17,11.9v11.6h11.4v-11.6h-11.4Zm-23.96,0v11.6h11.4v-11.6h-11.4Zm-12.44,11.72v-11.57h-11.51v11.57h11.51Zm71.92-11.62h-11.6v11.53h11.6v-11.53Z"/>
    <path class="cls-2" d="M226.1,269.54h-77.62v-47.55h76.91c1.32,8.94,2.62,17.64,3.86,26.35,.13,.93,.21,2.01-.12,2.85q-3.26,8.52-3.04,18.35Zm-30.27-12.05v-23.59h-11.47v23.59h11.47Zm-23.96,0v-23.59h-11.48v23.59h11.48Z"/>
    <path class="cls-2" d="M447.45,269.47h-78.6c1.55-6.02,.61-11.54-1.97-16.86-.33-.69-.32-1.75-.07-2.5,3.09-9.14,3.86-18.46,2.14-28.18h78.5v47.54Zm-35.97-11.99v-23.46h-11.49v23.46h11.49Zm12.49-23.68v23.59h11.45v-23.59h-11.45Z"/>
    <path class="cls-2" d="M369.99,436.37v-22.89h11.53v-11.9h-11.77c.99-11.45-1.74-21.39-10.5-29.08-8.88-7.8-19.68-7.33-30.6-6.91,1.29-11.5,2.52-22.49,3.89-34.63,6.93,2.79,13.76,4.77,19.82,8.12,25.68,14.19,39.46,36.23,41.32,65.47,1.02,15.91-9.08,29.18-23.69,31.83Z"/>
    <path class="cls-2" d="M214.18,401.3v11.9h11.65v23.06c-12.07-1.45-22.92-12.87-23.51-26.66-1.66-38.9,27.24-71.2,61.13-77.7,1.24,11.02,2.48,22.01,3.78,33.58-3.3,0-6.47,0-9.64,0-18.85,.01-31.5,12.59-31.53,31.33,0,1.36,0,2.72,0,4.49h-11.9Z"/>
    <path class="cls-2" d="M239.28,461.42h116.76c-1.07,6.76-9.15,11.81-15.8,11.82-28.17,.07-56.35,.16-84.52-.06-7.58-.06-13.04-4.16-16.44-11.77Z"/>
    <path class="cls-2" d="M297.95,337.4c-3.76-5.03-7.39-9.57-10.59-14.39-.83-1.26-.3-3.42-.42-5.49,6.97,0,13.29-.05,19.6,.03,2.38,.03,3.67,3.23,2.04,5.55-3.32,4.74-6.89,9.3-10.63,14.31Z"/>
    <path class="cls-2" d="M249.94,251.83v23.33c-5.9,.6-11.41-4.05-11.95-10-.68-7.45,4.05-12.87,11.95-13.33Z"/>
    <path class="cls-2" d="M346,275.53v-23.64c6.64,.35,11.06,4.72,11.36,11.07,.32,6.89-3.82,11.63-11.36,12.57Z"/>
    <path class="cls-2" d="M278.58,357.63c-1.03-9.19-2.05-18.25-3.08-27.41,2.57,.53,9.18,8.47,13.82,16.2-3.57,3.73-7.06,7.37-10.74,11.21Z"/>
    <path class="cls-2" d="M306.66,345.95c3.82-5.06,8.15-10.78,12.47-16.51,.41,.24,.81,.48,1.22,.71-.47,4.52-.91,9.04-1.41,13.56-.51,4.57-1.07,9.14-1.55,13.2-3.3-3.38-6.81-6.97-10.72-10.97Z"/>
    <path class="cls-2" d="M289.58,365.18c2.8-2.81,5.57-5.6,8.2-8.24,2.56,2.66,5.36,5.58,7.91,8.24h-16.1Z"/>
    <path class="cls-1" d="M154.12,413.37c-10.04-.02-17.93-8.01-17.89-18.11,.04-10.01,8.07-17.86,18.2-17.79,9.84,.07,17.69,8.02,17.7,17.92,0,10.06-7.95,18-18.02,17.99Zm.1-23.91c-3.08-.02-5.96,2.83-5.99,5.92-.02,3.08,2.83,5.97,5.92,5.99,3.08,.02,5.97-2.84,5.99-5.92,.02-3.08-2.83-5.97-5.92-5.99Z"/>
    <path class="cls-1" d="M441.86,377.46c10.02,.04,17.87,8.06,17.8,18.19-.07,9.98-8.16,17.81-18.3,17.71-9.8-.09-17.63-8.1-17.61-18.01,.02-10.04,8-17.93,18.11-17.89Zm-.3,23.91c3.07,.09,6.01-2.71,6.1-5.81,.09-3.07-2.7-6.01-5.81-6.1-3.07-.09-6.01,2.7-6.1,5.81-.09,3.07,2.7,6.01,5.8,6.1Z"/>
    <path class="cls-1" d="M298.1,389.44c10.02,.04,17.87,8.06,17.8,18.19-.07,9.98-8.16,17.81-18.29,17.71-9.8-.09-17.63-8.1-17.61-18.01,.02-10.04,8-17.93,18.1-17.89Zm5.8,18.06c.07-3.08-2.74-6-5.84-6.07-3.08-.07-5.99,2.74-6.06,5.84-.07,3.07,2.74,6,5.84,6.07,3.07,.07,6-2.75,6.06-5.85Z"/>
    <path class="cls-1" d="M160.45,317.74h11.5v23.46h-11.5v-23.46Z"/>
    <path class="cls-1" d="M184.22,341.26v-23.39h11.63v23.39h-11.63Z"/>
    <path class="cls-1" d="M411.48,341.33h-11.49v-23.45h11.49v23.45Z"/>
    <path class="cls-1" d="M435.43,341.35h-11.46v-23.59h11.46v23.59Z"/>
    <path class="cls-1" d="M232.25,173.59v-11.47h11.53v11.47h-11.53Z"/>
    <path class="cls-1" d="M208.34,161.92h11.42v11.62h-11.42v-11.62Z"/>
    <path class="cls-1" d="M160.43,161.93h11.4v11.6h-11.4v-11.6Z"/>
    <path class="cls-1" d="M195.8,173.67h-11.42v-11.62h11.42v11.62Z"/>
    <path class="cls-1" d="M400.04,161.93h11.4v11.6h-11.4v-11.6Z"/>
    <path class="cls-1" d="M376.07,161.93h11.4v11.6h-11.4v-11.6Z"/>
    <path class="cls-1" d="M363.64,173.65h-11.51v-11.57h11.51v11.57Z"/>
    <path class="cls-1" d="M435.56,162.03v11.53h-11.6v-11.53h11.6Z"/>
    <path class="cls-1" d="M195.83,257.49h-11.47v-23.59h11.47v23.59Z"/>
    <path class="cls-1" d="M171.87,257.49h-11.48v-23.59h11.48v23.59Z"/>
    <path class="cls-1" d="M411.48,257.48h-11.49v-23.46h11.49v23.46Z"/>
    <path class="cls-1" d="M423.97,233.8h11.45v23.59h-11.45v-23.59Z"/>
    <path class="cls-2" d="M154.22,389.46c3.09,.02,5.94,2.91,5.92,5.99-.02,3.09-2.91,5.95-5.99,5.92-3.09-.02-5.94-2.91-5.92-5.99,.02-3.1,2.9-5.94,5.99-5.92Z"/>
    <path class="cls-2" d="M441.56,401.37c-3.1-.09-5.9-3.04-5.8-6.1,.09-3.11,3.03-5.9,6.1-5.81,3.1,.09,5.9,3.03,5.81,6.1-.09,3.1-3.04,5.9-6.1,5.81Z"/>
    <path class="cls-2" d="M303.9,407.5c-.07,3.1-2.99,5.92-6.06,5.85-3.1-.07-5.91-3-5.84-6.07,.07-3.1,2.98-5.91,6.06-5.84,3.1,.07,5.91,2.99,5.84,6.07Z"/>
  </g>
</svg>