<?xml version="1.0" encoding="UTF-8"?>
<svg id="Layer_1" data-name="Layer 1" xmlns="http://www.w3.org/2000/svg" viewBox="0 0 595.28 595.28">
  <defs>
    <style>
      .cls-1 {
        fill: #fff;
      }

      .cls-2 {
        fill: #31479d;
      }
    </style>
  </defs>
  <rect class="cls-2" y="-.23" width="595.28" height="595.28"/>
  <g>
    <path class="cls-2" d="M115.26,477.42h-9.73c0-128,0-256,0-384,128,0,256,0,384,0,0,72.36,0,144.72,0,217.08-2.19-3.88-5.25-6.72-9.43-7.51,.18-3.02,.46-5.61,.46-8.21,.04-19.84,.04-39.67,.01-59.51-.01-12.53-7.16-19.57-19.81-19.59-11.23-.02-22.45,0-33.68-.01-1.31,0-2.63-.13-3.95-.21-.09-.91-.17-1.39-.19-1.88-.29-9.17-3.2-16.85-12.01-21.19-2.38-1.18-3.13-3.02-3.15-5.73-.06-14.58,.62-29.26-.76-43.73-2.81-29.38-29.07-50.27-59.73-48.69-27.35,1.41-51.33,26.75-51.6,54.64-.12,12.47-.15,24.95,.04,37.42,.05,3.1-1.09,4.97-3.6,6.27-10.18,5.27-12.57,14.5-11.53,24.67,.58,5.72,3.18,11.24,4.88,16.88-16.5,6.66-24.55,19.53-24.25,38.11,.25,15.59,.04,31.19,.06,46.78,0,9.57,4.99,14.62,14.44,14.63,42.66,0,85.33,0,127.99,0,1,0,2.03,.11,2.99-.09,3.05-.64,4.99-2.55,4.82-5.71-.16-3.05-1.92-5.08-5.17-5.37-1.11-.1-2.24-.06-3.37-.06-11.23,0-22.46,.04-33.68-.03-5.56-.04-8.77-2.91-8.93-7.67h117.66c-1.28,5.45-4.06,7.67-9.62,7.69-11.73,.04-23.45,0-35.18,.03-4.22,.01-6.52,1.97-6.61,5.43-.09,3.67,2.26,5.77,6.66,5.79,12.23,.03,24.45,.19,36.67-.05,8.5-.17,14.57-4.47,18.08-12.27,.5-1.11,.99-2.22,1.48-3.33v159.44h-170.67c.65-.3,1.28-.65,1.95-.9,7.52-2.83,12.03-8.19,13.49-16.08,1.01-5.42-1.41-10.31-6.09-12.42-1.09-.49-2.25-.86-2.65-1.01,0-5.71,0-10.91,0-16.11,0-17.09,0-34.18,0-51.27,0-13.04-6.99-20.01-20.12-20.04-11.1-.03-22.2,0-33.3,0-1.32,0-2.64,0-4.07,0-.08-1.64-.07-2.76-.2-3.86-.76-6.45-1.97-13.44-7.93-16.57-6.9-3.63-8-8.65-7.18-15.23,.08-.61,.04-1.25-.01-1.87-.29-3.85-2.64-6.32-6.01-6.37-3.02-.04-5.45,2.52-5.67,6.25-.16,2.61,.13,5.25-.09,7.85-.65,7.82,2.95,13.27,9.58,16.72,5.29,2.75,5.46,7.39,5.84,12.54h-36.48c1.29-2.42,1.85-4.43,3.13-5.71,5.56-5.51,9.98-11.92,10.87-19.6,1.1-9.48,1.05-19.13,.94-28.7-.05-4.55-3.6-7.72-8.22-8.29-3.7-.46-7.46-.34-11.19-.6-6.04-.43-10.4-3.35-12.37-9.17-1.11-3.29-2.92-5.64-6.49-5.69-3.63-.05-5.47,2.4-6.56,5.62-2.04,6.04-6.48,8.89-12.68,9.22-2.74,.15-5.49,.14-8.23,.25-7.55,.32-11.11,3.95-11.22,11.49-.06,4.36,.1,8.73-.04,13.1-.41,12.97,3.17,24.3,13.1,33.22,2.49,2.24,1.8,7.35-.96,8.42-8.11,3.15-16.25,6.26-24.42,9.26-1,.37-2.57,.37-3.38-.18-5.62-3.79-7.22-18.02-2.7-22.95,.41-.45,.91-.88,1.46-1.14,8.73-4.19,12.44-11.05,11.17-20.66-.18-1.35-.05-2.74-.02-4.11,.23-11.83-.54-23.78,.94-35.45,2.12-16.74,12.07-28.52,27.74-34.7,15.77-6.22,30.68-3.6,43.88,6.91,10.76,8.56,15.99,20.07,16.33,33.84,.11,4.46,2.63,7.35,5.94,7.18,3.74-.19,6.05-3.17,5.72-7.72-.23-3.22-.6-6.45-1.19-9.63-5.1-27.59-30.4-47.05-58.75-45.24-27.59,1.76-50.91,25.34-51.98,53.05-.49,12.7-.34,25.44-.15,38.16,.06,3.76-1.08,6.14-4.41,7.73-5.33,2.54-8.2,7.07-9.75,12.58-2.86,10.13-1.06,19.44,5.03,28.03-.67,.34-1.21,.66-1.78,.89-15.35,6.41-23.39,18.49-23.4,35.2,0,15.59,.33,31.19-.14,46.77-.23,7.81,1.91,13.56,9.11,17.01Zm53.74-320.51h4.77c34.05,0,68.1,0,102.15-.02,1.72,0,3.9,.23,5.05-.68,1.64-1.3,3.21-3.44,3.55-5.43,.43-2.49-1.39-4.44-4.05-5.03-1.2-.27-2.47-.33-3.71-.33-37.04-.02-74.09-.02-111.13,0-6.48,0-8.16,1.71-8.17,8.29-.02,21.7-.01,43.4,0,65.11,0,1.36-.26,3.11,.45,4,1.35,1.7,3.27,3.94,5.04,4.02,1.77,.08,4-1.91,5.36-3.55,.86-1.03,.63-3.09,.64-4.68,.04-19.08,.02-38.17,.02-57.25v-4.42ZM426.8,414.68c-1.67,0-2.89,0-4.11,0-24.82,0-49.64-.01-74.46,.01-4.54,0-7.27,2.23-7.29,5.74-.02,3.54,2.63,5.73,7.26,5.74,27.56,.03,55.13,.03,82.7,0,5.5,0,7.38-1.94,7.42-7.52,.06-8.36,.02-16.71,.02-25.07,0-13.84,.04-27.69-.03-41.53-.02-4.26-2.36-6.95-5.69-6.97-3.38-.02-5.7,2.68-5.79,6.9-.07,3.24-.02,6.49-.02,9.73,0,17.45,0,34.91,0,52.98Z"/>
    <path class="cls-1" d="M489.53,317.98c-.49,1.11-.99,2.22-1.48,3.33-3.51,7.8-9.58,12.1-18.08,12.27-12.22,.24-24.45,.09-36.67,.05-4.4-.01-6.75-2.12-6.66-5.79,.09-3.46,2.39-5.41,6.61-5.43,11.73-.04,23.45,.01,35.18-.03,5.55-.02,8.34-2.24,9.62-7.69h-117.66c.16,4.76,3.38,7.63,8.93,7.67,11.23,.07,22.45,.03,33.68,.03,1.12,0,2.25-.04,3.37,.06,3.25,.3,5.01,2.32,5.17,5.37,.16,3.16-1.77,5.07-4.82,5.71-.96,.2-1.99,.09-2.99,.09-42.66,0-85.33,0-127.99,0-9.45,0-14.44-5.05-14.44-14.63-.01-15.59,.2-31.19-.06-46.78-.3-18.57,7.75-31.44,24.25-38.11-1.7-5.64-4.3-11.16-4.88-16.88-1.04-10.17,1.36-19.4,11.53-24.67,2.51-1.3,3.65-3.17,3.6-6.27-.2-12.47-.17-24.95-.04-37.42,.27-27.89,24.26-53.23,51.6-54.64,30.67-1.58,56.92,19.31,59.73,48.69,1.38,14.47,.7,29.14,.76,43.73,.01,2.71,.76,4.56,3.15,5.73,8.81,4.34,11.72,12.02,12.01,21.19,.02,.49,.1,.97,.19,1.88,1.33,.07,2.64,.2,3.95,.21,11.23,.02,22.45,0,33.68,.01,12.65,.02,19.8,7.07,19.81,19.59,.02,19.84,.02,39.67-.01,59.51,0,2.59-.28,5.18-.46,8.21,4.18,.79,7.23,3.63,9.43,7.51v7.49Zm-70.7-14.86v.02c14.21,0,28.42,.03,42.63-.01,5.73-.02,7.87-2.2,7.87-7.91,.01-19.94,.01-39.89,0-59.83,0-6.19-2.03-8.25-8.3-8.25-28.05-.01-56.09,0-84.14,.04-6.08,0-8.02,1.97-8.03,8.08-.02,19.94-.02,39.89,0,59.83,0,6.07,1.97,8.01,8.08,8.02,13.96,.03,27.92,0,41.88,0Zm-97.49-70.5c-11.86,4.66-23.65,9.24-35.38,13.98-1.79,.72-3.38,2.11-4.86,3.41-10.26,8.99-8.46,20.92-8.23,32.56h19.06c0-4.81-.1-9.29,.03-13.76,.12-3.92,2.57-6.37,5.96-6.28,3.22,.09,5.32,2.45,5.5,6.27,.05,1.12,.02,2.24,.02,3.37,0,15.46,.07,30.92-.06,46.38-.02,2.91,.76,3.93,3.78,3.81,5.6-.23,11.22-.07,16.83-.07,8.58,0,17.16,0,25.79,0-2.3-13.13-1.42-15.17,7.68-19.39v-56.1c-14.64,.89-26.73-3.13-36.13-14.19Zm3.54-68.41c0,6.21-.03,11.93,0,17.66,.09,13.05,9.4,24.07,21.89,25.98,14.06,2.15,27-5.02,30.24-18.23,1.97-8.03,1.56-16.64,2.25-25.36-10.89-.17-20.64-.72-27.64-9.4-7.17,8.78-16.83,9.28-26.75,9.35Zm-33.16,157.98v-27.44c-5.89,0-11.58-.07-17.25,.1-.6,.02-1.63,1.43-1.65,2.21-.13,7.46-.17,14.93,.04,22.38,.03,.94,1.63,2.57,2.56,2.62,5.31,.25,10.64,.12,16.3,.12Zm42.53-93c5.24,4.45,12.08,6.24,19.49,6.14,1.71-.02,3.84,.06,3.88-2.82,.07-4.99,2.18-9.09,5.87-12.44,.44-.4,.56-1.15,1.1-2.32-8.72,2.56-16.9,2.89-24.07,.51-2.14,3.74-4.08,7.12-6.26,10.93Z"/>
    <path class="cls-1" d="M115.26,477.42c-7.19-3.45-9.34-9.2-9.11-17.01,.47-15.58,.13-31.18,.14-46.77,0-16.71,8.04-28.78,23.4-35.2,.57-.24,1.11-.56,1.78-.89-6.08-8.59-7.89-17.91-5.03-28.03,1.56-5.51,4.42-10.04,9.75-12.58,3.33-1.59,4.47-3.97,4.41-7.73-.19-12.72-.35-25.46,.15-38.16,1.08-27.71,24.39-51.29,51.98-53.05,28.35-1.81,53.65,17.65,58.75,45.24,.59,3.18,.96,6.41,1.19,9.63,.32,4.55-1.99,7.53-5.72,7.72-3.31,.17-5.83-2.72-5.94-7.18-.34-13.76-5.57-25.28-16.33-33.84-13.2-10.5-28.11-13.13-43.88-6.91-15.67,6.19-25.63,17.96-27.74,34.7-1.48,11.67-.71,23.62-.94,35.45-.03,1.37-.16,2.76,.02,4.11,1.27,9.61-2.44,16.47-11.17,20.66-.55,.26-1.05,.69-1.46,1.14-4.52,4.93-2.92,19.16,2.7,22.95,.82,.55,2.39,.55,3.38,.18,8.17-3,16.3-6.11,24.42-9.26,2.76-1.07,3.45-6.18,.96-8.42-9.94-8.91-13.51-20.24-13.1-33.22,.14-4.36-.03-8.73,.04-13.1,.11-7.54,3.68-11.17,11.22-11.49,2.74-.12,5.49-.11,8.23-.25,6.2-.33,10.64-3.18,12.68-9.22,1.09-3.23,2.93-5.67,6.56-5.62,3.58,.05,5.38,2.4,6.49,5.69,1.97,5.82,6.33,8.74,12.37,9.17,3.73,.27,7.49,.15,11.19,.6,4.63,.57,8.17,3.74,8.22,8.29,.11,9.57,.15,19.22-.94,28.7-.89,7.68-5.31,14.09-10.87,19.6-1.29,1.27-1.84,3.29-3.13,5.71h36.48c-.38-5.16-.55-9.79-5.84-12.54-6.62-3.45-10.23-8.9-9.58-16.72,.22-2.6-.07-5.24,.09-7.85,.22-3.73,2.65-6.29,5.67-6.25,3.38,.04,5.72,2.52,6.01,6.37,.05,.62,.09,1.26,.01,1.87-.82,6.59,.28,11.61,7.18,15.23,5.95,3.13,7.17,10.12,7.93,16.57,.13,1.1,.12,2.22,.2,3.86,1.42,0,2.74,0,4.07,0,11.1,0,22.2-.02,33.3,0,13.13,.04,20.12,7.01,20.12,20.04,0,17.09,0,34.18,0,51.27,0,5.2,0,10.41,0,16.11,.4,.15,1.56,.51,2.65,1.01,4.67,2.11,7.09,6.99,6.09,12.42-1.46,7.88-5.97,13.25-13.49,16.08-.67,.25-1.3,.6-1.95,.9H115.26Zm148.94-106.42v.02c-13.96,0-27.92,0-41.88,0-6.75,0-8.72,1.93-8.73,8.65-.02,19.57-.03,39.14,0,58.71,0,6.52,2.03,8.57,8.45,8.58,27.92,.03,55.84,.05,83.76,.03,6.37,0,8.51-2.18,8.51-8.53,.01-19.69,.01-39.39,0-59.08,0-6.17-2.16-8.37-8.24-8.38-13.96-.03-27.92,0-41.88,0Zm-115.96,95h46.63c-2.73-12.05-1.41-15.15,7.52-19.15v-56.38c-14.73,1.02-26.77-3.08-36.21-14.04-11.63,4.54-23.32,8.76-34.71,13.66-7.12,3.06-11.86,8.96-13.08,16.67-1.02,6.45-.82,13.1-1.17,19.94h19.74c0-4.71-.27-9.21,.12-13.65,.18-1.99,1.21-4.51,2.72-5.65,3.77-2.86,8.4,.21,8.42,5.42,.05,17.58,.02,35.15,.02,53.17Zm74.73-157.77c-9.67-.35-19.43-.84-26.44-9.49-7.07,8.75-16.81,9.05-26.65,9.61,0,6.52-.16,12.72,.03,18.92,.42,13.28,11.22,23.96,25.07,25.01,12.84,.97,26.25-8.97,27.82-21.56,.9-7.21,.16-14.62,.16-22.49Zm99.85,150.31h-117.55c.44,5.07,3.57,7.64,9.23,7.65,21.32,.02,42.64,.01,63.96,.02,11.72,0,23.44,.03,35.16-.01,5.33-.02,8.25-2.41,9.2-7.65Zm-205.16-19.93c0,8.7-.04,17.01,.07,25.33,0,.7,1.05,1.96,1.64,1.98,5.79,.15,11.59,.09,17.32,.09v-27.4h-19.04Zm91.36-76.15c-8.4,1.62-16.45,2.02-24.8-.73,.05,4.96-1.99,8.27-6.15,10.4,6.37,5.45,13.4,7.29,21.08,7.01,1.01-.04,2.79-.95,2.85-1.58,.52-5.79,2.81-10.68,7.03-15.09Z"/>
    <path class="cls-1" d="M169,156.9v4.42c0,19.08,.01,38.17-.02,57.25,0,1.6,.22,3.65-.64,4.68-1.36,1.64-3.59,3.63-5.36,3.55-1.77-.08-3.69-2.32-5.04-4.02-.71-.89-.45-2.64-.45-4-.02-21.7-.02-43.4,0-65.11,0-6.57,1.69-8.28,8.17-8.29,37.04-.01,74.09,0,111.13,0,1.24,0,2.51,.06,3.71,.33,2.65,.59,4.48,2.54,4.05,5.03-.34,2-1.91,4.13-3.55,5.43-1.15,.91-3.33,.67-5.05,.68-34.05,.03-68.1,.02-102.15,.02h-4.77Z"/>
    <path class="cls-1" d="M426.8,414.68c0-18.07,0-35.53,0-52.98,0-3.24-.05-6.49,.02-9.73,.09-4.22,2.4-6.92,5.79-6.9,3.34,.02,5.67,2.71,5.69,6.97,.06,13.84,.03,27.69,.03,41.53,0,8.36,.04,16.71-.02,25.07-.04,5.58-1.92,7.52-7.42,7.52-27.56,.04-55.13,.03-82.7,0-4.62,0-7.28-2.2-7.26-5.74,.02-3.51,2.75-5.74,7.29-5.74,24.82-.03,49.64-.01,74.46-.01,1.22,0,2.44,0,4.11,0Z"/>
    <path class="cls-2" d="M418.82,303.12c-13.96,0-27.92,.02-41.88,0-6.11-.01-8.07-1.95-8.08-8.02-.03-19.94-.03-39.89,0-59.83,0-6.12,1.95-8.08,8.03-8.08,28.05-.03,56.09-.05,84.14-.04,6.26,0,8.29,2.06,8.3,8.25,0,19.94,.01,39.89,0,59.83,0,5.7-2.14,7.89-7.87,7.91-14.21,.04-28.42,.01-42.63,.01v-.02Zm.52-43.54c-1.12,0-2.24-.04-3.36,0-3.39,.16-5.78,2.47-5.79,5.54,0,2.95,2.19,5.38,5.38,5.61,2.6,.19,5.24,.21,7.83-.03,3.11-.3,5.2-2.92,4.94-5.93-.27-3.18-2.08-4.95-5.27-5.18-1.24-.09-2.49-.01-3.73-.03Z"/>
    <path class="cls-2" d="M321.34,232.62c9.4,11.06,21.49,15.08,36.13,14.19v56.1c-9.1,4.21-9.98,6.25-7.68,19.39-8.63,0-17.21,0-25.79,0-5.61,0-11.23-.17-16.83,.07-3.01,.12-3.8-.89-3.78-3.81,.13-15.46,.06-30.92,.06-46.38,0-1.12,.03-2.25-.02-3.37-.19-3.82-2.28-6.19-5.5-6.27-3.39-.09-5.84,2.35-5.96,6.28-.13,4.47-.03,8.95-.03,13.76h-19.06c-.24-11.64-2.03-23.57,8.23-32.56,1.49-1.3,3.07-2.68,4.86-3.41,11.73-4.74,23.52-9.32,35.38-13.98Z"/>
    <path class="cls-2" d="M324.88,164.21c9.92-.07,19.58-.57,26.75-9.35,7,8.68,16.75,9.23,27.64,9.4-.69,8.72-.29,17.33-2.25,25.36-3.24,13.21-16.18,20.38-30.24,18.23-12.49-1.91-21.8-12.93-21.89-25.98-.04-5.72,0-11.44,0-17.66Z"/>
    <path class="cls-2" d="M291.72,322.19c-5.66,0-10.99,.13-16.3-.12-.93-.04-2.53-1.68-2.56-2.62-.21-7.46-.17-14.92-.04-22.38,.01-.78,1.05-2.2,1.65-2.21,5.68-.17,11.36-.1,17.25-.1v27.44Z"/>
    <path class="cls-2" d="M334.25,229.19c2.18-3.81,4.12-7.2,6.26-10.93,7.18,2.38,15.35,2.05,24.07-.51-.54,1.17-.66,1.92-1.1,2.32-3.69,3.34-5.8,7.45-5.87,12.44-.04,2.88-2.17,2.79-3.88,2.82-7.41,.11-14.24-1.69-19.49-6.14Z"/>
    <path class="cls-2" d="M264.2,370.99c13.96,0,27.92-.02,41.88,0,6.08,.01,8.23,2.21,8.24,8.38,.02,19.69,.01,39.39,0,59.08,0,6.35-2.14,8.52-8.51,8.53-27.92,.01-55.84,0-83.76-.03-6.42,0-8.44-2.06-8.45-8.58-.03-19.57-.03-39.14,0-58.71,0-6.72,1.98-8.65,8.73-8.65,13.96-.01,27.92,0,41.88,0v-.02Zm-.27,43.55c1.24,0,2.49,.06,3.73-.01,3.29-.18,5.47-2.25,5.6-5.26,.14-3.22-1.99-5.68-5.37-5.9-2.47-.16-4.98-.17-7.45,.01-3.19,.23-5.27,2.61-5.25,5.65,.03,3.06,2.16,5.26,5.38,5.5,1.11,.08,2.24,.01,3.35,.02Z"/>
    <path class="cls-2" d="M148.24,465.99c0-18.02,.03-35.6-.02-53.17-.02-5.21-4.65-8.28-8.42-5.42-1.51,1.14-2.54,3.66-2.72,5.65-.4,4.44-.12,8.94-.12,13.65h-19.74c.35-6.84,.15-13.49,1.17-19.94,1.22-7.71,5.97-13.61,13.08-16.67,11.4-4.91,23.09-9.13,34.71-13.66,9.43,10.96,21.47,15.07,36.21,14.04v56.38c-8.93,4-10.25,7.1-7.52,19.15h-46.63Z"/>
    <path class="cls-2" d="M222.97,308.22c0,7.87,.74,15.28-.16,22.49-1.57,12.59-14.98,22.53-27.82,21.56-13.85-1.05-24.65-11.73-25.07-25.01-.2-6.19-.03-12.4-.03-18.92,9.84-.56,19.57-.86,26.65-9.61,7.01,8.65,16.77,9.14,26.44,9.49Z"/>
    <path class="cls-2" d="M322.81,458.53c-.94,5.25-3.87,7.64-9.2,7.65-11.72,.04-23.44,.01-35.16,.01-21.32,0-42.64,0-63.96-.02-5.65,0-8.79-2.57-9.23-7.65h117.55Z"/>
    <path class="cls-2" d="M117.65,438.6h19.04v27.4c-5.74,0-11.53,.06-17.32-.09-.59-.02-1.63-1.28-1.64-1.98-.11-8.31-.07-16.63-.07-25.33Z"/>
    <path class="cls-2" d="M209.02,362.45c-4.22,4.42-6.51,9.3-7.03,15.09-.06,.63-1.84,1.54-2.85,1.58-7.68,.28-14.71-1.56-21.08-7.01,4.16-2.13,6.21-5.44,6.15-10.4,8.35,2.75,16.41,2.35,24.8,.73Z"/>
    <path class="cls-1" d="M419.34,259.59c1.24,0,2.49-.07,3.73,.02,3.2,.23,5,2,5.27,5.18,.26,3.01-1.83,5.63-4.94,5.93-2.59,.25-5.23,.22-7.83,.03-3.19-.23-5.38-2.67-5.38-5.61,0-3.07,2.39-5.38,5.79-5.54,1.12-.05,2.24,0,3.36,0Z"/>
    <path class="cls-1" d="M263.93,414.55c-1.12,0-2.24,.07-3.35-.01-3.23-.23-5.36-2.44-5.38-5.5-.03-3.04,2.06-5.42,5.25-5.65,2.47-.18,4.98-.17,7.45-.01,3.38,.22,5.51,2.68,5.37,5.9-.13,3.02-2.31,5.09-5.6,5.26-1.24,.07-2.48,.01-3.73,0Z"/>
  </g>
</svg>