<?xml version="1.0" encoding="UTF-8"?>
<svg id="Layer_1" data-name="Layer 1" xmlns="http://www.w3.org/2000/svg" viewBox="0 0 595.28 595.28">
  <defs>
    <style>
      .cls-1 {
        fill: #fff;
      }

      .cls-2 {
        fill: #31479d;
      }
    </style>
  </defs>
  <rect class="cls-2" y="0" width="595.28" height="595.28"/>
  <g>
    <path class="cls-1" d="M245.61,329.77c4.79,1.62,9.02,3.25,13.38,4.45,2.85,.79,4.18,2.04,3.81,5.16-.3,2.58-.06,5.22-.06,7.2,6.2,1.34,11.94,2.66,17.73,3.77,1.04,.2,2.27-.38,3.36-.75,12.92-4.27,25.8-8.64,38.75-12.81,2.63-.85,3.38-2.07,3.71-4.87,.84-7.19-1.39-11.95-7.27-16.47-11.5-8.84-19.64-21.16-24.11-34.95-.85-2.61-2.04-3.69-4.75-4.27-15.97-3.44-27.34-17.54-27.38-33.8-.06-22.63-.11-45.26,.01-67.88,.24-43.29,35.24-85.11,77.86-92.67,34.23-6.07,53.1,.56,81.38,11.94-22.14-8.29,23.56,8.87,28.68,10.8,19.28,7.29,23.28,39.66,23.32,60.23,.05,25.67,.04,51.35,0,77.03-.03,16.87-11.35,30.79-27.69,34.59-1.58,.37-3.53,2.03-4.06,3.54-5.67,16.12-15.08,29.44-29.11,39.25-2.79,1.95-2.52,4.27-2.52,6.84q-.01,9.39,8.95,12.36c20.67,6.91,41.34,13.78,61.98,20.76,21.99,7.43,34.72,25.32,34.73,48.57,0,22,0,44.01,0,66.72-1.81,0-3.49,0-5.17,0-72.18,0-144.37,.02-216.55-.06-3.2,0-5.1,.64-6.85,3.76-3.84,6.88-10.1,10.38-18.12,10.39-12.32,0-24.65,0-36.97,0h-4.92v13.97h13.62v13.86h-112.12v-13.6h13.48v-14.23c-4.62,0-9.26,0-13.9,0-9.24,0-18.49,.03-27.73-.01-12.83-.06-22.16-9.83-21.38-22.89,1.87-31.37,3.11-62.84,.07-94.12-1.31-13.51,8.2-23.75,21.34-23.82,2.04-.01,4.07,0,6.7,0,0-2.67,.22-5.13-.05-7.54-.39-3.44,.59-5.32,4.24-6.17,4.24-.99,8.32-2.71,12.89-4.26-2.29-4.65-4.34-9.13-6.69-13.45-1.5-2.75-.68-4.09,3.12-6.88,7.27-5.32,13.68-11.73,18.96-19.03,2.59-3.58,3.99-4.14,6.6-2.72,4.22,2.3,8.59,4.33,13.36,6.7,1.66-4.91,3.37-9.51,4.76-14.21,.52-1.77,2.15-2.97,4-2.95,10.86,.11,21.72,.12,32.57,0,2.34-.03,3.32,.81,3.97,2.98,1.37,4.61,3.04,9.14,4.73,14.16,4.65-2.28,9.13-4.33,13.45-6.68,2.38-1.29,3.7-.91,5.85,1.76,6.16,7.67,12.99,14.8,20.76,20.83,2.93,2.28,3.32,3.63,2,6.05-2.3,4.22-4.33,8.6-6.72,13.41Zm59.72-122.7c-.09,1.07-.22,1.92-.22,2.77,0,15.98-.08,31.96,.06,47.94,.03,3.63,.58,7.31,1.29,10.88,6.66,33.43,38.9,54.68,70.93,50.14,26.76-3.79,50.97-26.74,53.3-53.65,1.43-16.6,.76-33.37,1.02-50.07,.04-2.6,0-5.2,0-7.74-.87-.23-1.27-.4-1.69-.43-22.23-1.76-42.17-9.28-59.36-23.63-2-1.67-3.09-.86-4.87,.3-7.59,4.93-15.06,10.15-23.09,14.27-11.57,5.92-24.29,8.13-37.36,9.22Zm196.89,253.21c0-1.64,0-2.92,0-4.21,0-16.14,.03-32.28,0-48.43-.03-16.77-9.13-29.54-24.98-34.95-10.1-3.45-20.31-6.6-30.37-10.17-2.97-1.05-4.35-.45-5.96,2.16-10.83,17.59-21.83,35.08-32.78,52.6-.99,1.58-2.02,3.13-3.98,6.17-4.04-4.71-7.59-8.86-11.67-13.62-1.08,4.06-2.83,7.13-2.49,9.94,1.6,13.49,3.75,26.92,5.71,40.39h50.34v-48.8h14.08v48.92h42.1Zm-408.48-14.33h183.02c0-25.74,.04-51.12-.04-76.49-.01-4.49-2.73-7.23-6.99-7.51-2.15-.14-4.31-.02-6.89-.02,0,3.06-.22,5.69,.06,8.26,.32,3.05-.83,4.4-3.78,5.2-4.43,1.21-8.72,2.94-13.32,4.54,2.32,4.66,4.3,8.89,6.51,13,1.45,2.69,1.21,4.3-2.88,7.1-7.37,5.03-13.66,11.48-18.81,18.76-2.78,3.93-4.2,4.68-6.94,3.18-4.22-2.3-8.59-4.33-13.31-6.67-1.55,4.54-3.22,8.72-4.39,13.04-.82,3.03-2.14,4.19-5.44,4.11-10.27-.25-20.54-.19-30.81-.07-2.72,.03-4.2-.58-4.97-3.49-1.21-4.56-3-8.96-4.62-13.64-4.88,2.42-9.14,4.72-13.57,6.59-1.21,.51-3.51,.27-4.39-.58-7.93-7.63-15.71-15.41-23.35-23.33-.86-.9-1.17-3.19-.67-4.38,1.92-4.56,4.28-8.93,6.64-13.69-5.85-2.01-11.35-3.89-17.21-5.91v-12.05c-2.6,0-4.78-.13-6.95,.03-4.1,.29-6.86,2.94-6.87,7.14-.09,25.52-.04,51.04-.04,76.89Zm53.26-40.34c4.35-2.16,8.37-4.27,12.49-6.15,1.22-.56,2.86-.92,4.1-.58,4.8,1.31,8.86,3.43,9.62,9.24,.33,2.56,1.42,5.09,2.54,7.45,.49,1.04,1.86,2.25,2.94,2.36q14.85,1.53,19.55-12.34c.05-.14,.07-.29,.11-.42,1.62-4.67,8.74-7.71,13.14-5.56,4.05,1.97,8.07,3.98,11.33,5.59,4.58-4.44,8.75-8.48,13.01-12.62-1.92-3.88-4.02-7.91-5.9-12.04-.55-1.22-.92-2.87-.58-4.1,1.32-4.79,3.45-8.87,9.25-9.62,2.42-.31,4.67-1.74,7.08-2.28,2.39-.53,2.95-1.84,2.86-4.06-.18-4.68,1.45-10.43-.7-13.76-1.97-3.04-7.96-3.47-12.18-5.05-.14-.05-.29-.05-.43-.1-4.09-1.47-7.13-8.7-5.31-12.63,1.95-4.21,6.05-8.88,5.28-12.52-.84-4-6.16-7.06-9.54-10.51-.61-.62-1.28-1.19-2.09-1.93-4.07,2.02-8.06,4.12-12.17,5.96-1.36,.61-3.15,1.09-4.5,.72-4.8-1.29-8.85-3.45-9.61-9.26-.33-2.56-1.41-5.09-2.53-7.45-.49-1.04-1.88-2.22-2.96-2.33q-14.87-1.46-19.52,12.37c-.09,.28-.11,.58-.21,.85-1.46,4.05-8.77,7.13-12.66,5.27-4.19-2.01-8.33-4.11-11.7-5.78-4.58,4.46-8.74,8.52-13.01,12.67,1.64,3.33,3.18,7,5.21,10.38,1.69,2.82,1.4,5.2,.44,8.23-1.35,4.22-4,6.08-7.99,7-2.55,.59-4.95,1.86-7.5,2.43-2.4,.53-2.97,1.81-2.88,4.03,.18,4.69-1.46,10.43,.7,13.76,1.97,3.03,7.96,3.46,12.18,5.03,.14,.05,.29,.04,.43,.09,4.06,1.44,7.17,8.76,5.32,12.64-2,4.19-4.1,8.34-6.12,12.44,4.24,4.26,8.26,8.31,12.5,12.58Zm143.93-43.19v97.84h50.22c1.5-10.67,2.82-21.25,4.52-31.77,.98-6.07,2.1-12.01-2.18-18.37-3.67,4.18-7.22,8.23-11.17,12.73-1.6-2.45-2.63-3.99-3.62-5.56-10.97-17.5-21.93-35-32.87-52.52-1.3-2.08-2.44-4.32-4.89-2.35Zm16.73-5.63c9.04,14.46,17.86,28.56,26.43,42.25,7.89-7.91,15.63-15.65,23.62-23.66-8.2-8.21-16.64-16.71-25.19-25.11-.65-.64-2.17-.98-3.06-.7-7.2,2.27-14.35,4.72-21.8,7.22Zm94.88,42.59c8.84-14.15,17.64-28.24,26.61-42.6-3.34-1.12-6.23-2.12-9.14-3.06-4.72-1.53-9.88-4.93-14.05-3.98-4.16,.95-7.34,6.26-10.92,9.69-2.01,1.93-3.9,3.98-5.93,5.89-3.58,3.38-7.23,6.7-10.71,9.92,8.48,8.48,16.13,16.14,24.13,24.14Zm-34.13-33.41c8.13-8.21,15.4-16.08,23.27-23.3,4.29-3.94,5.69-8.1,4.35-13.83-18.37,6.68-36.85,6.76-56.18-.38,.61,3.93-.02,8.13,1.79,10.14,8.41,9.32,17.5,18.02,26.77,27.37Zm-155.52,136.36v-13.17h-55.27v13.35c17.73,0,35.14,0,52.55,0,.85,0,1.7-.11,2.72-.17Zm142.81-42.21h25.39c-1.67-11.73-3.31-23.18-4.91-34.45h-15.59c-1.64,11.54-3.24,22.8-4.89,34.45Zm12.83-74.44c-4.23,4.38-7.78,7.88-11.09,11.59-.81,.9-1.36,2.62-1.12,3.78,2.01,9.93,2.14,9.97,11.99,9.97,9.67,0,10.65-.78,12.25-10.22,.17-.99-.12-2.4-.76-3.11-3.5-3.92-7.17-7.68-11.27-12Zm-78.06-124.53v-38.25c-8.5,3.45-13.67,11.05-13.55,19.52,.12,8.39,5.53,15.95,13.55,18.73Zm155.7-.03c8.12-2.57,13.71-10.44,13.7-19.04,0-7.78-5.74-17.36-13.7-18.95v37.99Z"/>
    <path class="cls-2" d="M70.66,70.61c150.56,0,301.13,0,451.69,0,0,150.56,0,301.13,0,451.69-150.56,0-301.13,0-451.69,0,0-150.56,0-301.13,0-451.69ZM244.59,328.24c2.39-4.81,4.42-9.18,6.72-13.41,1.09-2,1.02-3.26-.68-4.92-7.76-7.59-15.44-15.27-23.02-23.04-1.64-1.68-2.9-1.79-4.92-.69-4.32,2.35-8.81,4.4-13.45,6.68-1.7-5.01-3.36-9.54-4.73-14.16-.65-2.17-1.63-3.01-3.97-2.98-10.86,.12-21.71,.11-32.57,0-2.31-.02-3.35,.74-4,2.95-1.39,4.7-3.09,9.3-4.76,14.21-4.77-2.37-9.14-4.4-13.36-6.7-1.99-1.08-3.28-1.01-4.93,.68-7.59,7.76-15.27,15.44-23.03,23.03-1.67,1.63-1.82,2.89-.72,4.92,2.35,4.32,4.4,8.81,6.69,13.45-4.58,1.55-8.65,3.27-12.89,4.26-3.66,.85-4.64,2.73-4.24,6.17,.27,2.4,.05,4.86,.05,7.54-2.63,0-4.67,0-6.7,0-12.32,.06-21.45,9.07-21.46,21.33-.03,32.72-.04,65.43,0,98.15,.01,12.28,9.11,21.29,21.43,21.35,9.24,.04,18.49,.01,27.73,.01,4.64,0,9.28,0,13.9,0v14.23h-13.48v13.6h112.12v-13.86h-13.62v-13.97h4.92c12.32,0,24.65,0,36.97,0,8.02,0,14.28-3.51,18.12-10.39,1.74-3.12,3.65-3.76,6.85-3.76,72.18,.07,144.37,.06,216.55,.06,1.68,0,3.36,0,5.17,0,0-22.71,0-44.72,0-66.72,0-23.25-12.74-41.13-34.73-48.57-20.64-6.98-41.32-13.85-61.98-20.76q-8.95-2.99-8.95-12.36c0-2.57-.27-4.89,2.52-6.84,14.03-9.81,23.44-23.13,29.11-39.25,.53-1.5,2.48-3.17,4.06-3.54,16.34-3.8,27.66-17.72,27.69-34.59,.05-25.67,.06-51.35,0-77.03-.04-20.57,.75-22.76-2.73-38.45-2.21,3.57-2.55-4.09-8.85-9.02-33.02-26.38-87.57-41.58-121.81-35.51-43.39,7.69-77.61,48.28-77.86,92.33-.13,22.74-.08,45.48-.02,68.22,.04,16.26,11.42,30.36,27.38,33.8,2.69,.58,3.88,1.64,4.73,4.22,4.55,13.82,12.03,25.99,23.7,34.68,6.2,4.62,8.55,9.43,7.69,16.79-.33,2.8-1.08,4.02-3.71,4.87-12.95,4.17-25.84,8.54-38.75,12.81-1.09,.36-2.33,.94-3.36,.75-5.78-1.11-11.53-2.43-17.73-3.77,0-1.98-.24-4.62,.06-7.2,.37-3.12-.96-4.37-3.81-5.16-4.35-1.2-8.59-2.83-13.38-4.45Z"/>
    <path class="cls-2" d="M305.34,207.08c13.07-1.09,25.8-3.3,37.36-9.22,8.03-4.11,15.5-9.34,23.09-14.27,1.78-1.16,2.88-1.96,4.87-.3,17.19,14.35,37.14,21.87,59.36,23.63,.41,.03,.82,.2,1.69,.43,0,2.54,.03,5.14,0,7.74-.26,16.7,.42,33.47-1.02,50.07-2.33,26.91-26.54,49.86-53.3,53.65-32.03,4.53-64.27-16.71-70.93-50.14-.71-3.58-1.26-7.25-1.29-10.88-.14-15.98-.07-31.96-.06-47.94,0-.85,.13-1.7,.22-2.77Zm34.66,63.27c.8,11.41,5.57,19.85,15.37,24.92,10.11,5.24,20.15,4.5,29.46-2.08,7.73-5.46,11.62-13.08,11.81-22.79h-13.88c-2.48,9.17-6.95,13.56-13.92,13.84-6.98,.28-11.38-3.77-15.08-13.89h-13.75Zm-6.93-35.24c4.02,.06,7.24-3.1,7.24-7.12,0-4.02-3.2-7.17-7.23-7.12-3.87,.05-6.9,3.03-7.01,6.88-.12,4.03,2.99,7.29,7,7.36Zm70.44,0c4.02,.06,7.24-3.1,7.24-7.12,0-4.02-3.2-7.17-7.23-7.12-3.87,.05-6.9,3.03-7.01,6.88-.12,4.03,2.99,7.29,7,7.36Z"/>
    <path class="cls-2" d="M502.23,460.28h-42.1v-48.92h-14.08v48.8h-50.34c-1.96-13.47-4.12-26.9-5.71-40.39-.33-2.82,1.41-5.88,2.49-9.94,4.07,4.75,7.63,8.9,11.67,13.62,1.97-3.04,3-4.59,3.98-6.17,10.95-17.52,21.95-35.01,32.78-52.6,1.6-2.6,2.99-3.21,5.96-2.16,10.06,3.57,20.27,6.72,30.37,10.17,15.85,5.42,24.94,18.18,24.98,34.95,.03,16.14,0,32.28,0,48.43,0,1.29,0,2.57,0,4.21Z"/>
    <path class="cls-2" d="M93.74,445.95c0-25.85-.04-51.37,.04-76.89,.01-4.2,2.77-6.85,6.87-7.14,2.16-.15,4.35-.03,6.95-.03v12.05c5.86,2.01,11.36,3.9,17.21,5.91-2.35,4.76-4.71,9.14-6.64,13.69-.5,1.19-.19,3.49,.67,4.38,7.64,7.92,15.42,15.71,23.35,23.33,.88,.85,3.18,1.09,4.39,.58,4.44-1.87,8.69-4.17,13.57-6.59,1.62,4.68,3.41,9.09,4.62,13.64,.77,2.91,2.25,3.52,4.97,3.49,10.27-.12,20.55-.18,30.81,.07,3.29,.08,4.62-1.08,5.44-4.11,1.16-4.32,2.83-8.5,4.39-13.04,4.72,2.34,9.09,4.37,13.31,6.67,2.01,1.09,3.3,.99,4.95-.69,7.6-7.76,15.26-15.45,23.04-23.02,1.88-1.83,1.76-3.26,.64-5.33-2.22-4.11-4.2-8.34-6.51-13,4.6-1.6,8.89-3.34,13.32-4.54,2.95-.8,4.1-2.15,3.78-5.2-.27-2.58-.06-5.2-.06-8.26,2.58,0,4.74-.12,6.89,.02,4.26,.28,6.97,3.02,6.99,7.51,.08,25.38,.04,50.75,.04,76.49H93.74Z"/>
    <path class="cls-2" d="M147,405.61c-4.24-4.27-8.27-8.31-12.5-12.58,2.02-4.1,4.12-8.25,6.12-12.44,1.86-3.88-1.26-11.2-5.32-12.64-.14-.05-.29-.04-.43-.09-4.22-1.57-10.22-1.99-12.18-5.03-2.16-3.33-.52-9.07-.7-13.76-.09-2.23,.48-3.5,2.88-4.03,2.55-.56,4.95-1.84,7.5-2.43,4-.92,6.65-2.78,7.99-7,.97-3.03,1.25-5.4-.44-8.23-2.03-3.38-3.57-7.05-5.21-10.38,4.26-4.15,8.42-8.21,13.01-12.67,3.37,1.67,7.52,3.77,11.7,5.78,3.89,1.86,11.2-1.22,12.66-5.27,.1-.27,.11-.58,.21-.85q4.65-13.78,19.52-12.37c1.08,.11,2.47,1.29,2.96,2.33,1.12,2.36,2.2,4.89,2.53,7.45,.76,5.81,4.81,7.97,9.61,9.26,1.35,.36,3.14-.11,4.5-.72,4.11-1.85,8.11-3.95,12.17-5.96,.81,.75,1.48,1.31,2.09,1.93,3.38,3.46,8.7,6.52,9.54,10.51,.77,3.64-3.33,8.3-5.28,12.52-1.82,3.93,1.23,11.16,5.31,12.63,.14,.05,.29,.05,.43,.1,4.22,1.58,10.21,2.01,12.18,5.05,2.16,3.33,.52,9.07,.7,13.76,.09,2.22-.47,3.53-2.86,4.06-2.41,.54-4.66,1.97-7.08,2.28-5.8,.75-7.93,4.83-9.25,9.62-.34,1.23,.03,2.88,.58,4.1,1.87,4.13,3.97,8.16,5.9,12.04-4.26,4.13-8.43,8.18-13.01,12.62-3.26-1.61-7.29-3.63-11.33-5.59-4.4-2.14-11.52,.89-13.14,5.56-.05,.14-.07,.29-.11,.42q-4.69,13.82-19.55,12.34c-1.08-.11-2.44-1.32-2.94-2.36-1.12-2.36-2.2-4.89-2.54-7.45-.76-5.82-4.82-7.94-9.62-9.24-1.24-.34-2.88,.02-4.1,.58-4.13,1.88-8.15,3.99-12.49,6.15Zm37.99-15.46c19.8,.04,35.61-15.58,35.63-35.21,.03-19.77-15.62-35.5-35.32-35.52-19.51-.02-35.37,15.65-35.41,34.98-.04,19.84,15.53,35.7,35.1,35.75Z"/>
    <path class="cls-2" d="M290.93,362.42c2.46-1.96,3.6,.28,4.89,2.35,10.94,17.51,21.91,35.02,32.87,52.52,.99,1.57,2.02,3.11,3.62,5.56,3.95-4.51,7.51-8.55,11.17-12.73,4.28,6.37,3.16,12.3,2.18,18.37-1.7,10.52-3.02,21.1-4.52,31.77h-50.22v-97.84Z"/>
    <path class="cls-2" d="M307.65,356.79c7.45-2.49,14.6-4.94,21.8-7.22,.88-.28,2.4,.06,3.06,.7,8.55,8.4,16.99,16.9,25.19,25.11-8,8.01-15.73,15.76-23.62,23.66-8.57-13.7-17.38-27.79-26.43-42.25Z"/>
    <path class="cls-2" d="M402.54,399.37c-8-8-15.65-15.66-24.13-24.14,3.48-3.22,7.13-6.54,10.71-9.92,2.02-1.91,3.92-3.96,5.93-5.89,3.58-3.43,6.76-8.74,10.92-9.69,4.16-.95,9.33,2.45,14.05,3.98,2.91,.94,5.8,1.94,9.14,3.06-8.97,14.36-17.78,28.45-26.61,42.6Z"/>
    <path class="cls-2" d="M368.41,365.96c-9.27-9.35-18.36-18.06-26.77-27.37-1.81-2-1.18-6.21-1.79-10.14,19.33,7.15,37.82,7.06,56.18,.38,1.34,5.73-.05,9.89-4.35,13.83-7.87,7.22-15.14,15.09-23.27,23.3Z"/>
    <path class="cls-2" d="M212.89,502.32c-1.02,.07-1.87,.17-2.72,.17-17.41,0-34.82,0-52.55,0v-13.35h55.27v13.17Z"/>
    <path class="cls-2" d="M355.7,460.11c1.65-11.65,3.25-22.92,4.89-34.45h15.59c1.61,11.27,3.24,22.72,4.91,34.45h-25.39Z"/>
    <path class="cls-2" d="M368.54,385.66c4.1,4.33,7.77,8.09,11.27,12,.64,.71,.92,2.13,.76,3.11-1.59,9.44-2.57,10.21-12.25,10.22-9.85,0-9.98-.04-11.99-9.97-.23-1.16,.32-2.87,1.12-3.78,3.31-3.71,6.86-7.22,11.09-11.59Z"/>
    <path class="cls-2" d="M290.48,261.13c-8.02-2.78-13.43-10.34-13.55-18.73-.12-8.48,5.05-16.08,13.55-19.52v38.25Z"/>
    <path class="cls-2" d="M446.18,261.1v-37.99c7.96,1.59,13.7,11.18,13.7,18.95,0,8.6-5.58,16.47-13.7,19.04Z"/>
    <path class="cls-1" d="M185,390.14c-19.56-.04-35.14-15.9-35.1-35.75,.04-19.33,15.9-35,35.41-34.98,19.7,.02,35.34,15.75,35.32,35.52-.03,19.63-15.84,35.25-35.63,35.21Zm.17-56.49c-11.39,.08-21.1,9.83-21,21.07,.11,11.62,9.93,21.31,21.41,21.12,11.34-.19,20.82-9.91,20.79-21.31-.03-11.25-9.88-20.95-21.2-20.87Z"/>
    <path class="cls-2" d="M185.17,333.66c11.32-.08,21.17,9.62,21.2,20.87,.03,11.4-9.45,21.12-20.79,21.31-11.48,.19-21.3-9.49-21.41-21.12-.1-11.24,9.61-20.99,21-21.07Z"/>
  </g>
</svg>