<?xml version="1.0" encoding="UTF-8"?>
<svg id="Layer_1" data-name="Layer 1" xmlns="http://www.w3.org/2000/svg" viewBox="0 0 595.28 595.28">
  <defs>
    <style>
      .cls-1 {
        fill: #fff;
      }

      .cls-2 {
        fill: #31479d;
      }
    </style>
  </defs>
  <rect class="cls-2" y="-.24" width="595.28" height="595.28"/>
  <g>
    <path class="cls-2" d="M124.24,489.41h-18.72c0-127.98,0-255.96,0-384H489.53V489.41h-17.85c8.43-2.86,14.36-8.11,15.32-17.36,.5-4.81,.55-9.77-.01-14.56-1.17-10.02-8.88-17.4-18.44-17.26-4.55,.07-6.32-1.39-6.45-5.6-.02-.49-.12-.99-.21-1.48-3.98-20.65-7.41-41.43-12.1-61.92-4.95-21.64-15.76-40-34.18-53.23-7.03-5.05-14.9-8.24-23.86-10.13,3.96-7.2,7.89-13.83,11.32-20.72,4.21-8.45,8.55-16.9,11.84-25.72,4.41-11.84,2.62-24.17,.57-36.23-7.37-43.37-29.16-77.71-65.57-102.45-14.11-9.58-29.68-16.2-46.99-16.51-33.37-.58-58.39,16.52-80.36,39.44-2.47,2.57-2.02,5.74,.55,8.38,2.08,2.14,5,2.15,7.71-.12,1.24-1.03,2.29-2.3,3.44-3.44,13.79-13.74,29.25-24.82,48.33-30.03,1.86-.51,4.04-.87,5.85-.4,7.1,1.82,14.46,3.22,21.1,6.17,31.45,13.94,52.89,38.01,67.7,68.5,1.07,2.19,1.93,4.48,3.14,7.32-1.08-.44-1.52-.58-1.92-.79-7.71-4.03-15.23-8.5-23.17-12-18.55-8.18-38.05-12.55-58.38-12.06-20.43,.49-39.73,5.93-58.29,14.37-12.9,5.87-24.72,13.1-33.36,24.56-3.78,5-6.91,10.5-10.33,15.77,1.62-9.38,3.17-18.92,6.57-27.75,4.09-10.63,9.62-20.72,14.78-30.91,2.52-4.99,1.04-9.28-4.01-9.87-3.01-.36-4.81,1.43-6.31,3.79-11.52,18.11-19.08,37.75-22.27,58.96-1.66,11.09-3.53,22.47-.07,33.4,3.88,12.3,8.92,24.24,13.53,36.3,1.49,3.91,3.23,7.73,4.55,10.86-7.34,3.22-14.68,5.51-21.04,9.41-19.37,11.88-30.85,30.02-36.61,51.45-4.32,16.06-6.77,32.63-10.01,48.98-1.54,7.78-2.98,15.58-4.44,23.25-12.45,1.42-19.3,6.95-20.54,17.38-.65,5.5-.29,11.21,.29,16.75,.57,5.5,3.87,9.66,8.57,12.53,1.99,1.21,4.23,2.01,6.36,2.99Z"/>
    <path class="cls-1" d="M124.24,489.41c-2.13-.99-4.37-1.78-6.36-2.99-4.69-2.87-7.99-7.03-8.57-12.53-.58-5.54-.94-11.25-.29-16.75,1.24-10.43,8.09-15.96,20.54-17.38,1.46-7.67,2.9-15.47,4.44-23.25,3.24-16.35,5.69-32.92,10.01-48.98,5.76-21.42,17.24-39.56,36.61-51.45,6.35-3.9,13.69-6.19,21.04-9.41-1.32-3.13-3.05-6.95-4.55-10.86-4.61-12.07-9.65-24-13.53-36.3-3.45-10.93-1.59-22.31,.07-33.4,3.18-21.21,10.75-40.85,22.27-58.96,1.5-2.36,3.3-4.15,6.31-3.79,5.05,.6,6.53,4.88,4.01,9.87-5.16,10.2-10.69,20.28-14.78,30.91-3.4,8.83-4.95,18.38-6.57,27.75,3.42-5.27,6.55-10.76,10.33-15.77,8.65-11.46,20.46-18.69,33.36-24.56,18.57-8.45,37.86-13.88,58.29-14.37,20.33-.49,39.83,3.87,58.38,12.06,7.94,3.5,15.46,7.98,23.17,12,.4,.21,.84,.35,1.92,.79-1.21-2.84-2.08-5.12-3.14-7.32-14.82-30.49-36.26-54.55-67.7-68.5-6.64-2.95-14-4.35-21.1-6.17-1.81-.46-3.99-.1-5.85,.4-19.08,5.21-34.53,16.29-48.33,30.03-1.15,1.14-2.2,2.41-3.44,3.44-2.71,2.26-5.63,2.26-7.71,.12-2.56-2.64-3.01-5.8-.55-8.38,21.97-22.92,46.99-40.02,80.36-39.44,17.31,.3,32.88,6.92,46.99,16.51,36.42,24.74,58.2,59.08,65.57,102.45,2.05,12.06,3.84,24.39-.57,36.23-3.28,8.82-7.63,17.27-11.84,25.72-3.43,6.89-7.36,13.52-11.32,20.72,8.96,1.89,16.83,5.08,23.86,10.13,18.41,13.23,29.22,31.59,34.18,53.23,4.69,20.49,8.12,41.27,12.1,61.92,.09,.49,.2,.98,.21,1.48,.13,4.21,1.9,5.67,6.45,5.6,9.56-.14,17.27,7.24,18.44,17.26,.56,4.8,.51,9.75,.01,14.56-.96,9.25-6.9,14.5-15.32,17.36H124.24Zm88.14-49.35h4.38c22.08,0,44.17,0,66.25,0,1.24,0,2.52-.08,3.73,.16,3.34,.67,4.82,3.17,4.91,6.21,.08,2.79-1.74,4.64-4.53,5.15-1.82,.33-3.7,.46-5.56,.46-43.17,.02-86.34,.02-129.51,.02-7.24,0-14.47-.02-21.71,0-7.42,.02-9.63,2.21-9.65,9.5,0,2.62-.03,5.24,.01,7.86,.08,5.02,2.42,7.59,7.39,8.06,1.73,.16,3.49,.13,5.23,.13,92.95,0,185.91,0,278.86,0,10.73,0,21.46-.12,32.19,.07,3.48,.06,5.31-1.38,5.53-4.56,.35-4.95,.7-9.96,.34-14.9-.4-5.57-1.46-6.17-7.04-6.17-42.8,0-85.59,0-128.39-.02-1.85,0-3.77-.1-5.53-.58-3.39-.93-4.75-3.58-3.78-6.94,1.05-3.65,3.83-4.49,7.26-4.49,22.58,.03,45.17,0,67.75-.01,1.44,0,2.88,0,4.49,0,.44-4.46,.87-8.41,1.21-12.37,2.23-25.45,4.44-50.9,6.68-76.34,.41-4.65-.39-5.63-5.02-5.63-59.27-.02-118.53-.03-177.8-.03-4.66,0-5.38,.64-5.02,5.18,2.04,26.09,4.16,52.17,6.26,78.26,.29,3.58,.68,7.14,1.04,10.97Zm-70.48-1.03c.41,.3,.51,.44,.61,.44,18.58,.09,37.16,.19,55.74,.12,.7,0,1.98-1.7,1.97-2.59-.04-3.47-.49-6.94-.79-10.41-1.19-14.13-2.37-28.26-3.57-42.39-.9-10.66-1.65-21.33-2.8-31.96-.84-7.67,2.41-14.33,9.05-17.18q6.17-2.65,4.83-9.31c-.17-.85-.48-1.69-.57-2.54-.33-3.39-2.19-4.29-5.13-3.02-5.68,2.46-11.79,4.31-16.84,7.72-15.36,10.37-24.41,25.53-29.05,43.08-3.54,13.42-5.69,27.21-8.36,40.86-1.79,9.11-3.42,18.25-5.09,27.2Zm86.39-228.13c-1.49,1.04-2.51,1.66-3.44,2.4-12.34,9.75-19.27,22.8-23.47,37.68-3.2,11.33-2.77,21.75,2.67,32.69,5.61,11.28,9.38,23.51,13.46,35.49,1.61,4.74,1.91,9.92,2.78,14.82h38.49c0-9.51-.1-18.72,.06-27.92,.05-2.85-.83-4.74-2.98-6.72-17.92-16.5-29.25-35.97-27.67-61.4,.55-8.77,.09-17.61,.09-27.04Zm142.24-.43c0,11.57,.2,22.29-.09,32.98-.14,5.19-.66,10.48-1.93,15.49-4.25,16.78-14.28,29.91-27.01,41.22-.95,.84-2.2,2.06-2.22,3.13-.17,10.19-.1,20.38-.1,30.84,10.69,0,21,.05,31.31-.11,.68-.01,1.82-1.6,1.93-2.54,1.46-12.33,6.27-23.49,11.96-34.32,5.04-9.58,10.29-19.05,15.35-28.62,.66-1.24,1.29-2.91,1.01-4.18-1.7-7.74-3.05-15.65-5.7-23.08-4.49-12.6-12.61-22.7-24.52-30.8Zm71.49,229.24c-.15-1.21-.17-1.82-.3-2.41-5.39-22.91-10.64-45.85-16.24-68.7-2.6-10.6-6.78-20.61-13.92-29.09-6.64-7.89-14.91-12.96-25.68-14.55-.55,2.88-1.03,5.47-1.59,8.38,2.46,.2,4.43,.27,6.38,.54,9.79,1.35,14.64,7.35,13.93,17.14-.28,3.84-.49,7.69-.81,11.53-.8,9.66-1.62,19.32-2.46,28.97-1.16,13.37-2.38,26.73-3.51,40.09-.22,2.54-1.17,6.47,0,7.34,1.82,1.35,5.18,.72,7.88,.73,11.94,.05,23.89,.02,36.32,.02ZM240.39,229.14c0,8.41-.07,16.11,.04,23.82,.04,2.57,1.09,4.03,4.22,4.44,11.83,1.55,23.6,1.64,35.38-.17,6.11-.93,11.82-2.25,15.19-8.56,1.94-3.64,7.48-3.02,9.59,.83,2.32,4.25,6.07,6.07,10.45,6.97,12.95,2.66,25.96,2.88,38.97,.52,1.3-.24,3.24-1.9,3.32-3.02,.55-7.43,.74-14.89,.82-22.35,0-.68-1.47-1.89-2.33-1.97-3.84-.35-7.7-.5-11.56-.51-33.42-.03-66.83-.02-100.25-.02-1.34,0-2.68,0-3.83,0Zm7.22,40.93c.06,.38,.01,.78,.18,1.06,10.63,17.74,25.44,30.07,45.75,35.29,3.81,.98,7.18,.27,10.7-1.54,13.98-7.2,25.1-17.44,33.58-30.62,.69-1.07,1.19-2.25,2.07-3.95-4.25,0-7.75,.25-11.19-.05-9.51-.83-19.15-1.27-27.52-6.89-.78-.52-2.45-.12-3.54,.29-3.57,1.36-6.94,3.4-10.61,4.33-12.94,3.25-26.15,2.47-39.42,2.08Zm46.4-52.71c16.33,0,32.65,0,48.98,0,4.93,0,6.3-1.66,4.4-6.27-.68-1.65-2.74-3.21-4.51-3.85-34.02-12.28-67.3-9.46-99.87,5.38-1.15,.52-1.73,2.29-2.58,3.47,1.16,.43,2.31,1.22,3.47,1.22,16.7,.08,33.4,.05,50.1,.06Zm33.19,92.94c-19.14,11.49-37.81,11.36-56.55-.02v23.92c17.77,0,35.22,0,52.66-.01,.61,0,1.36,0,1.81-.33,.79-.58,1.97-1.39,1.99-2.13,.15-6.81,.09-13.62,.09-21.42Z"/>
    <path class="cls-2" d="M212.38,440.06c-.37-3.82-.75-7.39-1.04-10.97-2.11-26.09-4.22-52.17-6.26-78.26-.36-4.55,.36-5.18,5.02-5.18,59.27,0,118.53,0,177.8,.03,4.63,0,5.42,.98,5.02,5.63-2.24,25.45-4.45,50.9-6.68,76.34-.35,3.96-.77,7.91-1.21,12.37-1.61,0-3.05,0-4.49,0-22.58,.01-45.17,.04-67.75,.01-3.43,0-6.2,.84-7.26,4.49-.97,3.36,.39,6,3.78,6.94,1.77,.49,3.68,.58,5.53,.58,42.8,.03,85.59,.02,128.39,.02,5.58,0,6.63,.6,7.04,6.17,.36,4.93,0,9.94-.34,14.9-.22,3.18-2.06,4.62-5.53,4.56-10.73-.19-21.46-.07-32.19-.07-92.95,0-185.91,0-278.86,0-1.75,0-3.5,.04-5.23-.13-4.97-.47-7.31-3.04-7.39-8.06-.04-2.62-.02-5.24-.01-7.86,.02-7.29,2.23-9.48,9.65-9.5,7.24-.02,14.47,0,21.71,0,43.17,0,86.34,0,129.51-.02,1.85,0,3.74-.13,5.56-.46,2.78-.51,4.61-2.36,4.53-5.15-.09-3.04-1.57-5.55-4.91-6.21-1.21-.24-2.48-.16-3.73-.16-22.08,0-44.17,0-66.25,0h-4.38Zm56.98-45.7c-.11,4.19,1.94,9.04,5.57,13.21,11.51,13.26,34.11,14.02,46.6,1.63,9.9-9.83,9.25-24.94-1.44-33.94-11.62-9.78-29.55-10.12-41.45-.66-5.85,4.65-9.26,10.64-9.27,19.76Z"/>
    <path class="cls-2" d="M141.89,439.03c1.67-8.95,3.3-18.09,5.09-27.2,2.68-13.64,4.82-27.44,8.36-40.86,4.63-17.54,13.68-32.71,29.05-43.08,5.05-3.41,11.17-5.26,16.84-7.72,2.93-1.27,4.79-.37,5.13,3.02,.08,.86,.4,1.69,.57,2.54q1.33,6.66-4.83,9.31c-6.63,2.85-9.88,9.51-9.05,17.18,1.16,10.63,1.9,21.31,2.8,31.96,1.2,14.13,2.38,28.26,3.57,42.39,.29,3.47,.75,6.94,.79,10.41,0,.9-1.28,2.59-1.97,2.59-18.58,.07-37.16-.04-55.74-.12-.1,0-.2-.14-.61-.44Z"/>
    <path class="cls-2" d="M228.28,210.9c0,9.43,.46,18.27-.09,27.04-1.58,25.43,9.75,44.89,27.67,61.4,2.15,1.98,3.02,3.86,2.98,6.72-.15,9.2-.06,18.41-.06,27.92h-38.49c-.88-4.9-1.17-10.08-2.78-14.82-4.08-11.98-7.85-24.21-13.46-35.49-5.45-10.94-5.87-21.36-2.67-32.69,4.2-14.89,11.13-27.93,23.47-37.68,.93-.74,1.95-1.36,3.44-2.4Z"/>
    <path class="cls-2" d="M370.53,210.47c11.9,8.1,20.02,18.19,24.52,30.8,2.65,7.43,3.99,15.34,5.7,23.08,.28,1.27-.35,2.93-1.01,4.18-5.06,9.57-10.31,19.04-15.35,28.62-5.69,10.83-10.5,21.99-11.96,34.32-.11,.95-1.25,2.53-1.93,2.54-10.31,.16-20.62,.11-31.31,.11,0-10.46-.07-20.65,.1-30.84,.02-1.06,1.27-2.28,2.22-3.13,12.74-11.31,22.77-24.44,27.01-41.22,1.27-5.01,1.79-10.31,1.93-15.49,.29-10.7,.09-21.41,.09-32.98Z"/>
    <path class="cls-2" d="M442.02,439.72c-12.43,0-24.38,.03-36.32-.02-2.71-.01-6.07,.61-7.88-.73-1.18-.87-.22-4.8,0-7.34,1.13-13.37,2.35-26.73,3.51-40.09,.84-9.66,1.66-19.31,2.46-28.97,.32-3.84,.54-7.69,.81-11.53,.7-9.79-4.14-15.79-13.93-17.14-1.94-.27-3.91-.34-6.38-.54,.55-2.91,1.04-5.5,1.59-8.38,10.77,1.58,19.04,6.65,25.68,14.55,7.14,8.49,11.32,18.5,13.92,29.09,5.6,22.85,10.86,45.79,16.24,68.7,.14,.59,.16,1.2,.3,2.41Z"/>
    <path class="cls-2" d="M240.39,229.14c1.15,0,2.49,0,3.83,0,33.42,0,66.83-.01,100.25,.02,3.86,0,7.72,.15,11.56,.51,.87,.08,2.34,1.29,2.33,1.97-.09,7.46-.28,14.92-.82,22.35-.08,1.12-2.03,2.78-3.32,3.02-13,2.37-26.02,2.14-38.97-.52-4.38-.9-8.13-2.72-10.45-6.97-2.1-3.85-7.64-4.47-9.59-.83-3.37,6.31-9.07,7.62-15.19,8.56-11.78,1.8-23.55,1.72-35.38,.17-3.13-.41-4.18-1.87-4.22-4.44-.11-7.7-.04-15.41-.04-23.82Zm23.3,6.31c-4.45-.05-6.55,1.53-7.19,4.46-.64,2.92,.86,5.87,3.92,6.68,4.42,1.18,8.91,2.18,13.44,2.85,3.06,.46,5.38-1.23,6.08-4.28,.68-2.96-.3-5.69-3.37-6.61-4.61-1.38-9.36-2.28-12.87-3.11Zm72.1,0c-3.57,.84-8.33,1.72-12.92,3.12-3.01,.92-4.04,3.55-3.34,6.6,.72,3.14,3.02,4.71,6.04,4.28,4.52-.65,9.02-1.62,13.42-2.85,3.15-.88,4.58-3.43,3.91-6.68-.63-3.07-2.77-4.55-7.11-4.47Z"/>
    <path class="cls-2" d="M247.61,270.07c13.26,.39,26.48,1.18,39.42-2.08,3.67-.92,7.04-2.97,10.61-4.33,1.09-.42,2.76-.82,3.54-.29,8.37,5.62,18,6.06,27.52,6.89,3.45,.3,6.94,.05,11.19,.05-.88,1.7-1.39,2.88-2.07,3.95-8.48,13.18-19.6,23.42-33.58,30.62-3.52,1.81-6.89,2.52-10.7,1.54-20.31-5.21-35.11-17.55-45.75-35.29-.17-.28-.12-.68-.18-1.06Z"/>
    <path class="cls-2" d="M294.01,217.36c-16.7,0-33.4,.03-50.1-.06-1.16,0-2.31-.8-3.47-1.22,.85-1.19,1.43-2.95,2.58-3.47,32.57-14.84,65.85-17.65,99.87-5.38,1.78,.64,3.83,2.21,4.51,3.85,1.9,4.61,.53,6.27-4.4,6.27-16.33,0-32.65,0-48.98,0Z"/>
    <path class="cls-2" d="M327.2,310.3c0,7.81,.06,14.62-.09,21.42-.02,.74-1.2,1.55-1.99,2.13-.45,.33-1.2,.33-1.81,.33-17.44,.02-34.89,.01-52.66,.01v-23.92c18.74,11.38,37.41,11.51,56.55,.02Z"/>
    <path class="cls-1" d="M269.36,394.36c0-9.12,3.42-15.11,9.27-19.76,11.9-9.46,29.83-9.12,41.45,.66,10.7,9.01,11.34,24.12,1.44,33.94-12.48,12.39-35.08,11.63-46.6-1.63-3.63-4.18-5.68-9.02-5.57-13.21Zm27.75,12.61c2.13-1.1,4.17-1.6,5.36-2.88,5.66-6.09,5.73-14.94,.66-21.51-1.89-2.45-4.18-3.71-7.05-2.89-3.29,.94-6.78,1.91-9.53,3.82-7.46,5.17-7.43,13.61,.06,18.76,3.05,2.1,6.86,3.11,10.51,4.7Z"/>
    <path class="cls-1" d="M263.69,235.45c3.51,.83,8.26,1.72,12.87,3.11,3.07,.92,4.06,3.65,3.37,6.61-.7,3.04-3.02,4.73-6.08,4.28-4.52-.67-9.02-1.67-13.44-2.85-3.06-.82-4.56-3.76-3.92-6.68,.64-2.93,2.74-4.51,7.19-4.46Z"/>
    <path class="cls-1" d="M335.79,235.44c4.34-.08,6.48,1.4,7.11,4.47,.66,3.24-.77,5.8-3.91,6.68-4.4,1.23-8.9,2.2-13.42,2.85-3.02,.44-5.32-1.13-6.04-4.28-.69-3.05,.33-5.68,3.34-6.6,4.6-1.41,9.35-2.28,12.92-3.12Z"/>
    <path class="cls-2" d="M297.11,406.97c-3.65-1.59-7.45-2.6-10.51-4.7-7.49-5.16-7.52-13.6-.06-18.76,2.75-1.9,6.25-2.87,9.53-3.82,2.87-.82,5.16,.44,7.05,2.89,5.07,6.57,5.01,15.42-.66,21.51-1.19,1.28-3.23,1.77-5.36,2.88Z"/>
  </g>
</svg>