<svg xmlns="http://www.w3.org/2000/svg" viewBox="0 0 71.53 74.39">
    <defs>
        <style>.cls-1{fill:#0000;}</style>
    </defs>
    <title>Commercial</title>
    <g class="svggroup" id="Layer_2" data-name="Layer 2">
        <g class="svggroup" id="Layer_1-2" data-name="Layer 1">
            <path class="cls-1" d="M35.73,74.37q-16.18,0-32.38,0a3.06,3.06,0,0,1-3-1.4,2.58,2.58,0,0,1,1.24-3.76,1.42,1.42,0,0,0,1.06-1.71c-.06-1.25,0-2.51,0-3.77,0-.81,0-1.72,1-1.76s1.09.87,1.08,1.69c0,1.4,0,2.81,0,4.21,0,.75.23,1,1,1q13.43,0,26.86,0c.84,0,1.07-.3,1.06-1.1q0-12.55,0-25.12c0-.79-.23-1.11-1.07-1.1q-13.37,0-26.72,0c-.93,0-1.14.36-1.13,1.2,0,4,0,8,0,12,0,.39,0,.78,0,1.16,0,.78-.21,1.39-1.1,1.35s-1-.61-1-1.33q0-4.14,0-8.28c0-2,0-4.06,0-6.1,0-1.53.54-2.12,2.09-2.09,1,0,1.41-.32,1.29-1.32a6.42,6.42,0,0,1,0-1.16c0-1.7.49-2.16,2.16-2.17q3.7,0,7.4,0c1.63,0,2.13.53,2.16,2.19,0,.39,0,.78,0,1.16-.07.83,0,1.32,1.12,1.32s1.24-.41,1.24-1.36q0-15.6,0-31.22c0-.73,0-1.3-1-1.42-.72-.09-1-.69-1.07-1.37V4C18.09.6,17.6,0,21.72,0,31.5.08,41.28,0,51.05,0c2.08,0,2.45.37,2.44,2.45,0,1.32.34,2.79-1.49,3.32-.35.11-.21.61-.21.93q0,7.62,0,15.25c0,.34-.2.94.33.95s.39-.65.43-1c0-.58,0-1.16,0-1.74a1.92,1.92,0,0,1,1.82-2.07c1.1-.05,1.11-.57,1.1-1.37,0-1.74,0-3.48,0-5.23,0-.86-.3-2.11,1.07-2.09s1,1.19,1,2c0,1.89,0,3.77,0,5.66,0,.5,0,.86.71,1,1.73.25,2.18.86,2.21,2.6a4.45,4.45,0,0,1,0,.73c-.22,1.33.31,1.73,1.65,1.68,2.91-.09,3.48.53,3.45,3.48,0,1.08,0,1.84,1.48,1.7,1.19-.11,1.84.68,1.83,1.92q0,3.93,0,7.84c0,.77-.2,1.43-1,1.46s-1.06-.67-1.06-1.42c0-2.18,0-4.36,0-6.53,0-.89-.27-1.19-1.16-1.18q-6.39,0-12.78,0c-.9,0-1.12.33-1.13,1.19,0,3.35-.07,3.35,3.28,3.35,2.56,0,5.13,0,7.69,0,1.87,0,2.51.64,2.57,2.53.1,2.89-.47,3.47-3.4,3.47s-6,.06-9,0c-1.25,0-1.11.68-1.13,1.48s.06,1.33,1.13,1.31c3.19-.07,6.39,0,9.58,0,2.22,0,2.83.67,2.82,3s-.59,3-2.84,3c-3.2,0-6.4,0-9.59,0-1.12,0-1.13.54-1.1,1.34s-.18,1.53,1.1,1.51c3.24-.07,6.48,0,9.73,0,2.2,0,2.72.64,2.7,3.12,0,2.22-.58,2.81-2.7,2.82-3.14,0-6.29.06-9.44,0-1.22,0-1.39.42-1.42,1.49s.38,1.45,1.49,1.43c3.19-.07,6.39,0,9.58,0,2,0,2.48.65,2.49,2.88s-.49,3-2.48,3c-3.24,0-6.49,0-9.73,0-.58,0-1.29-.23-1.33.82s.68.85,1.26.85c4.17,0,8.33,0,12.49,0,1.17,0,1.33-.43,1.32-1.44,0-7.06,0-14.13,0-21.2,0-.43,0-.87,0-1.3a.89.89,0,0,1,1-.84.92.92,0,0,1,1,.84,9.41,9.41,0,0,1,0,1.3c0,7.07,0,14.14,0,21.2,0,.83,0,1.41,1,1.74a2.39,2.39,0,0,1,1.57,2.92A2.54,2.54,0,0,1,69,74.35c-1,.07-1.93,0-2.9,0Zm14-37.06q0-15.09,0-30.19c0-1-.19-1.44-1.33-1.44q-12.42.08-24.82,0c-1.1,0-1.4.33-1.39,1.4.05,5.91,0,11.81,0,17.71q0,6.75,0,13.5c0,.53-.2,1.2.76,1.22s.83-.59.83-1.17c0-1.11,0-2.22,0-3.33a1.48,1.48,0,0,1,1.64-1.61c1.21,0,2.42,0,3.63,0a1.6,1.6,0,0,1,1.74,1.84c0,1.12,0,2.23,0,3.34,0,.53,0,.93.74.93s.81-.34.8-.9c0-1.06,0-2.13,0-3.19.06-1.51.56-2,2-2,1.06,0,2.13,0,3.19,0a1.63,1.63,0,0,1,1.89,1.71c.07,1.5.06,3,0,4.5A1.6,1.6,0,0,1,38,41.28c-.73.11-1.73-.4-2.12.35a5.52,5.52,0,0,0-.11,2.28,6.3,6.3,0,0,1,0,.87c-.19,1.18.22,1.66,1.47,1.53s2.22.4,2.27,1.83.05,2.9,0,4.35A1.74,1.74,0,0,1,37.8,54.3c-2,.25-2,.26-2,2.25a7.48,7.48,0,0,1,0,1.16c-.2,1.25.22,1.69,1.54,1.6,1.64-.11,2.18.5,2.21,2.13,0,1.06,0,2.12,0,3.19,0,2.11-.39,2.5-2.53,2.56-.62,0-1.26-.13-1.24.9s.77.77,1.31.78c3.72,0,7.45-.05,11.17,0,1.27,0,1.49-.4,1.49-1.56C49.68,57.34,49.7,47.32,49.7,37.31Zm-14,35q16,0,32,0c.62,0,1.67.31,1.66-.59s-1.06-.54-1.66-.54q-31.8,0-63.6,0c-.62,0-1.71-.34-1.74.48,0,1,1.1.66,1.74.66Q19.85,72.27,35.67,72.26Zm.12-68.74c4.79,0,9.57,0,14.36,0,.45,0,1.16.31,1.19-.59s-.66-.78-1.21-.78H21.42c-.57,0-1.26-.13-1.2.8s.77.57,1.22.57C26.22,3.53,31,3.52,35.79,3.52Zm21.8,21.74c-1.6,0-3.19.06-4.78,0-1.19-.06-1.08.67-1,1.39s-.43,1.62,1,1.59c3.23-.06,6.47,0,9.71,0,1.41,0,.86-1,.92-1.6s.21-1.47-1-1.39C60.78,25.34,59.18,25.26,57.59,25.26Zm-.21,39.82c1.6,0,3.19,0,4.79,0,.63,0,1-.11.95-.86s-.32-.88-1-.88c-3.14,0-6.29,0-9.43,0-.64,0-1,.16-1,.89s.36.86,1,.85C54.29,65.07,55.83,65.08,57.38,65.08Zm.19-8.76c1.49,0,3,0,4.49,0,.67,0,1.07-.08,1.07-.92s-.45-.8-1-.8H52.84c-.63,0-1.1,0-1.08.89s.59.82,1.17.82Zm-.09-17.65H62.1c.55,0,1,0,1-.79s-.27-.91-.94-.91q-4.76,0-9.53,0c-.71,0-.88.33-.88,1s.44.72.95.72ZM12,39.51c.77,0,1.54,0,2.31,0,.93.07,1.38-.12,1.4-1.22S15.2,36.93,14.2,37c-1.49.07-3,.05-4.49,0-1,0-1.6,0-1.58,1.32s.64,1.25,1.51,1.21S11.19,39.51,12,39.51Zm45.5,8h4.48c.54,0,1.16.16,1.18-.79s-.53-.84-1.12-.84H52.9c-.6,0-1.16-.07-1.13.85s.66.77,1.21.78C54.47,47.5,56,47.49,57.46,47.49ZM56.55,23c1,0,1.92.34,1.94-1.38s-.86-1.6-2-1.54a.94.94,0,0,1-.29,0c-1.25-.21-1.59.25-1.64,1.55C54.53,23.39,55.57,23,56.55,23ZM28.72,37.51c0-1.15.28-2.06-1.4-2.1s-1.4,1-1.42,1.91a5.93,5.93,0,0,1,0,.73c-.11.84.17,1.12,1.09,1.2C28.54,39.38,29,38.79,28.72,37.51Zm8.58-.12c-.21-.58.48-1.49-.45-1.87-1.38-.56-2.25.06-2.26,1.52,0,.34,0,.68,0,1-.1.83.17,1.13,1.09,1.19C37.15,39.35,37.59,38.78,37.3,37.39Zm0,26c0-.4,0-.69,0-1,0-.59,0-1-.84-1s-.71.47-.7,1,0,1.26,0,1.89.35,1,1,.82C37.87,64.81,37,63.85,37.32,63.39Zm-1.54-13.2c0,.36,0,.6,0,.84,0,.52-.12,1.07.74,1.08s.81-.48.8-1,0-1.16,0-1.74c.06-.76-.37-.95-1-.81C35.21,48.78,36.08,49.74,35.78,50.19Z" />
            <path class="cls-1" d="M19.05,68c-.53,0-1.07,0-1.6,0-1.43,0-2-.6-2-2-.15-3.59,0-3.8,3.57-3.8h.44c3,0,4.16,1.7,3.12,4.58A1.7,1.7,0,0,1,20.93,68c-.63,0-1.26,0-1.88,0ZM19,64.19c-.55.19-1.47-.41-1.46.83s.88.8,1.45.8,1.59.4,1.53-.88S19.46,64.43,19,64.19Z" />
            <path class="cls-1" d="M19.05,50.55c-4.06.23-3.71-.72-3.59-4.33a1.49,1.49,0,0,1,1.64-1.48c1.26,0,2.51,0,3.77,0a1.89,1.89,0,0,1,.71.12c1,.4,1.45,2,1.07,4a1.79,1.79,0,0,1-2,1.65Zm-.12-3.76c-.55.16-1.44-.38-1.44.82s1,.79,1.54.82,1.43.36,1.44-.79S19.49,47,18.93,46.79Z" />
            <path class="cls-1" d="M19.13,53.43h.15c3.45-.25,3.61.62,3.33,4.32a1.6,1.6,0,0,1-1.68,1.5c-1.26,0-2.51,0-3.77,0a1.6,1.6,0,0,1-1.73-1.72C15.38,54,15.05,53.25,19.13,53.43ZM19,55.49c-.56.18-1.47-.4-1.46.83s.87.81,1.45.8,1.58.4,1.53-.87S19.47,55.72,19,55.49Z" />
            <path class="cls-1" d="M28,50.55c-.43,0-.87,0-1.3,0-1.7,0-2.22-.55-2.24-2.27,0-.63,0-1.26,0-1.88a1.57,1.57,0,0,1,1.65-1.65c1.3,0,2.61,0,3.91,0a1.7,1.7,0,0,1,.71.14c.93.44,1.37,2.48.92,4.27a1.8,1.8,0,0,1-2.07,1.4C29.06,50.53,28.53,50.55,28,50.55Zm.09-3.76c-.6.17-1.59-.4-1.54.89s.94.74,1.51.75,1.58.39,1.54-.86S28.62,47,28.08,46.79Z" />
            <path class="cls-1" d="M9.91,59.26H9.76c-3.24,0-4.23-1.37-3.34-4.56A1.54,1.54,0,0,1,8,53.45c1.3,0,2.6,0,3.91,0a1.81,1.81,0,0,1,.69.14c1,.43,1.37,2.15,1,4.08a1.76,1.76,0,0,1-1.91,1.59C11.07,59.27,10.49,59.26,9.91,59.26Zm0-3.8c-.5.24-1.43-.38-1.41.87s.88.79,1.45.79,1.57.41,1.5-.88S10.41,55.73,9.87,55.46Z" />
            <path class="cls-1" d="M9.84,50.55H9.7c-3.15,0-4.23-1.53-3.26-4.61A1.56,1.56,0,0,1,8,44.74c1.25,0,2.5,0,3.76,0a1.61,1.61,0,0,1,1.74,1.56,11.34,11.34,0,0,1,.06,2c-.06,1.68-.63,2.21-2.31,2.23C10.81,50.56,10.33,50.55,9.84,50.55Zm.09-3.76c-.55.19-1.46-.42-1.47.82s.84.84,1.42.82,1.57.45,1.54-.86S10.45,47,9.93,46.79Z" />
            <path class="cls-1" d="M28,59.27h-.14c-3.25,0-4.3-1.42-3.36-4.58a1.57,1.57,0,0,1,1.59-1.24c1.31,0,2.61,0,3.92,0a1.85,1.85,0,0,1,.7.13c1,.44,1.4,2.42,1,4.26a1.82,1.82,0,0,1-2.06,1.43C29.07,59.25,28.54,59.26,28,59.27Zm0-2.1c.59-.18,1.57.4,1.58-.86s-.91-.79-1.47-.76-1.57-.52-1.58.78S27.43,57,28,57.17Z" />
            <path class="cls-1" d="M28.12,62.14h.15c3.88-.28,3.54,1,3.38,4.39A1.54,1.54,0,0,1,30.05,68c-1.3,0-2.61,0-3.91,0a1.68,1.68,0,0,1-.69-.18c-1-.47-1.4-2.22-1-4.23a1.73,1.73,0,0,1,2-1.4C27.06,62.16,27.59,62.14,28.12,62.14Zm-.11,2c-.39.35-1.47-.51-1.47.85,0,1.15.87.82,1.45.8s1.58.44,1.6-.81S28.68,64.36,28,64.17Z" />
            <path class="cls-1" d="M10,62.14h.14c3.21,0,4.05,1.08,3.36,4.28A1.73,1.73,0,0,1,11.74,68c-1.2,0-2.41,0-3.61,0a1.69,1.69,0,0,1-1.78-1.71c0-.34,0-.67,0-1,0-2.79.28-3.1,3-3.1Zm-.1,3.73c.57-.17,1.46.37,1.48-.83s-.87-.81-1.42-.79-1.57-.51-1.53.82S9.42,65.67,9.94,65.87Z" />
            <path class="cls-1" d="M39.53,24.34c0,4.05,0,4.05-4,4.05-2.84,0-3.14-.3-3.14-3.17,0-.82,0-1.64,0-2.47,0-1.8.58-2.34,2.34-2.37H37c2,0,2.47.54,2.49,2.51Zm-2.23,0c.09-1,.22-1.84-1.35-1.85s-1.38.86-1.36,1.83-.31,1.94,1.43,1.9S37.27,25.24,37.3,24.38Z" />
            <path class="cls-1" d="M41,50.18c0-3.84,0-3.89,3.86-3.89a14.47,14.47,0,0,1,1.74.07,1.51,1.51,0,0,1,1.46,1.52c0,1.6.06,3.19,0,4.79,0,1.11-.79,1.6-1.85,1.63s-1.93,0-2.9,0c-1.77,0-2.29-.57-2.31-2.38C41,51.34,41,50.76,41,50.18Zm4.93.34c0-1.1.38-2.11-1.36-2.09-1.53,0-1.42.8-1.38,1.79s-.32,2,1.39,1.94C46.15,52.14,46.05,51.36,46,50.52Z" />
            <path class="cls-1" d="M48.15,24.46c0,3.93,0,3.93-4,3.93-2.86,0-3.15-.3-3.15-3.14,0-.92,0-1.84,0-2.76,0-1.51.61-2,2.15-2.11h.87C48.15,20.38,48.15,20.38,48.15,24.46ZM46,24.39c0-.87.35-1.84-1.29-1.87s-1.47.84-1.47,1.88-.16,1.88,1.47,1.85S45.92,25.27,46,24.39Z" />
            <path class="cls-1" d="M48.15,11.45c0,4,0,4-3.89,4H43A1.7,1.7,0,0,1,41,13.54c0-1.4,0-2.8,0-4.21A1.68,1.68,0,0,1,43,7.5c1,0,1.93,0,2.9,0,1.8,0,2.22.43,2.27,2.21C48.16,10.29,48.15,10.87,48.15,11.45Zm-2.18,0c-.16-.52.36-1.33-.29-1.77a1.61,1.61,0,0,0-2.46,1.42c0,.48,0,1,0,1.44s.27.71.8.77C45.8,13.5,46,13.37,46,11.44Z" />
            <path class="cls-1" d="M41,63.21c0-3.94,0-3.94,3.92-3.94H46.4a1.54,1.54,0,0,1,1.69,1.6c.06,1.59,0,3.19,0,4.78a1.45,1.45,0,0,1-1.6,1.51c-1.07,0-2.13,0-3.2,0-1.74,0-2.23-.52-2.26-2.24C41,64.37,41,63.79,41,63.21ZM46,63.12c-.29-.43.44-1.33-.41-1.64-.63-.24-1.64-.4-2,.09-.7.84-.33,2-.24,3s.93.37,1.43.46C46.41,65.39,45.89,64.12,46,63.12Z" />
            <path class="cls-1" d="M41,37.31C41,33.4,41,33.4,45,33.4H46.4A1.51,1.51,0,0,1,48.1,35c.07,1.55.06,3.1,0,4.64a1.57,1.57,0,0,1-1.77,1.67c-1.06,0-2.13,0-3.19,0-1.56,0-2.07-.53-2.12-2.08C41,38.57,41,37.94,41,37.31Zm4.91-.09c-.08-.66.55-1.79-1.28-1.8s-1.41,1.06-1.44,2a2.8,2.8,0,0,1,0,.29c-.16,1.1.24,1.44,1.41,1.5C46.24,39.33,46,38.37,45.94,37.22Z" />
            <path class="cls-1" d="M39.53,11.37c0,4,0,4-4,4-2.94,0-3.18-.25-3.18-3.24,0-1,0-1.94,0-2.9A1.65,1.65,0,0,1,34.25,7.5c1.06,0,2.13,0,3.19,0,1.53,0,2,.57,2.09,2.13C39.54,10.21,39.53,10.79,39.53,11.37Zm-2.22-.29c.08-.7.23-1.51-1.34-1.54s-1.4.84-1.38,1.8a2.81,2.81,0,0,1,0,.58c-.17,1.06.23,1.36,1.33,1.42C37.67,13.44,37.31,12.34,37.31,11.08Z" />
            <path class="cls-1" d="M30.84,24.45c0,3.94,0,3.94-3.92,3.94a14,14,0,0,1-1.45,0,1.62,1.62,0,0,1-1.66-1.79q0-2.17,0-4.35a1.66,1.66,0,0,1,1.8-1.83c1,0,2,0,3,0,1.64,0,2.17.57,2.19,2.18C30.85,23.19,30.84,23.82,30.84,24.45Zm-2.13-.14c.2-1.1.05-1.77-1.48-1.78s-1.34.9-1.33,1.83-.32,1.92,1.4,1.9S28.8,25.41,28.71,24.31Z" />
            <path class="cls-1" d="M30.84,11.49c0,3.92,0,3.92-3.89,3.92-.49,0-1,0-1.45,0a1.53,1.53,0,0,1-1.67-1.61c0-1.55,0-3.09,0-4.64a1.48,1.48,0,0,1,1.61-1.64c1.12,0,2.23,0,3.34,0,1.58,0,2,.52,2.07,2.1C30.85,10.23,30.84,10.86,30.84,11.49Zm-2.19-.31c-.12-.29.49-1.11-.29-1.52a1.6,1.6,0,0,0-2.46,1.57,4.33,4.33,0,0,1,0,.72c-.18,1.07.27,1.33,1.33,1.39C28.8,13.43,28.88,12.62,28.65,11.18Z" />
        </g>
    </g>
</svg>