<svg xmlns="http://www.w3.org/2000/svg" viewBox="0 0 23.23 23.23"><defs><style>.cls-1{fill:#ef6aa0;}</style></defs><title>edit_icon</title><g id="Layer_2" data-name="Layer 2"><g id="Layer_1-2" data-name="Layer 1"><path class="cls-1" d="M20,10a1.08,1.08,0,0,0-.81.26,1,1,0,0,0-.25.77q0,3.8,0,7.59a2.3,2.3,0,0,1-2.49,2.49H4.6a2.25,2.25,0,0,1-2.47-2.48c0-1.17,0-2.34,0-3.52,0-2.69,0-5.47,0-8.21A2.54,2.54,0,0,1,2.83,5a2.49,2.49,0,0,1,1.88-.7c1.42,0,2.83,0,4.25,0h3.25A1,1,0,0,0,13,4.08a1.08,1.08,0,0,0,.25-.81,1.24,1.24,0,0,0-.17-.72,1,1,0,0,0-.85-.34H11.8c-2.33,0-4.75,0-7.11,0A4.52,4.52,0,0,0,0,6.85c0,2.61,0,5.27,0,7.84v3.93a4.33,4.33,0,0,0,4.6,4.61h12A4.38,4.38,0,0,0,21,18.74V16.13c0-1.7,0-3.4,0-5.09a1,1,0,0,0-.25-.77A1.1,1.1,0,0,0,20,10Z"/><path class="cls-1" d="M21.13.31a3.48,3.48,0,0,0-3.92.74Q13.58,4.67,10,8.31L6.47,11.8a1.47,1.47,0,0,0-.45.9l-.21,1.75L5.6,16.14a1.49,1.49,0,0,0,.25,1.23,1.21,1.21,0,0,0,.88.29h.33l2.61-.26.79-.09a1.63,1.63,0,0,0,1-.48L16.28,12l5.95-6a3.37,3.37,0,0,0,1-2.48A3.47,3.47,0,0,0,21.13.31ZM20.75,4.5c-.19.21-.39.41-.59.61l-.46.46-2-2,.3-.3a8.35,8.35,0,0,1,.93-.87,1.27,1.27,0,0,1,1.45-.09,1.3,1.3,0,0,1,.75,1.24,1.27,1.27,0,0,1-.37,1ZM18.23,7.06q-4,4-8,8a.42.42,0,0,1-.21.12l-2.19.22c.08-.61.16-1.22.21-1.84a1.17,1.17,0,0,1,.39-.75q3.9-3.88,7.78-7.8l0,0c.65.7,1.33,1.36,2,2Z"/></g></g></svg>