<svg xmlns="http://www.w3.org/2000/svg" viewBox="0 0 75.91 75.91">
    <defs>
        <style>.cls-1{fill:#ef6aa0;}</style>
    </defs>
    <title>house</title>
    <g class="svggroup" id="Layer_2" data-name="Layer 2">
        <g class="svggroup" id="Layer_1-2" data-name="Layer 1">
            <path class="cls-1" d="M54.7,12.21c0-1.66,0-3.13,0-4.61,0-1.68.54-2.27,2.17-2.29q3.69-.06,7.38,0c1.63,0,2.16.6,2.17,2.29,0,4.2,0,8.39,0,12.58a2.72,2.72,0,0,0,1.23,2.48c2.4,1.8,4.75,3.67,7.11,5.54,1.49,1.18,1.53,2,.18,3.41s-2.85,2.87-4.28,4.29c-.38.39-.78.93-1.32.86-1.55-.2-1.44.76-1.43,1.78,0,3,0,5.92,0,8.88,0,1.1-.24,2.06-1.53,2.09s-1.65-1-1.64-2.12c0-4,0-7.89,0-11.84a2.7,2.7,0,0,0-1.11-2.4Q51.29,23.53,39,13.85a1.37,1.37,0,0,0-2,0q-12.31,9.67-24.69,19.3a2.6,2.6,0,0,0-1.11,2.25c0,11.94.06,23.87,0,35.81,0,1.82,1.06,1.47,2.11,1.53s1.94,0,1.89-1.61c-.11-3.84,0-7.69,0-11.54,0-1.13.16-2.18,1.56-2.2s1.61,1,1.61,2.15c0,3.9,0,7.8,0,11.69,0,1.18.39,1.52,1.54,1.52q21.72,0,43.44,0c1.27,0,1.58-.46,1.56-1.64,0-3.8,0-7.6,0-11.4,0-1.14.21-2.2,1.56-2.22s1.61,1,1.61,2.18c0,3.84,0,7.69,0,11.54,0,1.15.34,1.59,1.52,1.53,1.52-.08,3,0,4.58,0,1.08,0,1.87.41,1.86,1.6s-.85,1.56-1.91,1.56H2.87c-2.08,0-2.8-.4-2.82-1.55s.71-1.61,2.76-1.62c1.33,0,2.66,0,4,0,.89,0,1.28-.34,1.2-1.22,0-.25,0-.49,0-.74V38.38c0-.89.22-1.87-1.28-1.6-.56.1-1-.4-1.37-.79-1.49-1.49-3-3-4.48-4.5-1.21-1.25-1.17-2.14.19-3.21Q18.68,14.48,36.33.67a2.33,2.33,0,0,1,3.3,0c4.32,3.43,8.68,6.82,13,10.21A5.52,5.52,0,0,0,54.7,12.21ZM71.64,30c-.28-.23-.56-.5-.86-.74Q55.06,17,39.37,4.64c-1.14-.9-1.81-.78-2.87.05Q21.41,16.58,6.25,28.39C4.08,30.09,4.14,30,6,32c.9,1,1.47.84,2.42.09Q22.13,21.26,36,10.51C37.84,9,38.06,9,39.9,10.46l27,21.11c1.93,1.51,1.93,1.51,3.69-.27C71,30.93,71.47,30.64,71.64,30ZM63,19c.16-.28.24-.36.24-.44q0-3,0-6.07c0-4.13,0-4.11-4.22-3.84-.9.06-1.22.41-1.19,1.27,0,1.38,0,2.77,0,4.15,0,.39,0,.83.31,1.1C59.77,16.45,61.37,17.71,63,19Z" />
            <path class="cls-1" d="M38.05,32.19H51.19c2.16,0,2.53.36,2.53,2.46q0,13.31,0,26.62c0,2.14-.36,2.5-2.49,2.5H24.65c-2.06,0-2.46-.38-2.46-2.39q0-13.38,0-26.77c0-2,.39-2.42,2.42-2.42Zm-7,3.16c-1.42,0-2.85,0-4.27,0-1,0-1.43.26-1.41,1.33.06,2.8,0,5.6,0,8.41,0,.91.26,1.34,1.25,1.33,2.85,0,5.7,0,8.54,0,.85,0,1.27-.25,1.25-1.17,0-2.9,0-5.81,0-8.71,0-.92-.39-1.2-1.25-1.18C33.76,35.38,32.39,35.35,31,35.35Zm8.53,5.38c0,1.42,0,2.85,0,4.27,0,1,.27,1.43,1.33,1.41,2.8,0,5.6,0,8.4,0,.91,0,1.34-.26,1.33-1.26,0-2.85,0-5.7,0-8.55,0-.85-.25-1.27-1.17-1.26q-4.35.06-8.69,0c-.92,0-1.2.4-1.18,1.26C39.57,38,39.54,39.35,39.54,40.73ZM36.38,55.09c0-1.38,0-2.76,0-4.13,0-1-.26-1.43-1.33-1.41-2.79.05-5.59,0-8.39,0-.91,0-1.35.25-1.33,1.25,0,2.85,0,5.7,0,8.56,0,.84.25,1.26,1.17,1.25q4.35,0,8.69,0c.92,0,1.21-.39,1.18-1.24C36.35,57.94,36.37,56.51,36.38,55.09Zm14.18,0c0-1.38,0-2.76,0-4.13,0-1-.26-1.43-1.33-1.41-2.8.05-5.6,0-8.39,0-.92,0-1.35.26-1.34,1.25,0,2.85,0,5.71,0,8.56,0,.85.25,1.26,1.17,1.25q4.35,0,8.69,0c.92,0,1.2-.39,1.18-1.25C50.53,57.94,50.56,56.51,50.56,55.09Z" />
        </g>
    </g>
</svg>