<svg fill="#40C057" xmlns="http://www.w3.org/2000/svg"  viewBox="0 0 80 80" width="80px" height="80px"><path d="M 46 9.7929688 L 10 16.615234 L 10 17.443359 L 10 63.384766 L 46 70.207031 L 46 63 L 70 63 L 70 17 L 46 17 L 46 9.7929688 z M 44 12.207031 L 44 67.792969 L 12 61.728516 L 12 18.271484 L 44 12.207031 z M 41 15 A 1 1 0 0 0 40 16 A 1 1 0 0 0 41 17 A 1 1 0 0 0 42 16 A 1 1 0 0 0 41 15 z M 41 19 A 1 1 0 0 0 40 20 A 1 1 0 0 0 41 21 A 1 1 0 0 0 42 20 A 1 1 0 0 0 41 19 z M 46 19 L 68 19 L 68 61 L 46 61 L 46 56 L 64 56 L 64 54 L 46 54 L 46 48.234375 C 47.242781 48.72069 48.589043 49 50 49 C 56.063407 49 61 44.063407 61 38 L 61 37 L 51 37 L 51 27 L 50 27 C 48.589043 27 47.242781 27.27931 46 27.765625 L 46 19 z M 41 23 A 1 1 0 0 0 40 24 A 1 1 0 0 0 41 25 A 1 1 0 0 0 42 24 A 1 1 0 0 0 41 23 z M 53 24 L 53 25 L 53 35 L 64 35 L 64 34 C 64 28.488666 59.511334 24 54 24 L 53 24 z M 55 26.201172 C 58.589854 26.667024 61.332976 29.410146 61.798828 33 L 55 33 L 55 26.201172 z M 41 27 A 1 1 0 0 0 40 28 A 1 1 0 0 0 41 29 A 1 1 0 0 0 42 28 A 1 1 0 0 0 41 27 z M 49 29.132812 L 49 39 L 58.798828 39 C 58.281386 43.4853 54.627475 47 50 47 C 48.556397 47 47.206678 46.646518 46 46.044922 L 46 29.955078 C 46.921842 29.515131 47.937729 29.25286 49 29.132812 z M 19 30 L 19 49 L 23 49 L 23 42 L 25.371094 42 C 29.999094 42 33 39.999687 33 36.054688 C 33 31.999688 30.000766 30 25.759766 30 L 19 30 z M 41 31 A 1 1 0 0 0 40 32 A 1 1 0 0 0 41 33 A 1 1 0 0 0 42 32 A 1 1 0 0 0 41 31 z M 23 33 L 26.011719 33 C 27.999719 33 29 34 29 36 C 29 37.995 28 39 26 39 L 22.988281 39 L 23 33 z M 41 35 A 1 1 0 0 0 40 36 A 1 1 0 0 0 41 37 A 1 1 0 0 0 42 36 A 1 1 0 0 0 41 35 z M 41 39 A 1 1 0 0 0 40 40 A 1 1 0 0 0 41 41 A 1 1 0 0 0 42 40 A 1 1 0 0 0 41 39 z M 41 43 A 1 1 0 0 0 40 44 A 1 1 0 0 0 41 45 A 1 1 0 0 0 42 44 A 1 1 0 0 0 41 43 z M 41 47 A 1 1 0 0 0 40 48 A 1 1 0 0 0 41 49 A 1 1 0 0 0 42 48 A 1 1 0 0 0 41 47 z M 41 51 A 1 1 0 0 0 40 52 A 1 1 0 0 0 41 53 A 1 1 0 0 0 42 52 A 1 1 0 0 0 41 51 z M 41 55 A 1 1 0 0 0 40 56 A 1 1 0 0 0 41 57 A 1 1 0 0 0 42 56 A 1 1 0 0 0 41 55 z M 41 59 A 1 1 0 0 0 40 60 A 1 1 0 0 0 41 61 A 1 1 0 0 0 42 60 A 1 1 0 0 0 41 59 z M 41 63 A 1 1 0 0 0 40 64 A 1 1 0 0 0 41 65 A 1 1 0 0 0 42 64 A 1 1 0 0 0 41 63 z"/></svg>